<svg width="101" height="22" viewBox="0 0 101 22" fill="none" xmlns="http://www.w3.org/2000/svg">
<g clip-path="url(#clip0_2416_374)">
<path fill-rule="evenodd" clip-rule="evenodd" d="M95.3336 16.6132C94.2455 17.7826 92.9469 18.2642 91.262 18.2642C89.7176 18.2642 88.3838 17.6794 87.4361 16.51C86.4884 15.3405 85.997 13.9303 85.997 12.1417C85.997 10.4907 86.4884 9.08048 87.5414 7.91104C88.5944 6.74155 89.9282 6.15683 91.3673 6.15683C93.0521 6.15683 94.3859 6.74155 95.3336 7.91104C96.2813 9.08048 96.878 10.4907 96.878 12.2793C96.878 13.9991 96.4218 15.4437 95.3336 16.6132ZM96.6674 6.3632L95.9303 5.64089C94.3859 3.98989 92.5607 3.16441 90.5249 3.16441C88.2434 3.16441 86.2076 3.98989 84.7685 5.74409C83.2242 7.39509 82.4871 9.63081 82.4871 12.1073C82.4871 14.687 83.3294 16.9227 84.7685 18.5737C86.3129 20.2247 88.3838 21.1534 90.6653 21.1534C92.5958 21.1534 94.2806 20.3279 95.9303 18.9177L96.527 18.3329V20.7063H100.002V3.64596H96.527V6.3632H96.6674ZM69.7457 12.2449C69.7457 15.7877 67.9556 18.0234 64.937 18.0234C61.9184 18.0234 60.1283 15.7877 60.1283 12.2449V3.64596H56.6534V12.2449C56.6534 17.4043 60.1283 21.1878 64.937 21.1878C69.7457 21.1878 73.2206 17.4386 73.2206 12.2449V3.64596H69.7457L69.7457 12.2449ZM76.4849 20.7063H79.9598V3.64596H76.4849V20.7063ZM54.1613 12.3825C54.1613 7.42948 50.195 3.54276 45.281 3.33639C45.1757 3.33639 45.0353 3.43955 45.1757 3.57715C45.5267 4.29946 46.3691 5.91607 47.8082 6.98235C49.7387 8.39255 50.8268 10.1468 50.8268 12.2793C50.8268 14.9966 48.6506 18.0578 45.0704 18.0578C41.4551 18.0578 39.314 14.9966 39.314 12.2793C39.314 10.1468 40.5074 8.39255 42.3326 6.98235C43.7717 5.81287 44.7194 4.30636 44.9651 3.58404C45.0704 3.48083 44.9651 3.34328 44.8598 3.34328C39.8054 3.44645 35.8391 7.32632 35.8391 12.2449C35.8391 16.2348 39.314 20.9471 44.9651 20.9471C47.4923 20.9471 49.6334 20.2247 51.2129 18.9521L53.003 20.6031H58.0574L53.3189 16.2348C53.8103 15.2029 54.1613 13.8959 54.1613 12.3825ZM6.49548 14.7214L10.567 5.88168L14.6738 14.7214H6.49548ZM10.4618 0C9.86504 0 9.37366 0.343964 9.12798 0.825479L0.00195312 20.7063H3.61725L4.95104 17.8858H16.0076L17.3414 20.7063H20.9567L11.9008 0.963073C11.6552 0.378352 11.0585 0 10.4618 0ZM29.5562 6.604C31.1006 6.604 32.5748 7.18872 33.5225 8.11741C33.8735 7.05113 34.4702 6.12244 35.2073 5.15937C33.6629 3.98989 31.7324 3.26757 29.5562 3.26757C24.5018 3.302 20.2898 7.32632 20.2898 12.3825C20.2898 17.3355 24.3614 21.4286 29.5211 21.4286C31.6973 21.4286 33.5927 20.7063 35.1722 19.5368C34.4351 18.6081 33.9788 17.6451 33.4874 16.5788C32.3993 17.5075 31.1006 18.0922 29.5211 18.0922C26.2919 18.0922 23.6243 15.5125 23.6243 12.3137C23.6594 9.18369 26.2919 6.604 29.5562 6.604Z" fill="#018DC6"/>
</g>
<defs>
<clipPath id="clip0_2416_374">
<rect width="100" height="21.4286" fill="white" transform="translate(0.00195312)"/>
</clipPath>
</defs>
</svg>
