<svg width="151" height="150" viewBox="0 0 151 150" fill="none" xmlns="http://www.w3.org/2000/svg">
<path opacity="0.15" d="M60.2669 116.387C107.233 132.973 126.966 99.0474 130.962 80.0112C148.044 18.6099 51.4999 27.0952 31.4541 47.1565C17.6217 60.9997 1.55894 95.6544 60.2669 116.387Z" fill="#53BAD1"/>
<path opacity="0.1" d="M35.154 105.561C68.3187 148.078 106.101 128.642 120.846 113.61C172.232 67.5682 79.2284 19.0077 49.2463 25.6155C28.5574 30.1752 -6.30194 52.4159 35.154 105.561Z" fill="#53BAD1"/>
<mask id="mask0_1740_2465" style="mask-type:alpha" maskUnits="userSpaceOnUse" x="18" y="32" width="115" height="89">
<path d="M60.2669 116.387C107.233 132.973 126.966 99.0474 130.962 80.0112C148.044 18.6099 51.4999 27.0952 31.4541 47.1565C17.6217 60.9997 1.55894 95.6544 60.2669 116.387Z" fill="black"/>
</mask>
<g mask="url(#mask0_1740_2465)">
<path d="M108.864 127.832H43.7109V56.1659C43.7109 54.7582 44.9857 53.6064 46.5437 53.6064H106.032C107.59 53.6064 108.864 54.7582 108.864 56.1659V127.832Z" fill="white"/>
<path d="M108.864 128.214H43.7109V48.6445C43.7109 47.0815 44.9857 45.8027 46.5437 45.8027H106.032C107.59 45.8027 108.864 47.0815 108.864 48.6445V128.214Z" stroke="#53BAD1" stroke-width="2.47419" stroke-linecap="round" stroke-linejoin="round"/>
<path d="M103.199 60.0117H49.3765V77.0623H103.199V60.0117Z" stroke="#53BAD1" stroke-width="2.47419" stroke-linecap="round" stroke-linejoin="round"/>
<path d="M63.5403 85.5879H49.3765V94.1132H63.5403V85.5879Z" stroke="#53BAD1" stroke-width="2.47419" stroke-linecap="round" stroke-linejoin="round"/>
<path d="M83.3699 85.5879H69.2061V94.1132H83.3699V85.5879Z" stroke="#53BAD1" stroke-width="2.47419" stroke-linecap="round" stroke-linejoin="round"/>
<path d="M103.199 85.5879H89.0352V94.1132H103.199V85.5879Z" stroke="#53BAD1" stroke-width="2.47419" stroke-linecap="round" stroke-linejoin="round"/>
<path d="M43.7109 54.3281H108.864" stroke="#53BAD1" stroke-width="2.47419" stroke-linecap="round" stroke-linejoin="round"/>
<path d="M60.708 50.0664H104.616" stroke="#53BAD1" stroke-width="2.47419" stroke-linecap="round" stroke-linejoin="round"/>
<path d="M89.0352 99.7959H103.199" stroke="#53BAD1" stroke-width="2.47419" stroke-linecap="round" stroke-linejoin="round"/>
<path d="M69.2061 99.7959H83.3699" stroke="#53BAD1" stroke-width="2.47419" stroke-linecap="round" stroke-linejoin="round"/>
<path d="M49.3765 99.7959H63.5403" stroke="#53BAD1" stroke-width="2.47419" stroke-linecap="round" stroke-linejoin="round"/>
<path d="M89.0352 105.479H103.199" stroke="#53BAD1" stroke-width="2.47419" stroke-linecap="round" stroke-linejoin="round"/>
<path d="M69.2061 105.479H83.3699" stroke="#53BAD1" stroke-width="2.47419" stroke-linecap="round" stroke-linejoin="round"/>
<path d="M49.3765 105.479H63.5403" stroke="#53BAD1" stroke-width="2.47419" stroke-linecap="round" stroke-linejoin="round"/>
<path d="M89.0352 111.163H103.199" stroke="#53BAD1" stroke-width="2.47419" stroke-linecap="round" stroke-linejoin="round"/>
<path d="M69.2061 111.163H83.3699" stroke="#53BAD1" stroke-width="2.47419" stroke-linecap="round" stroke-linejoin="round"/>
<path d="M49.3765 111.163H63.5403" stroke="#53BAD1" stroke-width="2.47419" stroke-linecap="round" stroke-linejoin="round"/>
<path d="M89.0352 116.848H103.199" stroke="#53BAD1" stroke-width="2.47419" stroke-linecap="round" stroke-linejoin="round"/>
<path d="M69.2061 116.848H83.3699" stroke="#53BAD1" stroke-width="2.47419" stroke-linecap="round" stroke-linejoin="round"/>
<path d="M49.3765 116.848H63.5403" stroke="#53BAD1" stroke-width="2.47419" stroke-linecap="round" stroke-linejoin="round"/>
<ellipse cx="56.122" cy="50.1423" rx="1.15231" ry="1.15206" fill="#53BAD1"/>
<ellipse cx="79.1684" cy="81.2478" rx="1.15231" ry="1.15206" fill="#53BAD1"/>
<ellipse cx="52.6655" cy="50.1423" rx="1.15231" ry="1.15206" fill="#53BAD1"/>
<ellipse cx="75.7119" cy="81.2478" rx="1.15231" ry="1.15206" fill="#53BAD1"/>
<ellipse cx="49.2085" cy="50.1423" rx="1.15231" ry="1.15206" fill="#53BAD1"/>
<ellipse cx="72.2549" cy="81.2478" rx="1.15231" ry="1.15206" fill="#53BAD1"/>
</g>
</svg>
