<svg width="55" height="55" viewBox="0 0 55 55" fill="none" xmlns="http://www.w3.org/2000/svg">
<g clip-path="url(#clip0_2416_215)">
<path d="M20.1806 27.5C20.1806 23.8926 23.1084 20.9648 26.7158 20.9648C30.3232 20.9648 33.2509 23.8926 33.2509 27.5C33.2509 31.1074 30.3232 34.0352 26.7158 34.0352C23.1084 34.0875 20.1806 31.1074 20.1806 27.5ZM26.7158 0C13.8546 0 3.0846 8.78327 0.0522814 20.7034C0.0522814 20.808 0 20.8603 0 20.9648C0 21.6968 0.575095 22.2719 1.30703 22.2719H12.3907C12.9135 22.2719 13.384 21.9582 13.5932 21.4876C15.8935 16.5209 20.8603 13.0703 26.7158 13.0703C34.6625 13.0703 41.1454 19.5532 41.1454 27.5C41.1454 35.4468 34.6625 41.9297 26.7158 41.9297C20.9125 41.9297 15.8935 38.4791 13.5932 33.5124C13.384 33.0418 12.9135 32.7281 12.3907 32.7281H1.30703C0.575095 32.7281 0 33.3032 0 34.0352C0 34.1397 0 34.192 0.0522814 34.2966C3.0846 46.2167 13.8546 55 26.7158 55C41.9297 55 54.2681 42.6616 54.2681 27.4477C54.2681 12.2861 41.9297 0 26.7158 0Z" fill="#064C64"/>
</g>
<defs>
<clipPath id="clip0_2416_215">
<rect width="54.2681" height="55" fill="white"/>
</clipPath>
</defs>
</svg>
