<svg width="375" height="317" viewBox="0 0 375 317" fill="none" xmlns="http://www.w3.org/2000/svg">
<mask id="mask0_2146_4727" style="mask-type:alpha" maskUnits="userSpaceOnUse" x="-132" y="0" width="558" height="317">
<rect x="-131.27" width="556.771" height="317" fill="#D9D9D9"/>
</mask>
<g mask="url(#mask0_2146_4727)">
<path opacity="0.2" d="M114.942 360.479C287.673 421.479 360.247 296.708 374.943 226.698C437.765 0.878087 82.699 32.085 8.97541 105.866C-41.8972 156.778 -100.972 284.229 114.942 360.479Z" fill="#9036AA"/>
<path opacity="0.07" d="M45.4251 312.885C168.334 448.717 291.53 373.499 337.763 318.91C500.455 150.173 173.3 8.69708 73.3531 38.5186C4.38507 59.0968 -108.212 143.095 45.4251 312.885Z" fill="#9036AA"/>
<g clip-path="url(#clip0_2146_4727)">
<path d="M172.152 272.998L122.631 223.617L172.152 174.237" fill="#9036AA"/>
<path d="M320.221 168.698C318.417 164.466 316.436 160.374 314.243 156.353C303.361 136.389 287.819 119.331 268.931 106.62C267.057 105.351 265.147 104.151 263.201 103.093C259.31 100.73 255.313 98.5784 251.175 96.5679C229.606 86.2431 205.764 81.5406 181.878 82.9002C157.992 84.2598 134.842 91.637 114.592 104.342C94.3416 117.047 77.6531 134.665 66.0866 155.549C54.52 176.433 48.4531 199.9 48.4531 223.757C48.4531 247.614 54.52 271.082 66.0866 291.965C77.6531 312.849 94.3416 330.467 114.592 343.172C134.842 355.877 157.992 363.255 181.878 364.614C205.764 365.974 229.606 361.271 251.175 350.946C255.313 348.936 259.31 346.784 263.201 344.421C265.147 343.222 267.057 342.023 268.931 340.894C287.819 328.183 303.361 311.125 314.243 291.161C316.436 287.14 318.417 283.049 320.221 278.816C327.552 261.43 331.328 242.759 331.328 223.898C331.328 205.038 327.552 186.367 320.221 168.98V168.698ZM211.063 170.709L264.121 223.616L211.063 276.523V170.709ZM76.6488 223.616C76.6488 193.681 88.5742 164.973 109.802 143.806C131.029 122.639 159.819 110.747 189.839 110.747V336.485C159.819 336.485 131.029 324.594 109.802 303.426C88.5742 282.259 76.6488 253.551 76.6488 223.616Z" fill="#9036AA"/>
</g>
</g>
<defs>
<clipPath id="clip0_2146_4727">
<rect width="282.875" height="281.977" fill="white" transform="translate(48.4531 82.6162)"/>
</clipPath>
</defs>
</svg>
