<svg width="100" height="100" viewBox="0 0 100 100" fill="none" xmlns="http://www.w3.org/2000/svg">
<rect x="-0.000488281" y="0.000488281" width="100" height="100" fill="white"/>
<g clip-path="url(#clip0_1725_2226)">
<path d="M50.0165 45.294C51.1828 45.3087 52.3405 45.0916 53.4222 44.6553C54.504 44.2191 55.4883 43.5723 56.3181 42.7526C57.1479 41.9329 57.8067 40.9565 58.2562 39.8802C58.7057 38.8039 58.9369 37.649 58.9365 36.4826C58.9362 35.3161 58.7041 34.1614 58.2539 33.0854C57.8037 32.0094 57.1443 31.0334 56.3139 30.2143C55.4836 29.3951 54.4988 28.749 53.4168 28.3135C52.3347 27.8779 51.1769 27.6616 50.0106 27.677C47.6743 27.6776 45.4339 28.6063 43.7822 30.2588C42.1306 31.9112 41.203 34.1521 41.2036 36.4885C41.2042 38.8248 42.1329 41.0653 43.7853 42.7169C45.4378 44.3685 47.6787 45.2961 50.015 45.2955" fill="#F16722"/>
<path d="M64.2182 50.6879H35.8138V22.282H64.2196L64.2182 50.6879ZM50.0167 16.2534C38.8413 16.2534 29.7837 25.3081 29.7837 36.485C29.7837 47.6604 38.8413 56.718 50.0152 56.718C61.1906 56.718 70.2497 47.6604 70.2497 36.485C70.2497 25.3096 61.1892 16.2505 50.0152 16.2505L50.0167 16.2534Z" fill="#0DA9A0"/>
<path d="M50.0167 27.6772C51.1736 27.6772 52.3191 27.9051 53.3879 28.3478C54.4567 28.7905 55.4278 29.4394 56.2458 30.2574C57.0638 31.0754 57.7127 32.0465 58.1554 33.1153C58.5981 34.1841 58.826 35.3296 58.826 36.4865C58.826 37.6433 58.5981 38.7888 58.1554 39.8576C57.7127 40.9264 57.0638 41.8975 56.2458 42.7155C55.4278 43.5335 54.4567 44.1824 53.3879 44.6251C52.3191 45.0678 51.1736 45.2957 50.0167 45.2957C47.6804 45.2957 45.4397 44.3676 43.7877 42.7155C42.1356 41.0635 41.2075 38.8228 41.2075 36.4865C41.2075 34.1501 42.1356 31.9094 43.7877 30.2574C45.4397 28.6053 47.6804 27.6772 50.0167 27.6772ZM35.7168 50.7849H64.3137V22.1865H35.7168V50.7849Z" fill="#9FC854"/>
<path d="M61.5725 67.3967V64.7168L58.8446 66.0811V68.1478L61.5725 67.3967ZM58.8446 69.4984H61.5725V79.8773H58.8446V69.4984ZM71.1006 70.0127C70.7457 69.6364 70.0735 69.2807 69.1836 69.2807C68.2155 69.2807 67.5234 69.6954 67.0482 70.1898V69.4984H64.321V79.8773H67.0489V74.2628C67.0489 72.4639 67.7403 72.0093 68.8087 72.0093C69.4212 72.0093 69.9554 72.2867 70.39 72.6822L71.1006 70.012V70.0127ZM73.0966 78.8288C73.0966 78.1381 72.5027 77.5242 71.8312 77.5242C71.1405 77.5242 70.5665 78.1381 70.5665 78.8288C70.5665 79.5209 71.1405 80.0942 71.8312 80.0942C72.5034 80.0942 73.0966 79.5202 73.0966 78.8288ZM56.1963 76.6934C55.5234 77.2674 55.1478 77.4844 54.6535 77.4844C54.0012 77.4844 53.6448 77.2276 53.6448 76.2389V72.0684H56.1366V69.4984H53.6448V65.4659L50.9169 66.8295V69.4984H49.177V72.0684H50.9169V76.9694C50.9169 78.789 52.0038 80.0935 53.6847 80.0935C54.5347 80.0935 55.3442 79.8182 55.7994 79.4619L56.1956 76.6941L56.1963 76.6934ZM47.5545 79.8773V74.0252C47.5545 71.1003 46.3688 69.2807 43.7191 69.2807C42.6322 69.2807 41.7629 69.6954 41.2885 70.1898V69.4984H38.5599V79.8773H41.2885V74.2031C41.2885 72.4041 41.9408 71.8514 43.0668 71.8514C44.1936 71.8514 44.8266 72.4041 44.8266 74.2628V79.8773H47.5545ZM31.7988 69.2807C30.118 69.2807 29.1107 69.6364 27.905 70.3285L28.9528 72.2263C29.901 71.7127 30.5533 71.5349 31.7988 71.5349C32.7875 71.5349 33.2819 72.1274 33.2819 72.8587V73.3723C32.8466 73.1553 32.2341 72.9569 31.2845 72.9569C28.9329 72.9569 27.0749 74.1042 27.0749 76.3968C27.0749 78.9071 29.0118 80.0935 30.9488 80.0935C31.9176 80.0935 32.7875 79.6994 33.2819 79.1852V79.8766H36.0098V72.9184C36.0098 70.586 34.3097 69.2807 31.7988 69.2807ZM33.2819 76.8314C32.9853 77.3258 32.2726 77.781 31.3841 77.781C30.2168 77.781 29.8021 77.1294 29.8021 76.3961C29.8021 75.566 30.3562 75.0922 31.3841 75.0922C32.3522 75.0922 32.8074 75.2309 33.2819 75.5276V76.8314ZM25.0185 79.8773V65.4652L22.2905 66.8295V79.8773H25.0185ZM15.4306 69.2807C13.7504 69.2807 12.7418 69.6364 11.5368 70.3285L12.5839 72.2263C13.5328 71.7127 14.1851 71.5349 15.4306 71.5349C16.42 71.5349 16.9137 72.1274 16.9137 72.8587V73.3723C16.479 73.1553 15.8659 72.9569 14.917 72.9569C12.5646 72.9569 10.706 74.1042 10.706 76.3968C10.706 78.9071 12.6436 80.0935 14.5805 80.0935C15.5487 80.0935 16.4193 79.6994 16.9137 79.1852V79.8766H19.6416V72.9184C19.6416 70.586 17.9422 69.2807 15.4306 69.2807ZM16.9137 76.8314C16.617 77.3258 15.905 77.781 15.0159 77.781C13.8493 77.781 13.4346 77.1294 13.4346 76.3961C13.4346 75.566 13.988 75.0922 15.0159 75.0922C15.9847 75.0922 16.4392 75.2309 16.9137 75.5276V76.8314ZM5.17185 69.2807C4.18313 69.2807 3.49102 69.6954 2.97812 70.1507V69.4984H0.249512V83.6921L2.97812 82.3285V79.284C3.4718 79.7386 4.26209 80.0942 5.17185 80.0942C7.74186 80.0942 9.20435 77.9204 9.20435 74.8162C9.20435 70.9417 7.38619 69.2807 5.17185 69.2807ZM4.81619 77.5242C4.0259 77.5242 3.39352 77.2084 2.97881 76.6344V72.7207C3.37361 72.2057 3.80893 71.85 4.65827 71.85C5.72527 71.85 6.43729 72.7399 6.43729 74.8739C6.43729 76.6158 5.86328 77.5242 4.81619 77.5242ZM100.25 70.7432V69.4984H97.6795V65.4659L96.1964 66.2953V69.4977H94.9111V70.7425H96.1971V77.7412C96.1971 79.4612 96.8885 80.0929 98.1739 80.0929C98.9642 80.0929 99.5169 79.9741 100.091 79.7372L100.19 78.4532C99.716 78.6503 99.3198 78.7485 98.728 78.7485C97.937 78.7485 97.6795 78.4326 97.6795 77.5043V70.7425H100.249L100.25 70.7432ZM93.785 74.3809C93.785 71.4154 92.3225 69.2807 89.6132 69.2807C87.1427 69.2807 85.3239 71.3371 85.3239 74.6377C85.3239 78.7093 87.6364 80.0935 89.5342 80.0935C91.0956 80.0935 92.0053 79.6781 93.2508 78.8885L92.5581 77.8208C91.6098 78.4532 90.8985 78.8096 89.6921 78.8096C87.9914 78.8096 86.9457 77.4061 86.8056 75.1911H93.7253C93.7651 74.9549 93.785 74.7373 93.785 74.3809ZM79.8186 69.2807C82.013 69.2807 83.4549 70.5661 83.4549 73.5508L83.4556 79.8766H81.9739V73.8076C81.9739 71.5733 81.1829 70.5661 79.5227 70.5661C78.0787 70.5661 76.9527 71.5349 76.9527 73.8076V79.8773H75.4696V69.4984H76.9527V70.7638C77.5452 69.8939 78.514 69.2807 79.8186 69.2807ZM89.5932 70.5661C91.4128 70.5661 92.2813 71.9695 92.4015 73.9854L86.8056 73.9847L86.8234 73.7856C87.0473 71.609 88.0964 70.5661 89.5932 70.5661Z" fill="#444342"/>
</g>
<defs>
<clipPath id="clip0_1725_2226">
<rect width="100" height="100" fill="white" transform="translate(-0.000488281 0.000488281)"/>
</clipPath>
</defs>
</svg>
