<svg id="logo-_-blue" data-name="logo-/-blue" xmlns="http://www.w3.org/2000/svg" width="84.049" height="18.01" viewBox="0 0 84.049 18.01">
  <path id="Logo" d="M80.125,13.963A4.34,4.34,0,0,1,76.7,15.351a3.99,3.99,0,0,1-3.216-1.474,5.579,5.579,0,0,1-1.21-3.671,5.1,5.1,0,0,1,1.3-3.556,4.246,4.246,0,0,1,3.216-1.474,4.064,4.064,0,0,1,3.334,1.474,5.632,5.632,0,0,1,1.3,3.671A5.09,5.09,0,0,1,80.125,13.963Zm1.121-8.615-.62-.607a6.239,6.239,0,0,0-9.381.087,7.657,7.657,0,0,0-1.918,5.348,8.155,8.155,0,0,0,1.918,5.435,6.455,6.455,0,0,0,9.381.289l.5-.491V17.4h2.921V3.064H81.128V5.348ZM58.619,10.292c0,2.978-1.5,4.857-4.042,4.857s-4.042-1.879-4.042-4.857V3.064H47.615v7.227c0,4.336,2.921,7.516,6.962,7.516s6.962-3.151,6.962-7.516V3.064H58.619v7.227ZM64.283,17.4H67.2V3.064H64.283Zm-18.763-7a7.666,7.666,0,0,0-7.464-7.6c-.088,0-.206.087-.088.2a7.874,7.874,0,0,0,2.213,2.862,5.431,5.431,0,0,1,2.537,4.452,4.838,4.838,0,1,1-9.676,0,5.659,5.659,0,0,1,2.537-4.452,7.568,7.568,0,0,0,2.213-2.856.119.119,0,0,0-.089-.2,7.548,7.548,0,0,0-7.582,7.482,7.6,7.6,0,0,0,7.67,7.314,8.241,8.241,0,0,0,5.251-1.677l1.5,1.388H48.8l-3.983-3.671a7.53,7.53,0,0,0,.708-3.238ZM5.458,12.373,8.88,4.943l3.452,7.43ZM8.791,0A1.253,1.253,0,0,0,7.67.694L0,17.4H3.039L4.16,15.033h9.293L14.574,17.4h3.039L10,.809A1.34,1.34,0,0,0,8.791,0ZM24.84,5.551a4.837,4.837,0,0,1,3.334,1.272A8.455,8.455,0,0,1,29.59,4.336a7.815,7.815,0,0,0-12.538,6.071,7.672,7.672,0,0,0,7.759,7.6,7.863,7.863,0,0,0,4.75-1.59,11.575,11.575,0,0,1-1.416-2.486,5,5,0,0,1-3.334,1.272,4.918,4.918,0,0,1-4.956-4.857,4.933,4.933,0,0,1,4.986-4.8Z" fill="#fff" fill-rule="evenodd"/>
</svg>
