<svg width="154" height="145" viewBox="0 0 154 145" fill="none" xmlns="http://www.w3.org/2000/svg">
<g clip-path="url(#clip0_2521_4846)">
<path opacity="0.15" d="M96.2662 22.7559C39.3185 2.64485 15.3916 43.7806 10.5465 66.8624C-10.1653 141.313 106.896 131.024 131.202 106.699C147.974 89.9141 167.451 47.8947 96.2662 22.7559Z" fill="#9036AA"/>
<path opacity="0.1" d="M126.716 35.8829C86.5029 -15.669 40.6914 7.89699 22.8122 26.1239C-39.4943 81.9503 73.2747 140.831 109.629 132.819C134.714 127.29 176.982 100.323 126.716 35.8829Z" fill="#9036AA"/>
<g clip-path="url(#clip1_2521_4846)">
<path d="M100.019 46.3999H46.5371V63.1999H100.019V46.3999Z" fill="white" stroke="#9036AA" stroke-width="3" stroke-linecap="round" stroke-linejoin="round"/>
<path d="M46.5371 113.6V108H74.6853" stroke="#9036AA" stroke-width="3" stroke-linecap="round" stroke-linejoin="round"/>
<path d="M105.648 74.3999V35.1999C105.648 33.6599 104.381 32.3999 102.833 32.3999H43.722C42.1739 32.3999 40.9072 33.6599 40.9072 35.1999V113.6H74.685" stroke="#9036AA" stroke-width="3" stroke-linecap="round" stroke-linejoin="round"/>
<path d="M60.6112 71.6001H46.5371V80.0001H60.6112V71.6001Z" fill="white" stroke="#9036AA" stroke-width="3" stroke-linecap="round" stroke-linejoin="round"/>
<path d="M80.3148 71.6001H66.2407V80.0001H80.3148V71.6001Z" fill="white" stroke="#9036AA" stroke-width="3" stroke-linecap="round" stroke-linejoin="round"/>
<path d="M85.9443 80.0001V71.6001H100.018V74.4001" fill="white"/>
<path d="M85.9443 80.0001V71.6001H100.018V74.4001" stroke="#9036AA" stroke-width="3" stroke-linecap="round" stroke-linejoin="round"/>
<path d="M40.9072 40.7998H105.648" stroke="#9036AA" stroke-width="3" stroke-linecap="round" stroke-linejoin="round"/>
<path d="M57.7964 36.6001H101.426" stroke="#9036AA" stroke-width="3" stroke-linecap="round" stroke-linejoin="round"/>
<path d="M66.2407 85.6001H80.3148" stroke="#9036AA" stroke-width="3" stroke-linecap="round" stroke-linejoin="round"/>
<path d="M46.5371 85.6001H60.6112" stroke="#9036AA" stroke-width="3" stroke-linecap="round" stroke-linejoin="round"/>
<path d="M66.2407 91.2002H80.3148" stroke="#9036AA" stroke-width="3" stroke-linecap="round" stroke-linejoin="round"/>
<path d="M46.5371 91.2002H60.6112" stroke="#9036AA" stroke-width="3" stroke-linecap="round" stroke-linejoin="round"/>
<path d="M66.2407 96.7998H78.9074" stroke="#9036AA" stroke-width="3" stroke-linecap="round" stroke-linejoin="round"/>
<path d="M46.5371 96.7998H60.6112" stroke="#9036AA" stroke-width="3" stroke-linecap="round" stroke-linejoin="round"/>
<path d="M66.2407 102.4H76.0926" stroke="#9036AA" stroke-width="3" stroke-linecap="round" stroke-linejoin="round"/>
<path d="M46.5371 102.4H60.6112" stroke="#9036AA" stroke-width="3" stroke-linecap="round" stroke-linejoin="round"/>
<path d="M94.6844 81.5401L80.6104 109.554C79.6815 111.416 81.0326 113.6 83.1296 113.6H111.292C113.375 113.6 114.74 111.416 113.811 109.554L99.737 81.5401C98.6955 79.4821 95.7541 79.4821 94.7126 81.5401H94.6844Z" fill="white" stroke="#9036AA" stroke-width="3" stroke-linecap="round" stroke-linejoin="round"/>
<path d="M97.2036 91.2002V102.4" stroke="#9036AA" stroke-width="3" stroke-linecap="round" stroke-linejoin="round"/>
<circle cx="97.5" cy="108" r="2" fill="#9036AA"/>
</g>
</g>
<defs>
<clipPath id="clip0_2521_4846">
<rect width="153" height="145" fill="white" transform="translate(0.5)"/>
</clipPath>
<clipPath id="clip1_2521_4846">
<rect width="76" height="84" fill="white" transform="translate(39.5 31)"/>
</clipPath>
</defs>
</svg>
