<svg width="154" height="145" viewBox="0 0 154 145" fill="none" xmlns="http://www.w3.org/2000/svg">
<g clip-path="url(#clip0_2521_4850)">
<path opacity="0.15" d="M55.4079 24.4818C0.919161 50.5292 13.0876 96.5355 25.9829 116.283C63.9818 183.573 139.482 93.5223 139.468 59.1352C139.459 35.4066 123.519 -8.07752 55.4079 24.4818Z" fill="#74B31B"/>
<path opacity="0.1" d="M86.2213 12.233C21.3338 4.21518 5.60382 53.2725 5.84975 78.8034C1.26754 162.336 122.642 124.231 142.683 92.8595C156.512 71.2118 167.331 22.2554 86.2213 12.233Z" fill="#74B31B"/>
<g clip-path="url(#clip1_2521_4850)">
<path d="M42.5 90.5V58L52.5 57.5L58.5 54.5H67L58.5 65.5L62 70H66.5L81 61.5L88 71.5L100.5 96.5L97.5 101L91 100L87 104L81 103.5L76 107L69.5 106L63.5 108L58.5 106L49 90.5H42.5Z" fill="white"/>
<path d="M92.4169 79.8516C92.4169 79.8516 95.2099 85.0939 99.5989 93.812C100.682 95.9435 100.644 98.6703 97.8889 100.437C95.5519 101.935 92.1509 101.724 90.9729 99.8609L84.3229 87.6479M81.0549 103.644C79.9719 105.641 79.3069 105.852 78.2809 106.428C75.6019 107.926 71.6879 108.08 70.0539 105.468L65.1519 96.8652M90.9159 99.9185C90.5549 101.455 88.7119 103.01 87.6479 103.605C85.0829 105.065 81.6629 104.642 80.0859 102.127L74.7089 92.4486" stroke="#74B31B" stroke-width="3" stroke-linecap="round" stroke-linejoin="round"/>
<path fill-rule="evenodd" clip-rule="evenodd" d="M38.4001 95.8477H26.2401C24.4161 95.8477 22.8201 94.5227 22.4971 92.7177C19.7231 77.1442 19.3811 63.7022 19.4001 57.4229C19.4001 55.3106 21.1101 53.6016 23.2001 53.6016H38.4001C40.4901 53.6016 42.2001 55.3298 42.2001 57.4421V92.0072C42.2001 94.1195 40.4901 95.8477 38.4001 95.8477Z" stroke="#74B31B" stroke-width="3" stroke-linecap="round" stroke-linejoin="round"/>
<path d="M70.0538 105.66C69.5028 106.275 69.0088 106.582 67.8118 107.235C64.9428 108.79 59.9458 108.521 57.0578 103.855C53.1248 97.4797 49.3818 90.0098 49.3818 90.0098H43.0928" stroke="#74B31B" stroke-width="3" stroke-linecap="round" stroke-linejoin="round"/>
<path d="M42.2002 57.4421H53.6002L57.9512 55.0418C59.6612 54.1008 61.5992 53.6016 63.5562 53.6016H66.5962" stroke="#74B31B" stroke-width="3" stroke-linecap="round" stroke-linejoin="round"/>
<path fill-rule="evenodd" clip-rule="evenodd" d="M106.8 57.4421L92.3412 47.6871C90.6312 46.5349 88.5982 45.9204 86.5462 45.9204H80.2002C76.5902 45.9204 73.1892 47.5526 70.9092 50.3755L58.9582 65.1424C58.1222 66.1794 58.2932 67.7156 59.3572 68.5413L60.1172 69.1174C62.9672 71.2873 66.9382 71.1529 69.6362 68.8101L77.1792 62.2812C77.9012 61.6475 78.8132 61.3211 79.7632 61.3211C81.2072 61.3211 82.5182 62.1084 83.2402 63.3757L99.2002 92.0455H106.8" fill="white"/>
<path d="M106.8 57.4421L92.3412 47.6871C90.6312 46.5349 88.5982 45.9204 86.5462 45.9204H80.2002C76.5902 45.9204 73.1892 47.5526 70.9092 50.3755L58.9582 65.1424C58.1222 66.1794 58.2932 67.7156 59.3572 68.5413L60.1172 69.1174C62.9672 71.2873 66.9382 71.1529 69.6362 68.8101L77.1792 62.2812C77.9012 61.6475 78.8132 61.3211 79.7632 61.3211C81.2072 61.3211 82.5182 62.1084 83.2402 63.3758L99.2002 92.0455H106.8" stroke="#74B31B" stroke-width="3" stroke-linecap="round" stroke-linejoin="round"/>
<path fill-rule="evenodd" clip-rule="evenodd" d="M110.6 95.8477H122.76C124.584 95.8477 126.18 94.5227 126.503 92.7177C129.277 77.1442 129.619 63.7214 129.6 57.4229C129.6 55.3106 127.89 53.6016 125.8 53.6016H110.6C108.51 53.6016 106.8 55.3298 106.8 57.4421V92.0072C106.8 94.1195 108.51 95.8477 110.6 95.8477Z" stroke="#74B31B" stroke-width="3" stroke-linecap="round" stroke-linejoin="round"/>
</g>
</g>
<defs>
<clipPath id="clip0_2521_4850">
<rect width="153" height="145" fill="white" transform="translate(0.5)"/>
</clipPath>
<clipPath id="clip1_2521_4850">
<rect width="114" height="66" fill="white" transform="translate(17.5 44)"/>
</clipPath>
</defs>
</svg>
