<svg xmlns="http://www.w3.org/2000/svg" width="51.713" height="55.108" viewBox="0 0 51.713 55.108">
  <g id="tutorials" transform="translate(-187.611 -160.611)">
    <g id="Group_166" data-name="Group 166" transform="translate(188 161)">
      <path id="Path_355" data-name="Path 355" d="M235.54,167.791v44.144H194.791a3.4,3.4,0,1,1,0-6.791h37.353V161H194.791A6.791,6.791,0,0,0,188,167.791V208.54a6.792,6.792,0,0,0,6.791,6.791h44.144v-47.54Z" transform="translate(-188 -161)" fill="none" stroke="#03a1b5" stroke-miterlimit="10" stroke-width="0.777"/>
    </g>
    <circle id="Ellipse_28" data-name="Ellipse 28" cx="16.485" cy="16.485" r="16.485" transform="translate(194.44 167.27)" fill="none" stroke="#03a1b5" stroke-miterlimit="10" stroke-width="1"/>
    <g id="Group_168" data-name="Group 168" transform="translate(202.335 174.512)">
      <path id="Path_356" data-name="Path 356" d="M218.5,184.858a5.453,5.453,0,0,0-1.7,10.634v3.344h.682v1.023h2.046v-1.023h.682v-3.344a5.453,5.453,0,0,0-1.7-10.634Z" transform="translate(-209.973 -181.79)" fill="#ffe07d"/>
      <g id="Group_167" data-name="Group 167" transform="translate(0 0)">
        <path id="Path_357" data-name="Path 357" d="M220.74,180.443a.341.341,0,0,0-.341.341v1.364a.341.341,0,1,0,.682,0v-1.364A.34.34,0,0,0,220.74,180.443Z" transform="translate(-212.217 -180.443)" fill="#efce4a"/>
        <path id="Path_358" data-name="Path 358" d="M231.915,192.216h-1.364a.341.341,0,0,0,0,.682h1.364a.341.341,0,1,0,0-.682Z" transform="translate(-215.21 -184.034)" fill="#efce4a"/>
        <path id="Path_359" data-name="Path 359" d="M210.331,192.216h-1.364a.341.341,0,0,0,0,.682h1.364a.341.341,0,0,0,0-.682Z" transform="translate(-208.626 -184.034)" fill="#efce4a"/>
        <path id="Path_360" data-name="Path 360" d="M228.4,183.991l-.964.964a.341.341,0,1,0,.482.482l.964-.964a.341.341,0,0,0-.482-.482Z" transform="translate(-214.333 -181.495)" fill="#efce4a"/>
        <path id="Path_361" data-name="Path 361" d="M212.656,183.991a.341.341,0,1,0-.482.482l.964.964a.341.341,0,0,0,.482-.482Z" transform="translate(-209.678 -181.495)" fill="#efce4a"/>
      </g>
      <path id="Path_362" data-name="Path 362" d="M215.344,191.252a.34.34,0,0,1-.341-.341,4.1,4.1,0,0,1,4.091-4.091.341.341,0,0,1,0,.682,3.414,3.414,0,0,0-3.41,3.41A.34.34,0,0,1,215.344,191.252Z" transform="translate(-210.571 -182.388)" fill="#fff4c5"/>
      <path id="Path_363" data-name="Path 363" d="M218.437,201.537v2.387h.682v1.023h2.046v-1.023h.682v-2.387Z" transform="translate(-211.619 -186.877)" fill="#03a1b5"/>
    </g>
  </g>
</svg>
