<svg width="679" height="668" viewBox="0 0 679 668" fill="none" xmlns="http://www.w3.org/2000/svg">
<path opacity="0.2" d="M262.268 543.141C486.482 622.322 580.687 460.362 599.763 369.485C681.31 76.3597 220.415 116.868 124.718 212.639C58.6831 278.726 -17.9991 444.164 262.268 543.141Z" fill="#53BAD1"/>
<path opacity="0.07" d="M172.03 481.361C331.573 657.678 491.487 560.04 551.501 489.182C762.684 270.152 338.019 86.5091 208.282 125.219C118.758 151.931 -27.398 260.965 172.03 481.361Z" fill="#53BAD1"/>
<g clip-path="url(#clip0_2149_4795)">
<circle cx="341" cy="351" r="195" fill="white"/>
<path d="M169.43 350.995C169.43 418.907 208.898 477.597 266.129 505.409L184.284 281.17C174.764 302.508 169.43 326.121 169.43 350.995Z" fill="#21759B"/>
<path d="M456.834 342.337C456.834 321.133 449.217 306.448 442.685 295.018C433.987 280.886 425.835 268.917 425.835 254.784C425.835 239.013 437.797 224.331 454.647 224.331C455.408 224.331 456.129 224.426 456.87 224.468C426.344 196.503 385.675 179.429 341.007 179.429C281.065 179.429 228.329 210.182 197.65 256.763C201.676 256.884 205.47 256.968 208.692 256.968C226.638 256.968 254.418 254.791 254.418 254.791C263.667 254.246 264.758 267.83 255.518 268.924C255.518 268.924 246.224 270.017 235.881 270.559L298.362 456.402L335.91 343.793L309.178 270.553C299.939 270.011 291.186 268.917 291.186 268.917C281.94 268.375 283.024 254.239 292.27 254.784C292.27 254.784 320.605 256.962 337.464 256.962C355.407 256.962 383.191 254.784 383.191 254.784C392.446 254.239 393.534 267.824 384.291 268.917C384.291 268.917 374.977 270.011 364.653 270.553L426.658 454.988L443.772 397.801C451.189 374.07 456.834 357.025 456.834 342.337Z" fill="#21759B"/>
<path d="M344.016 366.003L292.537 515.588C307.908 520.106 324.163 522.578 341.006 522.578C360.986 522.578 380.147 519.124 397.983 512.852C397.522 512.118 397.105 511.337 396.762 510.488L344.016 366.003Z" fill="#21759B"/>
<path d="M491.558 268.679C492.295 274.144 492.713 280.011 492.713 286.322C492.713 303.732 489.462 323.304 479.667 347.776L427.258 499.3C478.267 469.556 512.576 414.294 512.576 350.998C512.579 321.169 504.959 293.119 491.558 268.679Z" fill="#21759B"/>
<path d="M341.007 151C230.726 151 141 240.717 141 350.995C141 461.286 230.726 551 341.007 551C451.284 551 541.023 461.286 541.023 350.995C541.02 240.717 451.284 151 341.007 151ZM341.007 541.833C235.783 541.833 150.171 456.223 150.171 350.995C150.171 245.774 235.78 160.171 341.007 160.171C446.227 160.171 531.833 245.774 531.833 350.995C531.833 456.223 446.227 541.833 341.007 541.833Z" fill="#21759B"/>
</g>
<defs>
<clipPath id="clip0_2149_4795">
<rect width="400" height="400" fill="white" transform="translate(141 151)"/>
</clipPath>
</defs>
</svg>
