<svg xmlns="http://www.w3.org/2000/svg" width="57.777" height="57.777" viewBox="0 0 57.777 57.777">
  <g id="api" transform="translate(-38.355 0.645)">
    <path id="Subtraction_1" data-name="Subtraction 1" d="M31.031,56.488H25.458l-.933-5.826a22.332,22.332,0,0,1-9.489-3.947l-4.792,3.471L6.3,46.245l3.48-4.806a22.726,22.726,0,0,1-3.894-9.466L0,31.03V25.458l5.921-.946A22.649,22.649,0,0,1,9.842,15.13L6.3,10.243l3.94-3.94,4.9,3.548A22.41,22.41,0,0,1,24.5,5.988L25.458,0h5.573l.956,5.988a22.421,22.421,0,0,1,9.358,3.863l4.9-3.549,3.939,3.941L46.648,15.13a22.7,22.7,0,0,1,3.919,9.382l5.921.946V31.03l-5.894.943a22.658,22.658,0,0,1-3.89,9.466l3.48,4.806-3.939,3.94-4.792-3.471a22.658,22.658,0,0,1-9.493,3.947l-.93,5.825ZM28.243,13.64A14.679,14.679,0,1,0,42.924,28.317,14.694,14.694,0,0,0,28.243,13.64Z" transform="translate(39 -0.001)" fill="#fff" stroke="#03a1b5" stroke-miterlimit="10" stroke-width="1.289"/>
    <text id="API-2" data-name="API" transform="translate(66.828 33.52)" fill="#03a1b5" font-size="13" font-family="OpenSans-Regular, Open Sans"><tspan x="-9.839" y="0">API</tspan></text>
  </g>
</svg>
