<svg
  width="31"
  height="24"
  viewBox="0 0 31 24"
  fill="none"
  xmlns="http://www.w3.org/2000/svg"
>
<path
    d="M13.2014 22.665C13.3806 22.4809 13.4702 22.2047 13.4702 21.8824C13.4702 21.6062 13.3358 21.33 13.1566 21.0999L6.13773 13.929H29.031C29.2998 13.929 29.5686 13.8369 29.7926 13.6068C29.9719 13.4226 30.1063 13.1464 30.1063 12.8242V11.3511C30.1063 11.0749 29.9719 10.7987 29.7926 10.5685C29.5686 10.3844 29.2998 10.2463 29.031 10.2463H6.13773L13.1566 2.90014C13.3358 2.71601 13.4702 2.4398 13.4702 2.11757C13.4702 1.84136 13.3806 1.56516 13.2014 1.33499L12.1709 0.322238C11.9469 0.138102 11.6781 0 11.4093 0C11.0957 0 10.8269 0.138102 10.6477 0.322238L0.313607 11.3051C0.0896019 11.5352 0 11.8114 0 12.0877C0 12.4099 0.0896019 12.6861 0.313607 12.8702L10.6477 23.6778C10.8269 23.9079 11.0957 24 11.4093 24C11.6781 24 11.9469 23.9079 12.1709 23.6778L13.2014 22.665Z"
    fill="#C4C4C4"
  />
</svg>
