<svg
  width="31"
  height="24"
  viewBox="0 0 31 24"
  fill="none"
  xmlns="http://www.w3.org/2000/svg"
>
<path
    d="M17.7986 22.665C17.6194 22.4809 17.5298 22.2047 17.5298 21.8824C17.5298 21.6062 17.6642 21.33 17.8434 21.0999L24.8623 13.929H1.96897C1.70016 13.929 1.43136 13.8369 1.20735 13.6068C1.02815 13.4226 0.893747 13.1464 0.893747 12.8242V11.3511C0.893747 11.0749 1.02815 10.7987 1.20735 10.5685C1.43136 10.3844 1.70016 10.2463 1.96897 10.2463H24.8623L17.8434 2.90014C17.6642 2.71601 17.5298 2.4398 17.5298 2.11757C17.5298 1.84136 17.6194 1.56516 17.7986 1.33499L18.8291 0.322238C19.0531 0.138102 19.3219 0 19.5907 0C19.9043 0 20.1731 0.138102 20.3523 0.322238L30.6864 11.3051C30.9104 11.5352 31 11.8114 31 12.0877C31 12.4099 30.9104 12.6861 30.6864 12.8702L20.3523 23.6778C20.1731 23.9079 19.9043 24 19.5907 24C19.3219 24 19.0531 23.9079 18.8291 23.6778L17.7986 22.665Z"
    fill="#C4C4C4"
  />
</svg>
