<svg width="151" height="150" viewBox="0 0 151 150" fill="none" xmlns="http://www.w3.org/2000/svg">
<path opacity="0.15" d="M60.2669 116.388C107.233 132.974 126.966 99.0479 130.962 80.0117C148.044 18.6104 51.4999 27.0957 31.4541 47.157C17.6217 61.0002 1.55894 95.6549 60.2669 116.388Z" fill="#25AECD"/>
<path opacity="0.1" d="M35.154 105.561C68.3187 148.078 106.101 128.642 120.846 113.61C172.232 67.5682 79.2284 19.0077 49.2463 25.6155C28.5574 30.1752 -6.30194 52.4159 35.154 105.561Z" fill="#25AECD"/>
<mask id="mask0_2652_5195" style="mask-type:alpha" maskUnits="userSpaceOnUse" x="18" y="32" width="115" height="89">
<path d="M60.2669 116.388C107.233 132.974 126.966 99.0479 130.962 80.0117C148.044 18.6104 51.4999 27.0957 31.4541 47.157C17.6217 61.0002 1.55894 95.6549 60.2669 116.388Z" fill="black"/>
</mask>
<g mask="url(#mask0_2652_5195)">
<path d="M71.5 104.5L51.5 84.5L76.5 74.5L101 85C95.3333 90.3333 83.3 101.7 80.5 104.5C77.7 107.3 73.3333 105.667 71.5 104.5Z" fill="white"/>
<path d="M50.92 71.3281L43.7788 78.1657C43.2904 78.6409 43 79.3141 43 80.0401V119.64C43 121.092 44.188 122.28 45.64 122.28H106.36C107.812 122.28 109 121.092 109 119.64V80.0401C109 79.3009 108.696 78.6409 108.208 78.1657L101.08 71.3281" stroke="#25AECD" stroke-width="2.47" stroke-linecap="round" stroke-linejoin="round"/>
<path d="M101.08 85.0298V56.2802L90.5199 45.7202H50.9199V85.0298" fill="white"/>
<path d="M101.08 85.0298V56.2802L90.5199 45.7202H50.9199V85.0298" stroke="#25AECD" stroke-width="2.47" stroke-linecap="round" stroke-linejoin="round"/>
<path d="M108.221 78.1787L81.478 103.813C78.4156 106.757 73.5712 106.757 70.5088 103.813L43.7788 78.1787" stroke="#25AECD" stroke-width="2.47" stroke-linecap="round" stroke-linejoin="round"/>
<path d="M108.221 121.502L85.6357 99.8403" stroke="#25AECD" stroke-width="2.47" stroke-linecap="round" stroke-linejoin="round"/>
<path d="M66.364 99.8403L43.7788 121.502" stroke="#25AECD" stroke-width="2.47" stroke-linecap="round" stroke-linejoin="round"/>
<path d="M76.0002 87.9603C84.7483 87.9603 91.8402 80.8685 91.8402 72.1203C91.8402 63.3721 84.7483 56.2803 76.0002 56.2803C67.252 56.2803 60.1602 63.3721 60.1602 72.1203C60.1602 80.8685 67.252 87.9603 76.0002 87.9603Z" stroke="#74B31B" stroke-width="2.47" stroke-linecap="round" stroke-linejoin="round"/>
<path d="M69.3999 73.4402L74.2443 78.0602L82.5999 66.1802" stroke="#74B31B" stroke-width="2.47" stroke-linecap="round" stroke-linejoin="round"/>
<path d="M90.52 45.7202V56.2802H101.08" stroke="#25AECD" stroke-width="2.47" stroke-linecap="round" stroke-linejoin="round"/>
</g>
</svg>
