<svg width="151" height="150" viewBox="0 0 151 150" fill="none" xmlns="http://www.w3.org/2000/svg">
<path opacity="0.15" d="M60.2669 116.388C107.233 132.974 126.966 99.0479 130.962 80.0117C148.044 18.6104 51.4999 27.0957 31.4541 47.157C17.6217 61.0002 1.55894 95.6549 60.2669 116.388Z" fill="#25AECD"/>
<path opacity="0.1" d="M35.154 105.561C68.3187 148.078 106.101 128.642 120.846 113.61C172.232 67.5682 79.2284 19.0077 49.2463 25.6155C28.5574 30.1752 -6.30194 52.4159 35.154 105.561Z" fill="#25AECD"/>
<mask id="mask0_2652_4973" style="mask-type:alpha" maskUnits="userSpaceOnUse" x="18" y="32" width="115" height="89">
<path d="M60.2669 116.388C107.233 132.974 126.966 99.0479 130.962 80.0117C148.044 18.6104 51.4999 27.0957 31.4541 47.157C17.6217 61.0002 1.55894 95.6549 60.2669 116.388Z" fill="black"/>
</mask>
<g mask="url(#mask0_2652_4973)">
<path d="M94.4534 101.515H115.697V72.3851C115.697 66.5327 110.944 61.7925 105.075 61.7925C99.2066 61.7925 94.4534 66.5327 94.4534 72.3851V101.515Z" stroke="#25AECD" stroke-width="2.47" stroke-linecap="round" stroke-linejoin="round"/>
<path d="M73.2095 101.515H81.1758V122.7H73.2095V101.515Z" stroke="#25AECD" stroke-width="2.47" stroke-linecap="round" stroke-linejoin="round"/>
<path d="M107.73 67.0888C107.73 68.5453 106.536 69.7369 105.075 69.7369C103.615 69.7369 102.42 68.5453 102.42 67.0888V62.1367C103.269 61.9249 104.159 61.7925 105.075 61.7925C105.991 61.7925 106.881 61.9249 107.73 62.1367V67.0888Z" fill="white" stroke="#25AECD" stroke-width="2.47" stroke-linecap="round" stroke-linejoin="round"/>
<path d="M102.42 93.5698H107.73" stroke="#25AECD" stroke-width="2.47" stroke-linecap="round" stroke-linejoin="round"/>
<path d="M105.075 61.7925C99.2062 61.7925 94.453 66.5327 94.453 72.3851V101.515H43.9999V72.3851C43.9999 66.5327 48.7531 61.7925 54.6216 61.7925H105.075Z" fill="white" stroke="#25AECD" stroke-width="2.47" stroke-linecap="round" stroke-linejoin="round"/>
<path d="M81.1758 72.3849V51.1997" stroke="#25AECD" stroke-width="2.47" stroke-linecap="round" stroke-linejoin="round"/>
<path d="M70.5541 45.9033H81.1758V51.1996H70.5541V45.9033Z" fill="white" stroke="#9036AA" stroke-width="2.47" stroke-linecap="round" stroke-linejoin="round"/>
</g>
</svg>
