<svg viewBox="0 0 299.3 80" xmlns="http://www.w3.org/2000/svg"><g fill="#fff"><path d="m110.73 15.13h17.43c15.77 0 26.06 9.36 26.06 25.49s-10.29 25.63-26.06 25.63h-17.43zm16.92 43.13c10.37 0 17-6.12 17-17.64s-6.77-17.5-17-17.5h-7.65v35.14zm36.29-43.13h9.29v51.12h-9.29zm22.25 0h29.37v8h-20.09v14.46h16.93v8h-16.93v20.66h-9.28zm38.08 0h29.38v8h-20.09v14.46h16.92v8h-16.92v20.66h-9.29zm48.73 29.73-17-29.73h10.52l8 15c1.66 3.17 3 6.92 3.1 6.85h.14s1.44-3.68 3.1-6.85l7.92-15h10.52l-17 29.73v21.39h-9.3zm-238 9.14-14-14 14-14"/><path d="m76.86 24.43c-.51-1.2-1.07-2.36-1.69-3.5a40.13 40.13 0 0 0 -12.81-14.1c-.53-.36-1.07-.7-1.62-1-1.1-.67-2.23-1.28-3.4-1.85a40 40 0 1 0 0 72.12c1.17-.57 2.3-1.18 3.4-1.85.55-.34 1.09-.68 1.62-1a40.13 40.13 0 0 0 12.81-14.1c.62-1.14 1.18-2.3 1.69-3.5a40.17 40.17 0 0 0 0-31.14zm-30.86.57 15 15-15 15zm-38 15a32 32 0 0 1 32-32v64a32 32 0 0 1 -32-32z"/></g></svg>