<svg xmlns="http://www.w3.org/2000/svg" xmlns:xlink="http://www.w3.org/1999/xlink" width="97" height="97" viewBox="0 0 97 97">
  <defs>
    <clipPath id="clip-path">
      <rect width="97" height="97" fill="none"/>
    </clipPath>
  </defs>
  <g id="Repeat_Grid_5" data-name="Repeat Grid 5" clip-path="url(#clip-path)">
    <g transform="translate(-1058 -2523)">
      <circle id="Ellipse_1" data-name="Ellipse 1" cx="2" cy="2" r="2" transform="translate(1058 2523)" fill="rgba(0,188,212,0.5)"/>
    </g>
    <g transform="translate(-1051 -2523)">
      <circle id="Ellipse_1-2" data-name="Ellipse 1" cx="2" cy="2" r="2" transform="translate(1058 2523)" fill="rgba(0,188,212,0.5)"/>
    </g>
    <g transform="translate(-1044 -2523)">
      <circle id="Ellipse_1-3" data-name="Ellipse 1" cx="2" cy="2" r="2" transform="translate(1058 2523)" fill="rgba(0,188,212,0.5)"/>
    </g>
    <g transform="translate(-1037 -2523)">
      <circle id="Ellipse_1-4" data-name="Ellipse 1" cx="2" cy="2" r="2" transform="translate(1058 2523)" fill="rgba(0,188,212,0.5)"/>
    </g>
    <g transform="translate(-1030 -2523)">
      <circle id="Ellipse_1-5" data-name="Ellipse 1" cx="2" cy="2" r="2" transform="translate(1058 2523)" fill="rgba(0,188,212,0.5)"/>
    </g>
    <g transform="translate(-1023 -2523)">
      <circle id="Ellipse_1-6" data-name="Ellipse 1" cx="2" cy="2" r="2" transform="translate(1058 2523)" fill="rgba(0,188,212,0.5)"/>
    </g>
    <g transform="translate(-1016 -2523)">
      <circle id="Ellipse_1-7" data-name="Ellipse 1" cx="2" cy="2" r="2" transform="translate(1058 2523)" fill="rgba(0,188,212,0.5)"/>
    </g>
    <g transform="translate(-1009 -2523)">
      <circle id="Ellipse_1-8" data-name="Ellipse 1" cx="2" cy="2" r="2" transform="translate(1058 2523)" fill="rgba(0,188,212,0.5)"/>
    </g>
    <g transform="translate(-1002 -2523)">
      <circle id="Ellipse_1-9" data-name="Ellipse 1" cx="2" cy="2" r="2" transform="translate(1058 2523)" fill="rgba(0,188,212,0.5)"/>
    </g>
    <g transform="translate(-995 -2523)">
      <circle id="Ellipse_1-10" data-name="Ellipse 1" cx="2" cy="2" r="2" transform="translate(1058 2523)" fill="rgba(0,188,212,0.5)"/>
    </g>
    <g transform="translate(-988 -2523)">
      <circle id="Ellipse_1-11" data-name="Ellipse 1" cx="2" cy="2" r="2" transform="translate(1058 2523)" fill="rgba(0,188,212,0.5)"/>
    </g>
    <g transform="translate(-981 -2523)">
      <circle id="Ellipse_1-12" data-name="Ellipse 1" cx="2" cy="2" r="2" transform="translate(1058 2523)" fill="rgba(0,188,212,0.5)"/>
    </g>
    <g transform="translate(-974 -2523)">
      <circle id="Ellipse_1-13" data-name="Ellipse 1" cx="2" cy="2" r="2" transform="translate(1058 2523)" fill="rgba(0,188,212,0.5)"/>
    </g>
    <g transform="translate(-967 -2523)">
      <circle id="Ellipse_1-14" data-name="Ellipse 1" cx="2" cy="2" r="2" transform="translate(1058 2523)" fill="rgba(0,188,212,0.5)"/>
    </g>
    <g transform="translate(-1058 -2516)">
      <circle id="Ellipse_1-15" data-name="Ellipse 1" cx="2" cy="2" r="2" transform="translate(1058 2523)" fill="rgba(0,188,212,0.5)"/>
    </g>
    <g transform="translate(-1051 -2516)">
      <circle id="Ellipse_1-16" data-name="Ellipse 1" cx="2" cy="2" r="2" transform="translate(1058 2523)" fill="rgba(0,188,212,0.5)"/>
    </g>
    <g transform="translate(-1044 -2516)">
      <circle id="Ellipse_1-17" data-name="Ellipse 1" cx="2" cy="2" r="2" transform="translate(1058 2523)" fill="rgba(0,188,212,0.5)"/>
    </g>
    <g transform="translate(-1037 -2516)">
      <circle id="Ellipse_1-18" data-name="Ellipse 1" cx="2" cy="2" r="2" transform="translate(1058 2523)" fill="rgba(0,188,212,0.5)"/>
    </g>
    <g transform="translate(-1030 -2516)">
      <circle id="Ellipse_1-19" data-name="Ellipse 1" cx="2" cy="2" r="2" transform="translate(1058 2523)" fill="rgba(0,188,212,0.5)"/>
    </g>
    <g transform="translate(-1023 -2516)">
      <circle id="Ellipse_1-20" data-name="Ellipse 1" cx="2" cy="2" r="2" transform="translate(1058 2523)" fill="rgba(0,188,212,0.5)"/>
    </g>
    <g transform="translate(-1016 -2516)">
      <circle id="Ellipse_1-21" data-name="Ellipse 1" cx="2" cy="2" r="2" transform="translate(1058 2523)" fill="rgba(0,188,212,0.5)"/>
    </g>
    <g transform="translate(-1009 -2516)">
      <circle id="Ellipse_1-22" data-name="Ellipse 1" cx="2" cy="2" r="2" transform="translate(1058 2523)" fill="rgba(0,188,212,0.5)"/>
    </g>
    <g transform="translate(-1002 -2516)">
      <circle id="Ellipse_1-23" data-name="Ellipse 1" cx="2" cy="2" r="2" transform="translate(1058 2523)" fill="rgba(0,188,212,0.5)"/>
    </g>
    <g transform="translate(-995 -2516)">
      <circle id="Ellipse_1-24" data-name="Ellipse 1" cx="2" cy="2" r="2" transform="translate(1058 2523)" fill="rgba(0,188,212,0.5)"/>
    </g>
    <g transform="translate(-988 -2516)">
      <circle id="Ellipse_1-25" data-name="Ellipse 1" cx="2" cy="2" r="2" transform="translate(1058 2523)" fill="rgba(0,188,212,0.5)"/>
    </g>
    <g transform="translate(-981 -2516)">
      <circle id="Ellipse_1-26" data-name="Ellipse 1" cx="2" cy="2" r="2" transform="translate(1058 2523)" fill="rgba(0,188,212,0.5)"/>
    </g>
    <g transform="translate(-974 -2516)">
      <circle id="Ellipse_1-27" data-name="Ellipse 1" cx="2" cy="2" r="2" transform="translate(1058 2523)" fill="rgba(0,188,212,0.5)"/>
    </g>
    <g transform="translate(-967 -2516)">
      <circle id="Ellipse_1-28" data-name="Ellipse 1" cx="2" cy="2" r="2" transform="translate(1058 2523)" fill="rgba(0,188,212,0.5)"/>
    </g>
    <g transform="translate(-1058 -2509)">
      <circle id="Ellipse_1-29" data-name="Ellipse 1" cx="2" cy="2" r="2" transform="translate(1058 2523)" fill="rgba(0,188,212,0.5)"/>
    </g>
    <g transform="translate(-1051 -2509)">
      <circle id="Ellipse_1-30" data-name="Ellipse 1" cx="2" cy="2" r="2" transform="translate(1058 2523)" fill="rgba(0,188,212,0.5)"/>
    </g>
    <g transform="translate(-1044 -2509)">
      <circle id="Ellipse_1-31" data-name="Ellipse 1" cx="2" cy="2" r="2" transform="translate(1058 2523)" fill="rgba(0,188,212,0.5)"/>
    </g>
    <g transform="translate(-1037 -2509)">
      <circle id="Ellipse_1-32" data-name="Ellipse 1" cx="2" cy="2" r="2" transform="translate(1058 2523)" fill="rgba(0,188,212,0.5)"/>
    </g>
    <g transform="translate(-1030 -2509)">
      <circle id="Ellipse_1-33" data-name="Ellipse 1" cx="2" cy="2" r="2" transform="translate(1058 2523)" fill="rgba(0,188,212,0.5)"/>
    </g>
    <g transform="translate(-1023 -2509)">
      <circle id="Ellipse_1-34" data-name="Ellipse 1" cx="2" cy="2" r="2" transform="translate(1058 2523)" fill="rgba(0,188,212,0.5)"/>
    </g>
    <g transform="translate(-1016 -2509)">
      <circle id="Ellipse_1-35" data-name="Ellipse 1" cx="2" cy="2" r="2" transform="translate(1058 2523)" fill="rgba(0,188,212,0.5)"/>
    </g>
    <g transform="translate(-1009 -2509)">
      <circle id="Ellipse_1-36" data-name="Ellipse 1" cx="2" cy="2" r="2" transform="translate(1058 2523)" fill="rgba(0,188,212,0.5)"/>
    </g>
    <g transform="translate(-1002 -2509)">
      <circle id="Ellipse_1-37" data-name="Ellipse 1" cx="2" cy="2" r="2" transform="translate(1058 2523)" fill="rgba(0,188,212,0.5)"/>
    </g>
    <g transform="translate(-995 -2509)">
      <circle id="Ellipse_1-38" data-name="Ellipse 1" cx="2" cy="2" r="2" transform="translate(1058 2523)" fill="rgba(0,188,212,0.5)"/>
    </g>
    <g transform="translate(-988 -2509)">
      <circle id="Ellipse_1-39" data-name="Ellipse 1" cx="2" cy="2" r="2" transform="translate(1058 2523)" fill="rgba(0,188,212,0.5)"/>
    </g>
    <g transform="translate(-981 -2509)">
      <circle id="Ellipse_1-40" data-name="Ellipse 1" cx="2" cy="2" r="2" transform="translate(1058 2523)" fill="rgba(0,188,212,0.5)"/>
    </g>
    <g transform="translate(-974 -2509)">
      <circle id="Ellipse_1-41" data-name="Ellipse 1" cx="2" cy="2" r="2" transform="translate(1058 2523)" fill="rgba(0,188,212,0.5)"/>
    </g>
    <g transform="translate(-967 -2509)">
      <circle id="Ellipse_1-42" data-name="Ellipse 1" cx="2" cy="2" r="2" transform="translate(1058 2523)" fill="rgba(0,188,212,0.5)"/>
    </g>
    <g transform="translate(-1058 -2502)">
      <circle id="Ellipse_1-43" data-name="Ellipse 1" cx="2" cy="2" r="2" transform="translate(1058 2523)" fill="rgba(0,188,212,0.5)"/>
    </g>
    <g transform="translate(-1051 -2502)">
      <circle id="Ellipse_1-44" data-name="Ellipse 1" cx="2" cy="2" r="2" transform="translate(1058 2523)" fill="rgba(0,188,212,0.5)"/>
    </g>
    <g transform="translate(-1044 -2502)">
      <circle id="Ellipse_1-45" data-name="Ellipse 1" cx="2" cy="2" r="2" transform="translate(1058 2523)" fill="rgba(0,188,212,0.5)"/>
    </g>
    <g transform="translate(-1037 -2502)">
      <circle id="Ellipse_1-46" data-name="Ellipse 1" cx="2" cy="2" r="2" transform="translate(1058 2523)" fill="rgba(0,188,212,0.5)"/>
    </g>
    <g transform="translate(-1030 -2502)">
      <circle id="Ellipse_1-47" data-name="Ellipse 1" cx="2" cy="2" r="2" transform="translate(1058 2523)" fill="rgba(0,188,212,0.5)"/>
    </g>
    <g transform="translate(-1023 -2502)">
      <circle id="Ellipse_1-48" data-name="Ellipse 1" cx="2" cy="2" r="2" transform="translate(1058 2523)" fill="rgba(0,188,212,0.5)"/>
    </g>
    <g transform="translate(-1016 -2502)">
      <circle id="Ellipse_1-49" data-name="Ellipse 1" cx="2" cy="2" r="2" transform="translate(1058 2523)" fill="rgba(0,188,212,0.5)"/>
    </g>
    <g transform="translate(-1009 -2502)">
      <circle id="Ellipse_1-50" data-name="Ellipse 1" cx="2" cy="2" r="2" transform="translate(1058 2523)" fill="rgba(0,188,212,0.5)"/>
    </g>
    <g transform="translate(-1002 -2502)">
      <circle id="Ellipse_1-51" data-name="Ellipse 1" cx="2" cy="2" r="2" transform="translate(1058 2523)" fill="rgba(0,188,212,0.5)"/>
    </g>
    <g transform="translate(-995 -2502)">
      <circle id="Ellipse_1-52" data-name="Ellipse 1" cx="2" cy="2" r="2" transform="translate(1058 2523)" fill="rgba(0,188,212,0.5)"/>
    </g>
    <g transform="translate(-988 -2502)">
      <circle id="Ellipse_1-53" data-name="Ellipse 1" cx="2" cy="2" r="2" transform="translate(1058 2523)" fill="rgba(0,188,212,0.5)"/>
    </g>
    <g transform="translate(-981 -2502)">
      <circle id="Ellipse_1-54" data-name="Ellipse 1" cx="2" cy="2" r="2" transform="translate(1058 2523)" fill="rgba(0,188,212,0.5)"/>
    </g>
    <g transform="translate(-974 -2502)">
      <circle id="Ellipse_1-55" data-name="Ellipse 1" cx="2" cy="2" r="2" transform="translate(1058 2523)" fill="rgba(0,188,212,0.5)"/>
    </g>
    <g transform="translate(-967 -2502)">
      <circle id="Ellipse_1-56" data-name="Ellipse 1" cx="2" cy="2" r="2" transform="translate(1058 2523)" fill="rgba(0,188,212,0.5)"/>
    </g>
    <g transform="translate(-1058 -2495)">
      <circle id="Ellipse_1-57" data-name="Ellipse 1" cx="2" cy="2" r="2" transform="translate(1058 2523)" fill="rgba(0,188,212,0.5)"/>
    </g>
    <g transform="translate(-1051 -2495)">
      <circle id="Ellipse_1-58" data-name="Ellipse 1" cx="2" cy="2" r="2" transform="translate(1058 2523)" fill="rgba(0,188,212,0.5)"/>
    </g>
    <g transform="translate(-1044 -2495)">
      <circle id="Ellipse_1-59" data-name="Ellipse 1" cx="2" cy="2" r="2" transform="translate(1058 2523)" fill="rgba(0,188,212,0.5)"/>
    </g>
    <g transform="translate(-1037 -2495)">
      <circle id="Ellipse_1-60" data-name="Ellipse 1" cx="2" cy="2" r="2" transform="translate(1058 2523)" fill="rgba(0,188,212,0.5)"/>
    </g>
    <g transform="translate(-1030 -2495)">
      <circle id="Ellipse_1-61" data-name="Ellipse 1" cx="2" cy="2" r="2" transform="translate(1058 2523)" fill="rgba(0,188,212,0.5)"/>
    </g>
    <g transform="translate(-1023 -2495)">
      <circle id="Ellipse_1-62" data-name="Ellipse 1" cx="2" cy="2" r="2" transform="translate(1058 2523)" fill="rgba(0,188,212,0.5)"/>
    </g>
    <g transform="translate(-1016 -2495)">
      <circle id="Ellipse_1-63" data-name="Ellipse 1" cx="2" cy="2" r="2" transform="translate(1058 2523)" fill="rgba(0,188,212,0.5)"/>
    </g>
    <g transform="translate(-1009 -2495)">
      <circle id="Ellipse_1-64" data-name="Ellipse 1" cx="2" cy="2" r="2" transform="translate(1058 2523)" fill="rgba(0,188,212,0.5)"/>
    </g>
    <g transform="translate(-1002 -2495)">
      <circle id="Ellipse_1-65" data-name="Ellipse 1" cx="2" cy="2" r="2" transform="translate(1058 2523)" fill="rgba(0,188,212,0.5)"/>
    </g>
    <g transform="translate(-995 -2495)">
      <circle id="Ellipse_1-66" data-name="Ellipse 1" cx="2" cy="2" r="2" transform="translate(1058 2523)" fill="rgba(0,188,212,0.5)"/>
    </g>
    <g transform="translate(-988 -2495)">
      <circle id="Ellipse_1-67" data-name="Ellipse 1" cx="2" cy="2" r="2" transform="translate(1058 2523)" fill="rgba(0,188,212,0.5)"/>
    </g>
    <g transform="translate(-981 -2495)">
      <circle id="Ellipse_1-68" data-name="Ellipse 1" cx="2" cy="2" r="2" transform="translate(1058 2523)" fill="rgba(0,188,212,0.5)"/>
    </g>
    <g transform="translate(-974 -2495)">
      <circle id="Ellipse_1-69" data-name="Ellipse 1" cx="2" cy="2" r="2" transform="translate(1058 2523)" fill="rgba(0,188,212,0.5)"/>
    </g>
    <g transform="translate(-967 -2495)">
      <circle id="Ellipse_1-70" data-name="Ellipse 1" cx="2" cy="2" r="2" transform="translate(1058 2523)" fill="rgba(0,188,212,0.5)"/>
    </g>
    <g transform="translate(-1058 -2488)">
      <circle id="Ellipse_1-71" data-name="Ellipse 1" cx="2" cy="2" r="2" transform="translate(1058 2523)" fill="rgba(0,188,212,0.5)"/>
    </g>
    <g transform="translate(-1051 -2488)">
      <circle id="Ellipse_1-72" data-name="Ellipse 1" cx="2" cy="2" r="2" transform="translate(1058 2523)" fill="rgba(0,188,212,0.5)"/>
    </g>
    <g transform="translate(-1044 -2488)">
      <circle id="Ellipse_1-73" data-name="Ellipse 1" cx="2" cy="2" r="2" transform="translate(1058 2523)" fill="rgba(0,188,212,0.5)"/>
    </g>
    <g transform="translate(-1037 -2488)">
      <circle id="Ellipse_1-74" data-name="Ellipse 1" cx="2" cy="2" r="2" transform="translate(1058 2523)" fill="rgba(0,188,212,0.5)"/>
    </g>
    <g transform="translate(-1030 -2488)">
      <circle id="Ellipse_1-75" data-name="Ellipse 1" cx="2" cy="2" r="2" transform="translate(1058 2523)" fill="rgba(0,188,212,0.5)"/>
    </g>
    <g transform="translate(-1023 -2488)">
      <circle id="Ellipse_1-76" data-name="Ellipse 1" cx="2" cy="2" r="2" transform="translate(1058 2523)" fill="rgba(0,188,212,0.5)"/>
    </g>
    <g transform="translate(-1016 -2488)">
      <circle id="Ellipse_1-77" data-name="Ellipse 1" cx="2" cy="2" r="2" transform="translate(1058 2523)" fill="rgba(0,188,212,0.5)"/>
    </g>
    <g transform="translate(-1009 -2488)">
      <circle id="Ellipse_1-78" data-name="Ellipse 1" cx="2" cy="2" r="2" transform="translate(1058 2523)" fill="rgba(0,188,212,0.5)"/>
    </g>
    <g transform="translate(-1002 -2488)">
      <circle id="Ellipse_1-79" data-name="Ellipse 1" cx="2" cy="2" r="2" transform="translate(1058 2523)" fill="rgba(0,188,212,0.5)"/>
    </g>
    <g transform="translate(-995 -2488)">
      <circle id="Ellipse_1-80" data-name="Ellipse 1" cx="2" cy="2" r="2" transform="translate(1058 2523)" fill="rgba(0,188,212,0.5)"/>
    </g>
    <g transform="translate(-988 -2488)">
      <circle id="Ellipse_1-81" data-name="Ellipse 1" cx="2" cy="2" r="2" transform="translate(1058 2523)" fill="rgba(0,188,212,0.5)"/>
    </g>
    <g transform="translate(-981 -2488)">
      <circle id="Ellipse_1-82" data-name="Ellipse 1" cx="2" cy="2" r="2" transform="translate(1058 2523)" fill="rgba(0,188,212,0.5)"/>
    </g>
    <g transform="translate(-974 -2488)">
      <circle id="Ellipse_1-83" data-name="Ellipse 1" cx="2" cy="2" r="2" transform="translate(1058 2523)" fill="rgba(0,188,212,0.5)"/>
    </g>
    <g transform="translate(-967 -2488)">
      <circle id="Ellipse_1-84" data-name="Ellipse 1" cx="2" cy="2" r="2" transform="translate(1058 2523)" fill="rgba(0,188,212,0.5)"/>
    </g>
    <g transform="translate(-1058 -2481)">
      <circle id="Ellipse_1-85" data-name="Ellipse 1" cx="2" cy="2" r="2" transform="translate(1058 2523)" fill="rgba(0,188,212,0.5)"/>
    </g>
    <g transform="translate(-1051 -2481)">
      <circle id="Ellipse_1-86" data-name="Ellipse 1" cx="2" cy="2" r="2" transform="translate(1058 2523)" fill="rgba(0,188,212,0.5)"/>
    </g>
    <g transform="translate(-1044 -2481)">
      <circle id="Ellipse_1-87" data-name="Ellipse 1" cx="2" cy="2" r="2" transform="translate(1058 2523)" fill="rgba(0,188,212,0.5)"/>
    </g>
    <g transform="translate(-1037 -2481)">
      <circle id="Ellipse_1-88" data-name="Ellipse 1" cx="2" cy="2" r="2" transform="translate(1058 2523)" fill="rgba(0,188,212,0.5)"/>
    </g>
    <g transform="translate(-1030 -2481)">
      <circle id="Ellipse_1-89" data-name="Ellipse 1" cx="2" cy="2" r="2" transform="translate(1058 2523)" fill="rgba(0,188,212,0.5)"/>
    </g>
    <g transform="translate(-1023 -2481)">
      <circle id="Ellipse_1-90" data-name="Ellipse 1" cx="2" cy="2" r="2" transform="translate(1058 2523)" fill="rgba(0,188,212,0.5)"/>
    </g>
    <g transform="translate(-1016 -2481)">
      <circle id="Ellipse_1-91" data-name="Ellipse 1" cx="2" cy="2" r="2" transform="translate(1058 2523)" fill="rgba(0,188,212,0.5)"/>
    </g>
    <g transform="translate(-1009 -2481)">
      <circle id="Ellipse_1-92" data-name="Ellipse 1" cx="2" cy="2" r="2" transform="translate(1058 2523)" fill="rgba(0,188,212,0.5)"/>
    </g>
    <g transform="translate(-1002 -2481)">
      <circle id="Ellipse_1-93" data-name="Ellipse 1" cx="2" cy="2" r="2" transform="translate(1058 2523)" fill="rgba(0,188,212,0.5)"/>
    </g>
    <g transform="translate(-995 -2481)">
      <circle id="Ellipse_1-94" data-name="Ellipse 1" cx="2" cy="2" r="2" transform="translate(1058 2523)" fill="rgba(0,188,212,0.5)"/>
    </g>
    <g transform="translate(-988 -2481)">
      <circle id="Ellipse_1-95" data-name="Ellipse 1" cx="2" cy="2" r="2" transform="translate(1058 2523)" fill="rgba(0,188,212,0.5)"/>
    </g>
    <g transform="translate(-981 -2481)">
      <circle id="Ellipse_1-96" data-name="Ellipse 1" cx="2" cy="2" r="2" transform="translate(1058 2523)" fill="rgba(0,188,212,0.5)"/>
    </g>
    <g transform="translate(-974 -2481)">
      <circle id="Ellipse_1-97" data-name="Ellipse 1" cx="2" cy="2" r="2" transform="translate(1058 2523)" fill="rgba(0,188,212,0.5)"/>
    </g>
    <g transform="translate(-967 -2481)">
      <circle id="Ellipse_1-98" data-name="Ellipse 1" cx="2" cy="2" r="2" transform="translate(1058 2523)" fill="rgba(0,188,212,0.5)"/>
    </g>
    <g transform="translate(-1058 -2474)">
      <circle id="Ellipse_1-99" data-name="Ellipse 1" cx="2" cy="2" r="2" transform="translate(1058 2523)" fill="rgba(0,188,212,0.5)"/>
    </g>
    <g transform="translate(-1051 -2474)">
      <circle id="Ellipse_1-100" data-name="Ellipse 1" cx="2" cy="2" r="2" transform="translate(1058 2523)" fill="rgba(0,188,212,0.5)"/>
    </g>
    <g transform="translate(-1044 -2474)">
      <circle id="Ellipse_1-101" data-name="Ellipse 1" cx="2" cy="2" r="2" transform="translate(1058 2523)" fill="rgba(0,188,212,0.5)"/>
    </g>
    <g transform="translate(-1037 -2474)">
      <circle id="Ellipse_1-102" data-name="Ellipse 1" cx="2" cy="2" r="2" transform="translate(1058 2523)" fill="rgba(0,188,212,0.5)"/>
    </g>
    <g transform="translate(-1030 -2474)">
      <circle id="Ellipse_1-103" data-name="Ellipse 1" cx="2" cy="2" r="2" transform="translate(1058 2523)" fill="rgba(0,188,212,0.5)"/>
    </g>
    <g transform="translate(-1023 -2474)">
      <circle id="Ellipse_1-104" data-name="Ellipse 1" cx="2" cy="2" r="2" transform="translate(1058 2523)" fill="rgba(0,188,212,0.5)"/>
    </g>
    <g transform="translate(-1016 -2474)">
      <circle id="Ellipse_1-105" data-name="Ellipse 1" cx="2" cy="2" r="2" transform="translate(1058 2523)" fill="rgba(0,188,212,0.5)"/>
    </g>
    <g transform="translate(-1009 -2474)">
      <circle id="Ellipse_1-106" data-name="Ellipse 1" cx="2" cy="2" r="2" transform="translate(1058 2523)" fill="rgba(0,188,212,0.5)"/>
    </g>
    <g transform="translate(-1002 -2474)">
      <circle id="Ellipse_1-107" data-name="Ellipse 1" cx="2" cy="2" r="2" transform="translate(1058 2523)" fill="rgba(0,188,212,0.5)"/>
    </g>
    <g transform="translate(-995 -2474)">
      <circle id="Ellipse_1-108" data-name="Ellipse 1" cx="2" cy="2" r="2" transform="translate(1058 2523)" fill="rgba(0,188,212,0.5)"/>
    </g>
    <g transform="translate(-988 -2474)">
      <circle id="Ellipse_1-109" data-name="Ellipse 1" cx="2" cy="2" r="2" transform="translate(1058 2523)" fill="rgba(0,188,212,0.5)"/>
    </g>
    <g transform="translate(-981 -2474)">
      <circle id="Ellipse_1-110" data-name="Ellipse 1" cx="2" cy="2" r="2" transform="translate(1058 2523)" fill="rgba(0,188,212,0.5)"/>
    </g>
    <g transform="translate(-974 -2474)">
      <circle id="Ellipse_1-111" data-name="Ellipse 1" cx="2" cy="2" r="2" transform="translate(1058 2523)" fill="rgba(0,188,212,0.5)"/>
    </g>
    <g transform="translate(-967 -2474)">
      <circle id="Ellipse_1-112" data-name="Ellipse 1" cx="2" cy="2" r="2" transform="translate(1058 2523)" fill="rgba(0,188,212,0.5)"/>
    </g>
    <g transform="translate(-1058 -2467)">
      <circle id="Ellipse_1-113" data-name="Ellipse 1" cx="2" cy="2" r="2" transform="translate(1058 2523)" fill="rgba(0,188,212,0.5)"/>
    </g>
    <g transform="translate(-1051 -2467)">
      <circle id="Ellipse_1-114" data-name="Ellipse 1" cx="2" cy="2" r="2" transform="translate(1058 2523)" fill="rgba(0,188,212,0.5)"/>
    </g>
    <g transform="translate(-1044 -2467)">
      <circle id="Ellipse_1-115" data-name="Ellipse 1" cx="2" cy="2" r="2" transform="translate(1058 2523)" fill="rgba(0,188,212,0.5)"/>
    </g>
    <g transform="translate(-1037 -2467)">
      <circle id="Ellipse_1-116" data-name="Ellipse 1" cx="2" cy="2" r="2" transform="translate(1058 2523)" fill="rgba(0,188,212,0.5)"/>
    </g>
    <g transform="translate(-1030 -2467)">
      <circle id="Ellipse_1-117" data-name="Ellipse 1" cx="2" cy="2" r="2" transform="translate(1058 2523)" fill="rgba(0,188,212,0.5)"/>
    </g>
    <g transform="translate(-1023 -2467)">
      <circle id="Ellipse_1-118" data-name="Ellipse 1" cx="2" cy="2" r="2" transform="translate(1058 2523)" fill="rgba(0,188,212,0.5)"/>
    </g>
    <g transform="translate(-1016 -2467)">
      <circle id="Ellipse_1-119" data-name="Ellipse 1" cx="2" cy="2" r="2" transform="translate(1058 2523)" fill="rgba(0,188,212,0.5)"/>
    </g>
    <g transform="translate(-1009 -2467)">
      <circle id="Ellipse_1-120" data-name="Ellipse 1" cx="2" cy="2" r="2" transform="translate(1058 2523)" fill="rgba(0,188,212,0.5)"/>
    </g>
    <g transform="translate(-1002 -2467)">
      <circle id="Ellipse_1-121" data-name="Ellipse 1" cx="2" cy="2" r="2" transform="translate(1058 2523)" fill="rgba(0,188,212,0.5)"/>
    </g>
    <g transform="translate(-995 -2467)">
      <circle id="Ellipse_1-122" data-name="Ellipse 1" cx="2" cy="2" r="2" transform="translate(1058 2523)" fill="rgba(0,188,212,0.5)"/>
    </g>
    <g transform="translate(-988 -2467)">
      <circle id="Ellipse_1-123" data-name="Ellipse 1" cx="2" cy="2" r="2" transform="translate(1058 2523)" fill="rgba(0,188,212,0.5)"/>
    </g>
    <g transform="translate(-981 -2467)">
      <circle id="Ellipse_1-124" data-name="Ellipse 1" cx="2" cy="2" r="2" transform="translate(1058 2523)" fill="rgba(0,188,212,0.5)"/>
    </g>
    <g transform="translate(-974 -2467)">
      <circle id="Ellipse_1-125" data-name="Ellipse 1" cx="2" cy="2" r="2" transform="translate(1058 2523)" fill="rgba(0,188,212,0.5)"/>
    </g>
    <g transform="translate(-967 -2467)">
      <circle id="Ellipse_1-126" data-name="Ellipse 1" cx="2" cy="2" r="2" transform="translate(1058 2523)" fill="rgba(0,188,212,0.5)"/>
    </g>
    <g transform="translate(-1058 -2460)">
      <circle id="Ellipse_1-127" data-name="Ellipse 1" cx="2" cy="2" r="2" transform="translate(1058 2523)" fill="rgba(0,188,212,0.5)"/>
    </g>
    <g transform="translate(-1051 -2460)">
      <circle id="Ellipse_1-128" data-name="Ellipse 1" cx="2" cy="2" r="2" transform="translate(1058 2523)" fill="rgba(0,188,212,0.5)"/>
    </g>
    <g transform="translate(-1044 -2460)">
      <circle id="Ellipse_1-129" data-name="Ellipse 1" cx="2" cy="2" r="2" transform="translate(1058 2523)" fill="rgba(0,188,212,0.5)"/>
    </g>
    <g transform="translate(-1037 -2460)">
      <circle id="Ellipse_1-130" data-name="Ellipse 1" cx="2" cy="2" r="2" transform="translate(1058 2523)" fill="rgba(0,188,212,0.5)"/>
    </g>
    <g transform="translate(-1030 -2460)">
      <circle id="Ellipse_1-131" data-name="Ellipse 1" cx="2" cy="2" r="2" transform="translate(1058 2523)" fill="rgba(0,188,212,0.5)"/>
    </g>
    <g transform="translate(-1023 -2460)">
      <circle id="Ellipse_1-132" data-name="Ellipse 1" cx="2" cy="2" r="2" transform="translate(1058 2523)" fill="rgba(0,188,212,0.5)"/>
    </g>
    <g transform="translate(-1016 -2460)">
      <circle id="Ellipse_1-133" data-name="Ellipse 1" cx="2" cy="2" r="2" transform="translate(1058 2523)" fill="rgba(0,188,212,0.5)"/>
    </g>
    <g transform="translate(-1009 -2460)">
      <circle id="Ellipse_1-134" data-name="Ellipse 1" cx="2" cy="2" r="2" transform="translate(1058 2523)" fill="rgba(0,188,212,0.5)"/>
    </g>
    <g transform="translate(-1002 -2460)">
      <circle id="Ellipse_1-135" data-name="Ellipse 1" cx="2" cy="2" r="2" transform="translate(1058 2523)" fill="rgba(0,188,212,0.5)"/>
    </g>
    <g transform="translate(-995 -2460)">
      <circle id="Ellipse_1-136" data-name="Ellipse 1" cx="2" cy="2" r="2" transform="translate(1058 2523)" fill="rgba(0,188,212,0.5)"/>
    </g>
    <g transform="translate(-988 -2460)">
      <circle id="Ellipse_1-137" data-name="Ellipse 1" cx="2" cy="2" r="2" transform="translate(1058 2523)" fill="rgba(0,188,212,0.5)"/>
    </g>
    <g transform="translate(-981 -2460)">
      <circle id="Ellipse_1-138" data-name="Ellipse 1" cx="2" cy="2" r="2" transform="translate(1058 2523)" fill="rgba(0,188,212,0.5)"/>
    </g>
    <g transform="translate(-974 -2460)">
      <circle id="Ellipse_1-139" data-name="Ellipse 1" cx="2" cy="2" r="2" transform="translate(1058 2523)" fill="rgba(0,188,212,0.5)"/>
    </g>
    <g transform="translate(-967 -2460)">
      <circle id="Ellipse_1-140" data-name="Ellipse 1" cx="2" cy="2" r="2" transform="translate(1058 2523)" fill="rgba(0,188,212,0.5)"/>
    </g>
    <g transform="translate(-1058 -2453)">
      <circle id="Ellipse_1-141" data-name="Ellipse 1" cx="2" cy="2" r="2" transform="translate(1058 2523)" fill="rgba(0,188,212,0.5)"/>
    </g>
    <g transform="translate(-1051 -2453)">
      <circle id="Ellipse_1-142" data-name="Ellipse 1" cx="2" cy="2" r="2" transform="translate(1058 2523)" fill="rgba(0,188,212,0.5)"/>
    </g>
    <g transform="translate(-1044 -2453)">
      <circle id="Ellipse_1-143" data-name="Ellipse 1" cx="2" cy="2" r="2" transform="translate(1058 2523)" fill="rgba(0,188,212,0.5)"/>
    </g>
    <g transform="translate(-1037 -2453)">
      <circle id="Ellipse_1-144" data-name="Ellipse 1" cx="2" cy="2" r="2" transform="translate(1058 2523)" fill="rgba(0,188,212,0.5)"/>
    </g>
    <g transform="translate(-1030 -2453)">
      <circle id="Ellipse_1-145" data-name="Ellipse 1" cx="2" cy="2" r="2" transform="translate(1058 2523)" fill="rgba(0,188,212,0.5)"/>
    </g>
    <g transform="translate(-1023 -2453)">
      <circle id="Ellipse_1-146" data-name="Ellipse 1" cx="2" cy="2" r="2" transform="translate(1058 2523)" fill="rgba(0,188,212,0.5)"/>
    </g>
    <g transform="translate(-1016 -2453)">
      <circle id="Ellipse_1-147" data-name="Ellipse 1" cx="2" cy="2" r="2" transform="translate(1058 2523)" fill="rgba(0,188,212,0.5)"/>
    </g>
    <g transform="translate(-1009 -2453)">
      <circle id="Ellipse_1-148" data-name="Ellipse 1" cx="2" cy="2" r="2" transform="translate(1058 2523)" fill="rgba(0,188,212,0.5)"/>
    </g>
    <g transform="translate(-1002 -2453)">
      <circle id="Ellipse_1-149" data-name="Ellipse 1" cx="2" cy="2" r="2" transform="translate(1058 2523)" fill="rgba(0,188,212,0.5)"/>
    </g>
    <g transform="translate(-995 -2453)">
      <circle id="Ellipse_1-150" data-name="Ellipse 1" cx="2" cy="2" r="2" transform="translate(1058 2523)" fill="rgba(0,188,212,0.5)"/>
    </g>
    <g transform="translate(-988 -2453)">
      <circle id="Ellipse_1-151" data-name="Ellipse 1" cx="2" cy="2" r="2" transform="translate(1058 2523)" fill="rgba(0,188,212,0.5)"/>
    </g>
    <g transform="translate(-981 -2453)">
      <circle id="Ellipse_1-152" data-name="Ellipse 1" cx="2" cy="2" r="2" transform="translate(1058 2523)" fill="rgba(0,188,212,0.5)"/>
    </g>
    <g transform="translate(-974 -2453)">
      <circle id="Ellipse_1-153" data-name="Ellipse 1" cx="2" cy="2" r="2" transform="translate(1058 2523)" fill="rgba(0,188,212,0.5)"/>
    </g>
    <g transform="translate(-967 -2453)">
      <circle id="Ellipse_1-154" data-name="Ellipse 1" cx="2" cy="2" r="2" transform="translate(1058 2523)" fill="rgba(0,188,212,0.5)"/>
    </g>
    <g transform="translate(-1058 -2446)">
      <circle id="Ellipse_1-155" data-name="Ellipse 1" cx="2" cy="2" r="2" transform="translate(1058 2523)" fill="rgba(0,188,212,0.5)"/>
    </g>
    <g transform="translate(-1051 -2446)">
      <circle id="Ellipse_1-156" data-name="Ellipse 1" cx="2" cy="2" r="2" transform="translate(1058 2523)" fill="rgba(0,188,212,0.5)"/>
    </g>
    <g transform="translate(-1044 -2446)">
      <circle id="Ellipse_1-157" data-name="Ellipse 1" cx="2" cy="2" r="2" transform="translate(1058 2523)" fill="rgba(0,188,212,0.5)"/>
    </g>
    <g transform="translate(-1037 -2446)">
      <circle id="Ellipse_1-158" data-name="Ellipse 1" cx="2" cy="2" r="2" transform="translate(1058 2523)" fill="rgba(0,188,212,0.5)"/>
    </g>
    <g transform="translate(-1030 -2446)">
      <circle id="Ellipse_1-159" data-name="Ellipse 1" cx="2" cy="2" r="2" transform="translate(1058 2523)" fill="rgba(0,188,212,0.5)"/>
    </g>
    <g transform="translate(-1023 -2446)">
      <circle id="Ellipse_1-160" data-name="Ellipse 1" cx="2" cy="2" r="2" transform="translate(1058 2523)" fill="rgba(0,188,212,0.5)"/>
    </g>
    <g transform="translate(-1016 -2446)">
      <circle id="Ellipse_1-161" data-name="Ellipse 1" cx="2" cy="2" r="2" transform="translate(1058 2523)" fill="rgba(0,188,212,0.5)"/>
    </g>
    <g transform="translate(-1009 -2446)">
      <circle id="Ellipse_1-162" data-name="Ellipse 1" cx="2" cy="2" r="2" transform="translate(1058 2523)" fill="rgba(0,188,212,0.5)"/>
    </g>
    <g transform="translate(-1002 -2446)">
      <circle id="Ellipse_1-163" data-name="Ellipse 1" cx="2" cy="2" r="2" transform="translate(1058 2523)" fill="rgba(0,188,212,0.5)"/>
    </g>
    <g transform="translate(-995 -2446)">
      <circle id="Ellipse_1-164" data-name="Ellipse 1" cx="2" cy="2" r="2" transform="translate(1058 2523)" fill="rgba(0,188,212,0.5)"/>
    </g>
    <g transform="translate(-988 -2446)">
      <circle id="Ellipse_1-165" data-name="Ellipse 1" cx="2" cy="2" r="2" transform="translate(1058 2523)" fill="rgba(0,188,212,0.5)"/>
    </g>
    <g transform="translate(-981 -2446)">
      <circle id="Ellipse_1-166" data-name="Ellipse 1" cx="2" cy="2" r="2" transform="translate(1058 2523)" fill="rgba(0,188,212,0.5)"/>
    </g>
    <g transform="translate(-974 -2446)">
      <circle id="Ellipse_1-167" data-name="Ellipse 1" cx="2" cy="2" r="2" transform="translate(1058 2523)" fill="rgba(0,188,212,0.5)"/>
    </g>
    <g transform="translate(-967 -2446)">
      <circle id="Ellipse_1-168" data-name="Ellipse 1" cx="2" cy="2" r="2" transform="translate(1058 2523)" fill="rgba(0,188,212,0.5)"/>
    </g>
    <g transform="translate(-1058 -2439)">
      <circle id="Ellipse_1-169" data-name="Ellipse 1" cx="2" cy="2" r="2" transform="translate(1058 2523)" fill="rgba(0,188,212,0.5)"/>
    </g>
    <g transform="translate(-1051 -2439)">
      <circle id="Ellipse_1-170" data-name="Ellipse 1" cx="2" cy="2" r="2" transform="translate(1058 2523)" fill="rgba(0,188,212,0.5)"/>
    </g>
    <g transform="translate(-1044 -2439)">
      <circle id="Ellipse_1-171" data-name="Ellipse 1" cx="2" cy="2" r="2" transform="translate(1058 2523)" fill="rgba(0,188,212,0.5)"/>
    </g>
    <g transform="translate(-1037 -2439)">
      <circle id="Ellipse_1-172" data-name="Ellipse 1" cx="2" cy="2" r="2" transform="translate(1058 2523)" fill="rgba(0,188,212,0.5)"/>
    </g>
    <g transform="translate(-1030 -2439)">
      <circle id="Ellipse_1-173" data-name="Ellipse 1" cx="2" cy="2" r="2" transform="translate(1058 2523)" fill="rgba(0,188,212,0.5)"/>
    </g>
    <g transform="translate(-1023 -2439)">
      <circle id="Ellipse_1-174" data-name="Ellipse 1" cx="2" cy="2" r="2" transform="translate(1058 2523)" fill="rgba(0,188,212,0.5)"/>
    </g>
    <g transform="translate(-1016 -2439)">
      <circle id="Ellipse_1-175" data-name="Ellipse 1" cx="2" cy="2" r="2" transform="translate(1058 2523)" fill="rgba(0,188,212,0.5)"/>
    </g>
    <g transform="translate(-1009 -2439)">
      <circle id="Ellipse_1-176" data-name="Ellipse 1" cx="2" cy="2" r="2" transform="translate(1058 2523)" fill="rgba(0,188,212,0.5)"/>
    </g>
    <g transform="translate(-1002 -2439)">
      <circle id="Ellipse_1-177" data-name="Ellipse 1" cx="2" cy="2" r="2" transform="translate(1058 2523)" fill="rgba(0,188,212,0.5)"/>
    </g>
    <g transform="translate(-995 -2439)">
      <circle id="Ellipse_1-178" data-name="Ellipse 1" cx="2" cy="2" r="2" transform="translate(1058 2523)" fill="rgba(0,188,212,0.5)"/>
    </g>
    <g transform="translate(-988 -2439)">
      <circle id="Ellipse_1-179" data-name="Ellipse 1" cx="2" cy="2" r="2" transform="translate(1058 2523)" fill="rgba(0,188,212,0.5)"/>
    </g>
    <g transform="translate(-981 -2439)">
      <circle id="Ellipse_1-180" data-name="Ellipse 1" cx="2" cy="2" r="2" transform="translate(1058 2523)" fill="rgba(0,188,212,0.5)"/>
    </g>
    <g transform="translate(-974 -2439)">
      <circle id="Ellipse_1-181" data-name="Ellipse 1" cx="2" cy="2" r="2" transform="translate(1058 2523)" fill="rgba(0,188,212,0.5)"/>
    </g>
    <g transform="translate(-967 -2439)">
      <circle id="Ellipse_1-182" data-name="Ellipse 1" cx="2" cy="2" r="2" transform="translate(1058 2523)" fill="rgba(0,188,212,0.5)"/>
    </g>
    <g transform="translate(-1058 -2432)">
      <circle id="Ellipse_1-183" data-name="Ellipse 1" cx="2" cy="2" r="2" transform="translate(1058 2523)" fill="rgba(0,188,212,0.5)"/>
    </g>
    <g transform="translate(-1051 -2432)">
      <circle id="Ellipse_1-184" data-name="Ellipse 1" cx="2" cy="2" r="2" transform="translate(1058 2523)" fill="rgba(0,188,212,0.5)"/>
    </g>
    <g transform="translate(-1044 -2432)">
      <circle id="Ellipse_1-185" data-name="Ellipse 1" cx="2" cy="2" r="2" transform="translate(1058 2523)" fill="rgba(0,188,212,0.5)"/>
    </g>
    <g transform="translate(-1037 -2432)">
      <circle id="Ellipse_1-186" data-name="Ellipse 1" cx="2" cy="2" r="2" transform="translate(1058 2523)" fill="rgba(0,188,212,0.5)"/>
    </g>
    <g transform="translate(-1030 -2432)">
      <circle id="Ellipse_1-187" data-name="Ellipse 1" cx="2" cy="2" r="2" transform="translate(1058 2523)" fill="rgba(0,188,212,0.5)"/>
    </g>
    <g transform="translate(-1023 -2432)">
      <circle id="Ellipse_1-188" data-name="Ellipse 1" cx="2" cy="2" r="2" transform="translate(1058 2523)" fill="rgba(0,188,212,0.5)"/>
    </g>
    <g transform="translate(-1016 -2432)">
      <circle id="Ellipse_1-189" data-name="Ellipse 1" cx="2" cy="2" r="2" transform="translate(1058 2523)" fill="rgba(0,188,212,0.5)"/>
    </g>
    <g transform="translate(-1009 -2432)">
      <circle id="Ellipse_1-190" data-name="Ellipse 1" cx="2" cy="2" r="2" transform="translate(1058 2523)" fill="rgba(0,188,212,0.5)"/>
    </g>
    <g transform="translate(-1002 -2432)">
      <circle id="Ellipse_1-191" data-name="Ellipse 1" cx="2" cy="2" r="2" transform="translate(1058 2523)" fill="rgba(0,188,212,0.5)"/>
    </g>
    <g transform="translate(-995 -2432)">
      <circle id="Ellipse_1-192" data-name="Ellipse 1" cx="2" cy="2" r="2" transform="translate(1058 2523)" fill="rgba(0,188,212,0.5)"/>
    </g>
    <g transform="translate(-988 -2432)">
      <circle id="Ellipse_1-193" data-name="Ellipse 1" cx="2" cy="2" r="2" transform="translate(1058 2523)" fill="rgba(0,188,212,0.5)"/>
    </g>
    <g transform="translate(-981 -2432)">
      <circle id="Ellipse_1-194" data-name="Ellipse 1" cx="2" cy="2" r="2" transform="translate(1058 2523)" fill="rgba(0,188,212,0.5)"/>
    </g>
    <g transform="translate(-974 -2432)">
      <circle id="Ellipse_1-195" data-name="Ellipse 1" cx="2" cy="2" r="2" transform="translate(1058 2523)" fill="rgba(0,188,212,0.5)"/>
    </g>
    <g transform="translate(-967 -2432)">
      <circle id="Ellipse_1-196" data-name="Ellipse 1" cx="2" cy="2" r="2" transform="translate(1058 2523)" fill="rgba(0,188,212,0.5)"/>
    </g>
  </g>
</svg>
