<svg width="679" height="668" viewBox="0 0 679 668" fill="none" xmlns="http://www.w3.org/2000/svg">
<path opacity="0.2" d="M262.268 543.141C486.482 622.322 580.687 460.362 599.763 369.485C681.31 76.3597 220.415 116.868 124.718 212.639C58.6831 278.726 -17.9991 444.164 262.268 543.141Z" fill="#009CDE"/>
<path opacity="0.07" d="M172.03 481.361C331.573 657.678 491.487 560.04 551.501 489.182C762.684 270.152 338.019 86.5091 208.282 125.219C118.758 151.931 -27.398 260.965 172.03 481.361Z" fill="#009CDE"/>
<circle cx="341" cy="351" r="200" fill="white"/>
<path d="M322.391 343.147L292.9 310.935C248.335 355.02 272.359 396.426 278.865 396.646C279.543 396.669 280.665 396.75 281.434 394.605C285.163 384.204 315.158 354.126 322.192 346.909C322.47 346.687 322.698 346.408 322.86 346.092C323.023 345.775 323.117 345.428 323.135 345.073C323.154 344.717 323.098 344.362 322.97 344.03C322.841 343.698 322.644 343.397 322.391 343.147Z" fill="#009CDE"/>
<path d="M339.899 359.9C339.899 359.9 319.08 382.54 312.495 390.591C306.747 397.325 303.529 405.852 303.395 414.705C303.395 424.387 307.241 433.673 314.088 440.52C320.934 447.367 330.221 451.213 339.903 451.213C349.586 451.213 358.872 447.367 365.719 440.52C372.566 433.673 376.412 424.387 376.412 414.705C376.491 405.78 373.224 397.149 367.254 390.514C360.403 382.873 339.899 359.9 339.899 359.9Z" fill="#009CDE"/>
<path d="M341 151C301.444 151 262.776 162.73 229.886 184.706C196.996 206.682 171.362 237.918 156.224 274.463C141.087 311.008 137.126 351.222 144.843 390.018C152.56 428.814 171.608 464.451 199.579 492.421C227.549 520.392 263.186 539.44 301.982 547.157C340.778 554.874 380.992 550.913 417.537 535.776C454.082 520.638 485.318 495.004 507.294 462.114C529.27 429.224 541 390.556 541 351C541 297.957 519.928 247.086 482.421 209.579C444.914 172.072 394.043 151 341 151ZM339.898 478.08C311.752 478.046 284.769 466.849 264.868 446.945C244.968 427.04 233.776 400.055 233.748 371.909C233.748 322.18 266.939 289.022 296.214 259.765C315.732 240.256 334.357 221.658 339.898 200.681C345.444 221.658 364.064 240.256 383.586 259.765C412.87 289.022 446.057 322.182 446.057 371.909C446.028 400.056 434.835 427.042 414.933 446.947C395.031 466.851 368.046 478.048 339.898 478.08Z" fill="#009CDE"/>
<path d="M339.899 261.757C339.899 261.757 325.299 276.349 320.294 281.363C316.307 285.356 307.71 292.978 317.716 303.791C329.09 316.082 389.906 379.64 396.874 389.954C400.046 394.651 400.507 396.85 404.802 396.695C407.209 396.605 408.996 393.733 409.782 392.011C413.469 383.953 419.718 359.527 401.58 331.297C383.442 303.07 339.899 261.757 339.899 261.757Z" fill="#009CDE"/>
</svg>
