<svg width="91" height="90" viewBox="0 0 91 90" fill="none" xmlns="http://www.w3.org/2000/svg">
<path d="M41.8123 43.2341L35.1768 35.9863C25.1495 45.9055 30.5551 55.2219 32.019 55.2714C32.1714 55.2766 32.424 55.2948 32.597 54.8122C33.4361 52.4719 40.1848 45.7044 41.7674 44.0806C41.83 44.0306 41.8812 43.9679 41.9178 43.8967C41.9544 43.8255 41.9755 43.7474 41.9798 43.6674C41.984 43.5875 41.9713 43.5075 41.9424 43.4328C41.9136 43.3581 41.8692 43.2904 41.8123 43.2341Z" fill="#009CDE"/>
<path d="M45.7506 47.0039C45.7506 47.0039 41.0663 52.098 39.5846 53.9093C38.2915 55.4245 37.5674 57.3432 37.5371 59.335C37.5371 61.5136 38.4026 63.603 39.9431 65.1435C41.4836 66.684 43.573 67.5494 45.7516 67.5494C47.9302 67.5494 50.0196 66.684 51.5601 65.1435C53.1006 63.603 53.966 61.5136 53.966 59.335C53.9838 57.3268 53.2486 55.3849 51.9054 53.892C50.3639 52.1728 45.7506 47.0039 45.7506 47.0039Z" fill="#009CDE"/>
<path d="M45.9985 0.000976562C37.0984 0.000976563 28.3981 2.64018 20.9979 7.58484C13.5977 12.5295 7.82992 19.5575 4.42398 27.7802C1.01803 36.0029 0.126883 45.0509 1.86322 53.78C3.59955 62.5092 7.88539 70.5274 14.1787 76.8208C20.4721 83.1141 28.4903 87.4 37.2195 89.1363C45.9486 90.8726 54.9966 89.9815 63.2193 86.5755C71.442 83.1696 78.47 77.4018 83.4147 70.0016C88.3593 62.6014 90.9985 53.9011 90.9985 45.001C90.9985 33.0662 86.2574 21.6203 77.8183 13.1812C69.3792 4.74207 57.9333 0.00100645 45.9985 0.000976562ZM45.7506 73.594C39.4178 73.5864 33.3465 71.067 28.8689 66.5885C24.3913 62.11 21.8731 56.0383 21.8668 49.7054C21.8668 38.5165 29.3348 31.0559 35.9217 24.4732C40.3133 20.0835 44.5038 15.8991 45.7506 11.1792C46.9984 15.8991 51.188 20.0835 55.5805 24.4732C62.1693 31.0559 69.6364 38.5169 69.6364 49.7054C69.6299 56.0386 67.1113 62.1105 62.6334 66.589C58.1554 71.0674 52.0838 73.5867 45.7506 73.594Z" fill="#009CDE"/>
<path d="M45.7508 24.9219C45.7508 24.9219 42.4658 28.205 41.3396 29.3331C40.4425 30.2315 38.5082 31.9465 40.7596 34.3795C43.3188 37.1449 57.0024 51.4454 58.5701 53.766C59.2838 54.823 59.3876 55.3178 60.3539 55.2827C60.8954 55.2626 61.2976 54.6163 61.4744 54.229C62.3041 52.4158 63.71 46.92 59.6289 40.5684C55.5479 34.2172 45.7508 24.9219 45.7508 24.9219Z" fill="#009CDE"/>
</svg>
