<svg xmlns="http://www.w3.org/2000/svg" xmlns:xlink="http://www.w3.org/1999/xlink" width="912.021" height="679.889" viewBox="0 0 912.021 679.889">
  <defs>
    <linearGradient id="linear-gradient" x1="-40.4" y1="1.604" x2="-41.559" y2="0.388" gradientUnits="objectBoundingBox">
      <stop offset="0" stop-color="#1a6f4e"/>
      <stop offset="1" stop-color="#a9c621"/>
    </linearGradient>
    <linearGradient id="linear-gradient-2" x1="-36.428" y1="7.46" x2="-37.711" y2="6.398" xlink:href="#linear-gradient"/>
    <linearGradient id="linear-gradient-3" x1="-28.529" y1="11.556" x2="-29.927" y2="10.56" xlink:href="#linear-gradient"/>
    <linearGradient id="linear-gradient-4" x1="-13.197" y1="12.963" x2="-14.493" y2="11.861" xlink:href="#linear-gradient"/>
    <linearGradient id="linear-gradient-5" x1="-0.162" y1="1.497" x2="0.668" y2="0.412" xlink:href="#linear-gradient"/>
    <linearGradient id="linear-gradient-6" x1="-19.496" y1="0.901" x2="-21.573" y2="0.079" xlink:href="#linear-gradient"/>
    <linearGradient id="linear-gradient-7" x1="3.251" y1="-0.455" x2="2.024" y2="-1.577" xlink:href="#linear-gradient"/>
    <linearGradient id="linear-gradient-8" x1="-17.877" y1="0.919" x2="-15.894" y2="0.083" xlink:href="#linear-gradient"/>
    <linearGradient id="linear-gradient-9" x1="-6.585" y1="1.905" x2="-7.835" y2="0.81" xlink:href="#linear-gradient"/>
    <linearGradient id="linear-gradient-10" x1="-11.694" y1="0.941" x2="-13.5" y2="0.055" xlink:href="#linear-gradient"/>
    <linearGradient id="linear-gradient-11" x1="-10.21" y1="0.52" x2="-11.343" y2="-0.732" xlink:href="#linear-gradient"/>
    <linearGradient id="linear-gradient-12" x1="-8.266" y1="0.877" x2="-9.634" y2="0.11" xlink:href="#linear-gradient"/>
    <linearGradient id="linear-gradient-13" x1="-20.517" y1="1.961" x2="-20.852" y2="-0.778" xlink:href="#linear-gradient"/>
    <linearGradient id="linear-gradient-14" x1="-25.742" y1="1.511" x2="-26.004" y2="-0.459" xlink:href="#linear-gradient"/>
    <linearGradient id="linear-gradient-15" x1="-84.323" y1="0.999" x2="-84.33" y2="-0.071" xlink:href="#linear-gradient"/>
    <linearGradient id="linear-gradient-16" x1="-204.598" y1="0.957" x2="-205.528" y2="-0.021" xlink:href="#linear-gradient"/>
    <linearGradient id="linear-gradient-17" x1="-14.418" y1="0.082" x2="-14.418" y2="0.9" gradientUnits="objectBoundingBox">
      <stop offset="0" stop-color="#3c4858"/>
      <stop offset="1" stop-color="#870f4e"/>
    </linearGradient>
    <linearGradient id="linear-gradient-18" x1="-12.237" y1="1.503" x2="-12.237" y2="0.023" xlink:href="#linear-gradient-17"/>
    <linearGradient id="linear-gradient-19" x1="-2.198" y1="0.435" x2="-2.198" y2="-0.89" gradientUnits="objectBoundingBox">
      <stop offset="0" stop-color="#9d32af"/>
      <stop offset="1" stop-color="#e30056"/>
    </linearGradient>
    <linearGradient id="linear-gradient-20" x1="-3.29" y1="0.633" x2="-3.29" y2="-1.436" gradientUnits="objectBoundingBox">
      <stop offset="0" stop-color="#e4aded"/>
      <stop offset="1" stop-color="#b0e0ea"/>
    </linearGradient>
    <linearGradient id="linear-gradient-21" x1="0.754" y1="3.439" x2="0.637" y2="2.088" gradientUnits="objectBoundingBox">
      <stop offset="0" stop-color="#9c27b0"/>
      <stop offset="1" stop-color="#93a9b0"/>
    </linearGradient>
    <clipPath id="clip-path">
      <path id="Path_137" data-name="Path 137" d="M1.175-229.188H108.929V-151H1.175Z" transform="translate(-1.175 229.188)" fill="none" clip-rule="evenodd"/>
    </clipPath>
    <clipPath id="clip-path-2">
      <path id="Path_136" data-name="Path 136" d="M-1472-203.319h780.613V-389H-1472Z" transform="translate(1472 389)" fill="none"/>
    </clipPath>
    <clipPath id="clip-path-5">
      <path id="Path_143" data-name="Path 143" d="M1.175-229.188H108.929v11.016H1.175Z" transform="translate(-1.175 229.188)" fill="none" clip-rule="evenodd"/>
    </clipPath>
    <clipPath id="clip-path-7">
      <path id="Path_146" data-name="Path 146" d="M10.693-215.291a2.41,2.41,0,0,0,2.41-2.41,2.41,2.41,0,0,0-2.41-2.41,2.41,2.41,0,0,0-2.41,2.41A2.41,2.41,0,0,0,10.693-215.291Z" transform="translate(-8.284 220.111)" fill="none" clip-rule="evenodd"/>
    </clipPath>
    <clipPath id="clip-path-9">
      <path id="Path_149" data-name="Path 149" d="M32.132-215.291a2.41,2.41,0,0,0,2.41-2.41,2.41,2.41,0,0,0-2.41-2.41,2.41,2.41,0,0,0-2.41,2.41A2.41,2.41,0,0,0,32.132-215.291Z" transform="translate(-29.723 220.111)" fill="none" clip-rule="evenodd"/>
    </clipPath>
    <clipPath id="clip-path-11">
      <path id="Path_152" data-name="Path 152" d="M53.572-215.291a2.41,2.41,0,0,0,2.41-2.41,2.41,2.41,0,0,0-2.41-2.41,2.41,2.41,0,0,0-2.41,2.41A2.41,2.41,0,0,0,53.572-215.291Z" transform="translate(-51.162 220.111)" fill="none" clip-rule="evenodd"/>
    </clipPath>
    <clipPath id="clip-path-13">
      <path id="Path_155" data-name="Path 155" d="M34.91-178.443H67.55v6.485H34.91Z" transform="translate(-34.91 178.443)" fill="#c4a5c9" clip-rule="evenodd"/>
    </clipPath>
    <clipPath id="clip-path-14">
      <path id="Path_154" data-name="Path 154" d="M-1472-203.319h780.613V-389H-1472Z" transform="translate(1472 389)" fill="#c4a5c9"/>
    </clipPath>
    <clipPath id="clip-path-15">
      <path id="Path_158" data-name="Path 158" d="M34.91-66.165H67.55v6.485H34.91Z" transform="translate(-34.91 66.165)" fill="#c4a5c9" clip-rule="evenodd"/>
    </clipPath>
    <clipPath id="clip-path-17">
      <path id="Path_161" data-name="Path 161" d="M59.756-145.777H83.915v22.509H59.756Z" transform="translate(-59.756 145.777)" fill="#c4a5c9" clip-rule="evenodd"/>
    </clipPath>
    <clipPath id="clip-path-19">
      <path id="Path_164" data-name="Path 164" d="M34.91-145.777h6.741v22.509H34.91Z" transform="translate(-34.91 145.777)" fill="#c4a5c9" clip-rule="evenodd"/>
    </clipPath>
    <clipPath id="clip-path-21">
      <path id="Path_167" data-name="Path 167" d="M185.5-178.443h32.64v6.485H185.5Z" transform="translate(-185.495 178.443)" fill="#c4a5c9" clip-rule="evenodd"/>
    </clipPath>
    <clipPath id="clip-path-23">
      <path id="Path_170" data-name="Path 170" d="M185.5-66.165h32.64v6.485H185.5Z" transform="translate(-185.495 66.165)" fill="#c4a5c9" clip-rule="evenodd"/>
    </clipPath>
    <clipPath id="clip-path-25">
      <path id="Path_173" data-name="Path 173" d="M210.341-145.777H234.5v22.509H210.341Z" transform="translate(-210.341 145.777)" fill="#c4a5c9" clip-rule="evenodd"/>
    </clipPath>
    <clipPath id="clip-path-27">
      <path id="Path_176" data-name="Path 176" d="M185.5-145.777h6.741v6.163H185.5Z" transform="translate(-185.495 145.777)" fill="#dd5546" clip-rule="evenodd"/>
    </clipPath>
    <clipPath id="clip-path-28">
      <path id="Path_175" data-name="Path 175" d="M-1472-203.319h780.613V-389H-1472Z" transform="translate(1472 389)" fill="#dd5546"/>
    </clipPath>
    <clipPath id="clip-path-29">
      <path id="Path_179" data-name="Path 179" d="M185.5-121.831h6.741v6.163H185.5Z" transform="translate(-185.495 121.831)" fill="#dd5546" clip-rule="evenodd"/>
    </clipPath>
    <clipPath id="clip-path-31">
      <path id="Path_182" data-name="Path 182" d="M185.5-97.885h6.741v6.163H185.5Z" transform="translate(-185.495 97.885)" fill="#dd5546" clip-rule="evenodd"/>
    </clipPath>
  </defs>
  <g id="illustration" transform="translate(15.062 -82.167)">
    <path id="Path_123" data-name="Path 123" d="M374,36.1c222.305,0,435.335,133.818,440,354.554.049,2.3,0,13.873,0,16.348,0,224.78-345.22,292.524-570,292.524S-101.011,634.1,0,407,149.22,36.1,374,36.1Z" transform="translate(82.938 62.532)" fill="rgba(156,39,176,0.05)"/>
    <g id="Path_124" data-name="Path 124" transform="translate(-15.062 -97.403)" fill="none">
      <path d="M516.264,272.04c263.146,0,290.449-229.146,290.449,34S731.34,570.7,516.264,764.505,0,739.613,0,476.467,253.118,272.04,516.264,272.04Z" stroke="none"/>
      <path d="M 785.6958618164062 180.570068359375 C 776.9519653320312 180.5747680664062 764.2005615234375 188.8121948242188 746.552001953125 200.213134765625 C 735.852783203125 207.1248779296875 723.7259521484375 214.958740234375 709.3507080078125 223.0594482421875 C 692.6265869140625 232.4837036132812 676.3872680664062 240.2573852539062 659.7047119140625 246.8245239257812 C 649.8775024414062 250.6929931640625 639.7766723632812 254.173583984375 629.6825561523438 257.1694946289062 C 618.6703491210938 260.4378051757812 607.3074951171875 263.2362060546875 595.9098510742188 265.4869995117188 C 583.6310424804688 267.9118041992188 570.93505859375 269.7756958007812 558.17431640625 271.0269165039062 C 544.552001953125 272.362548828125 530.451171875 273.0398559570312 516.2636108398438 273.0398559570312 C 474.4436340332031 273.0398559570312 432.8185729980469 271.5554809570312 392.5638427734375 270.1199340820312 C 354.0466918945312 268.7463989257812 317.6654968261719 267.448974609375 282.6734008789062 267.448974609375 C 260.8626708984375 267.448974609375 241.7274169921875 267.959228515625 224.174072265625 269.009033203125 C 204.3483276367188 270.1946411132812 186.7802124023438 272.0452270507812 170.4657592773438 274.6663208007812 C 161.8453979492188 276.0513305664062 153.5150146484375 277.6734619140625 145.7061157226562 279.4877319335938 C 137.6102294921875 281.3685302734375 129.8029174804688 283.5188598632812 122.5011596679688 285.879150390625 C 114.9637451171875 288.3153686523438 107.7191772460938 291.0546264648438 100.9686889648438 294.0206298828125 C 94.02435302734375 297.0717163085938 87.38128662109375 300.460205078125 81.2237548828125 304.0918579101562 C 74.90716552734375 307.8173828125 68.90325927734375 311.9158325195312 63.37890625 316.2732543945312 C 57.7239990234375 320.7334594726562 52.3961181640625 325.6035766601562 47.54290771484375 330.7481689453125 C 42.583740234375 336.0052490234375 37.96795654296875 341.7103881835938 33.823974609375 347.7051391601562 C 29.59515380859375 353.8223876953125 25.72882080078125 360.4276123046875 22.33233642578125 367.3369750976562 C 18.87054443359375 374.3790283203125 15.79241943359375 381.949462890625 13.18316650390625 389.8384399414062 C 10.52716064453125 397.8687744140625 8.27740478515625 406.4696044921875 6.496337890625 415.4019165039062 C 4.68572998046875 424.4833374023438 3.30560302734375 434.1779174804688 2.39447021484375 444.2164306640625 C 1.46917724609375 454.410400390625 1 465.26123046875 1 476.4674682617188 C 1 500.0251159667969 3.447265625 523.833740234375 8.27398681640625 547.2320556640625 C 12.943359375 569.8685302734375 19.8858642578125 592.3572387695312 28.908447265625 614.0733642578125 C 37.70574951171875 635.247314453125 48.54364013671875 655.8444213867188 61.12103271484375 675.2924194335938 C 73.506103515625 694.4429931640625 87.63818359375 712.5755615234375 103.1250610351562 729.1864013671875 C 118.5484619140625 745.729248046875 135.372314453125 760.8245239257812 153.1292724609375 774.0528564453125 C 171.02197265625 787.3822021484375 189.9337158203125 798.868408203125 209.3394165039062 808.1925048828125 C 229.1083374023438 817.6912231445312 249.5042114257812 824.998779296875 269.9603271484375 829.9124145507812 C 290.9938354492188 834.9646606445312 312.2718505859375 837.5263061523438 333.2033996582031 837.5263061523438 C 365.0980834960938 837.5263061523438 396.3892822265625 831.6160888671875 426.2076110839844 819.959716796875 C 441.7433776855469 813.8866577148438 457.0469055175781 806.1686401367188 471.6932678222656 797.0200805664062 C 486.8161010742188 787.5738525390625 501.5864562988281 776.38427734375 515.59423828125 763.76220703125 C 556.287841796875 727.0940551757812 591.7850341796875 697.4712524414062 623.103515625 671.335693359375 C 656.0685424804688 643.825927734375 684.5382080078125 620.06787109375 707.9171752929688 597.227783203125 C 720.2152709960938 585.2132568359375 730.542236328125 574.011962890625 739.4880981445312 562.9837036132812 C 749.1896362304688 551.0240478515625 757.3348999023438 539.2017822265625 764.3892822265625 526.8413696289062 C 771.7833862304688 513.8858642578125 777.888916015625 500.5078125 783.0548095703125 485.9427490234375 C 788.3515014648438 471.0092163085938 792.553955078125 455.134765625 795.9024658203125 437.4124145507812 C 799.2744750976562 419.5654907226562 801.7025756835938 400.2590942382812 803.3256225585938 378.3899536132812 C 804.9320678710938 356.7460327148438 805.712890625 333.079833984375 805.712890625 306.0390014648438 C 805.712890625 280.2353515625 805.4468994140625 261.1008911132812 804.8758544921875 245.8217163085938 C 804.252685546875 229.1486206054688 803.2269287109375 216.4385375976562 801.7401123046875 206.9650268554688 C 800.2289428710938 197.3365478515625 798.1806640625 190.6002807617188 795.4783325195312 186.371337890625 C 792.9490356445312 182.4134521484375 789.8428955078125 180.570068359375 785.7032470703125 180.570068359375 L 785.6958618164062 180.570068359375 M 785.6953125 179.570068359375 C 803.0872192382812 179.5607299804688 806.712890625 210.041748046875 806.712890625 306.0390014648438 C 806.712890625 569.185791015625 731.33984375 570.7042236328125 516.2636108398438 764.505126953125 C 458.9239807128906 816.1727294921875 395.4449768066406 838.5263671875 333.2033386230469 838.5263671875 C 161.9818115234375 838.5263671875 0 669.4580688476562 0 476.4674682617188 C 0 294.52685546875 121.0177001953125 266.448974609375 282.6734619140625 266.448974609375 C 354.8248596191406 266.448974609375 435.0584716796875 272.0398559570312 516.2636108398438 272.0398559570312 C 683.4119262695312 272.0398559570312 755.4129638671875 179.5863037109375 785.6953125 179.570068359375 Z" stroke="none" fill="rgba(156,39,176,0.23)"/>
    </g>
    <g id="Group_12" data-name="Group 12" opacity="0.24">
      <g id="Group_11" data-name="Group 11">
        <g id="Group_4" data-name="Group 4">
          <circle id="Ellipse_6" data-name="Ellipse 6" cx="117.322" cy="117.322" r="117.322" transform="matrix(0.995, -0.095, 0.095, 0.995, 184.421, 205.807)" fill="#017d8d"/>
        </g>
        <g id="Group_5" data-name="Group 5">
          <circle id="Ellipse_7" data-name="Ellipse 7" cx="101.679" cy="101.679" r="101.679" transform="translate(208.708 211.783) rotate(-1.124)" fill="#fff"/>
        </g>
        <g id="Group_7" data-name="Group 7" opacity="0.07">
          <g id="Group_6" data-name="Group 6">
            <path id="Path_34" data-name="Path 34" d="M352.723,218.641A101.675,101.675,0,0,1,262.267,400.41a101.676,101.676,0,1,0,90.456-181.769Z" fill="#0c3851"/>
          </g>
        </g>
        <g id="Group_10" data-name="Group 10">
          <g id="Group_8" data-name="Group 8">
            <path id="Path_35" data-name="Path 35" d="M305.563,313.824l1.223,3.834a1.93,1.93,0,0,0,2.424,1.252l92.846-29.616a1.93,1.93,0,0,0,1.252-2.424l-1.223-3.834a1.928,1.928,0,0,0-2.424-1.252L306.815,311.4A1.931,1.931,0,0,0,305.563,313.824Z" fill="#03a1b5"/>
          </g>
          <g id="Group_9" data-name="Group 9">
            <path id="Path_36" data-name="Path 36" d="M313.71,303.749l-17.152-46.9a3.91,3.91,0,0,0-5.016-2.329h0a3.91,3.91,0,0,0-2.329,5.016l17.152,46.9a7.822,7.822,0,1,0,7.345-2.686Z" fill="#0e1c30"/>
          </g>
        </g>
      </g>
    </g>
    <g id="Group_13" data-name="Group 13">
      <path id="Path_37" data-name="Path 37" d="M349.435,185.938,250.77,213.716l23.853,24.141c-26.456,26.9-59.536,60.679-60.418,62.275-1.475,2.67-27.148-49.814-27.148-49.814l-69.313,76.59L92.439,293.432,37.1,355.265l51.661-35.191,27.913,36.4,62.305-63.29,26.565,54.3,92.622-85.79,25.638,25.947Z" fill="#8a2d87"/>
      <path id="Path_38" data-name="Path 38" d="M206.523,347.626l94.3-84.517-5.3-6.236Z" fill="#0c3650"/>
      <path id="Path_39" data-name="Path 39" d="M117.734,356.1l65.408-56.821-3.518-7.116Z" fill="#0c3650"/>
      <path id="Path_40" data-name="Path 40" d="M89.967,319.7,38.594,355.122,93,324.2Z" fill="#0c3650"/>
    </g>
    <g id="Group_15" data-name="Group 15" transform="translate(479.085 504.494)">
      <path id="Path_41" data-name="Path 41" d="M55.575,676.952c0,.918,9.794,1.663,21.876,1.663s21.877-.745,21.877-1.663-9.794-1.666-21.877-1.666S55.575,676.032,55.575,676.952Z" transform="translate(-35.111 -489.494)" fill="#cfcfcf"/>
      <path id="Path_42" data-name="Path 42" d="M59.212,646.011c-5.417-3.449,1.518-14,14.124-15.024a25.247,25.247,0,0,1,.11,10.489C72.391,645.689,66.8,650.838,59.212,646.011Z" transform="translate(-11.529 -489.494)" opacity="0.554" fill="url(#linear-gradient)"/>
      <path id="Path_43" data-name="Path 43" d="M71.085,646.854c-6.3-1.224-3.713-13.582,7.645-19.149a25.236,25.236,0,0,1,3.942,9.719C83.232,641.73,79.91,648.57,71.085,646.854Z" transform="translate(-30.669 -489.494)" opacity="0.554" fill="url(#linear-gradient-2)"/>
      <path id="Path_44" data-name="Path 44" d="M82.584,647.7c-5.6,1.567-8.515-9.483-1.585-18.6a22.874,22.874,0,0,1,7.133,6.264C90.332,638.622,90.422,645.5,82.584,647.7Z" transform="translate(-46.572 -489.494)" opacity="0.554" fill="url(#linear-gradient-3)"/>
      <path id="Path_45" data-name="Path 45" d="M92.073,646.287c-3.9,3.467-10.61-4.3-8.6-14.393a20.545,20.545,0,0,1,8.227,2.249C94.756,635.906,97.539,641.429,92.073,646.287Z" transform="translate(-58.497 -489.494)" fill="url(#linear-gradient-4)"/>
      <path id="Path_46" data-name="Path 46" d="M59.643,620.278c-21.443-8.41-4.292-50.331,39.391-62.608,0,0,8.561,18.623,7.605,36.851C105.824,610.074,89.67,632.056,59.643,620.278Z" transform="translate(-37.352 -489.494)" opacity="0.533" fill="url(#linear-gradient-5)"/>
      <path id="Path_47" data-name="Path 47" d="M90.1,562.962A38.842,38.842,0,0,0,80.1,573.5a29.6,29.6,0,0,0-1.944,3.033c-.591,1.049-1.3,2.013-1.786,3.117s-1.041,2.163-1.57,3.234l-.789,1.606-.63,1.689a91.726,91.726,0,0,0-4.232,13.72c-.445,2.368-.964,4.714-1.446,7.069l-.851,7.2c-.14,1.2-.376,2.387-.44,3.6l-.185,3.638c-.132,2.426-.223,4.852-.394,7.281.069,4.877,0,9.764.144,14.667.132,2.452.315,4.9.406,7.364l.149,3.7.075,1.853.177,1.843.59,7.411.291,3.721.185,3.752-.351.071-2.581-14.681-.319-1.836-.2-1.853-.408-3.706-.818-7.411-.195-1.855-.073-1.863-.146-3.727-.291-7.455.281-7.46.143-3.73c.052-1.243.274-2.473.4-3.71l.969-7.405,1.615-7.3a82.558,82.558,0,0,1,4.939-14.082l.747-1.712.91-1.633,1.831-3.261c.588-1.1,1.4-2.063,2.083-3.1a28.944,28.944,0,0,1,2.245-2.987,36.424,36.424,0,0,1,11.315-9.665Z" transform="translate(-32.772 -489.494)" fill="url(#linear-gradient-6)"/>
      <path id="Path_48" data-name="Path 48" d="M112.779,599.713c16.323-6.4,3.268-38.313-29.985-47.66,0,0-6.517,14.176-5.79,28.053C77.626,591.944,89.922,608.678,112.779,599.713Z" transform="translate(-76.947 -489.494)" opacity="0.689" fill="url(#linear-gradient-7)"/>
      <path id="Path_49" data-name="Path 49" d="M79.665,555.874a97.269,97.269,0,0,1,8.817,12.683c1.271,2.242,2.524,4.5,3.659,6.814l1.745,3.457,1.613,3.52a173.022,173.022,0,0,1,10.009,29.295c.576,2.519,1.065,5.055,1.6,7.58l.774,3.794.585,3.829,1.077,7.663c.258,2.566.446,5.141.622,7.711l.277,3.853c.058,1.286.062,2.575.094,3.862l.142,7.713c.029,2.569-.252,5.142-.364,7.705-.132,2.565-.322,5.124-.549,7.676l-.273-.006c-.093-5.1-.017-10.216-.249-15.314l-.484-7.643c-.088-1.274-.146-2.55-.258-3.82l-.44-3.8-.879-7.608-1.243-7.553-.631-3.776-.8-3.743c-.552-2.492-1.059-4.994-1.652-7.475a213.377,213.377,0,0,0-9.326-29.136,144.826,144.826,0,0,0-14.087-27.114Z" transform="translate(-70.336 -489.494)" opacity="0.61" fill="url(#linear-gradient-8)"/>
      <path id="Path_50" data-name="Path 50" d="M26.611,581.083C-4.215,571.636,15.245,511.3,74.9,489.494c0,0,13.938,25.077,14.551,50.62C89.977,561.91,69.779,594.314,26.611,581.083Z" transform="translate(18.195 -489.494)" opacity="0.542" fill="url(#linear-gradient-9)"/>
      <path id="Path_51" data-name="Path 51" d="M79.561,497.266q-1.7,2.354-3.228,4.832c-1.083,1.6-2.084,3.251-3.079,4.9-1.025,1.632-1.966,3.316-2.884,5.013s-1.909,3.338-2.727,5.088c-1.75,3.427-3.584,6.791-5.116,10.318-.791,1.748-1.627,3.47-2.45,5.2l-2.218,5.3-2.208,5.294-1.994,5.381-2,5.372c-.673,1.787-1.161,3.642-1.748,5.458-.554,1.829-1.169,3.638-1.755,5.454l-.89,2.722c-.275.915-.492,1.846-.743,2.768l-2.915,11.083c-.881,3.715-1.618,7.467-2.438,11.2-.381,1.872-.84,3.73-1.16,5.615-.281,1.893-.552,3.785-.874,5.672-.593,3.779-1.294,7.549-1.806,11.345-.351,3.815-.779,7.625-1.218,11.441l-.649,5.731-.3,5.756-.717,11.543c-.467,7.716-.17,15.441-.617,23.251l-.425.037-.681-11.623-.339-5.814c-.12-1.938-.254-3.875-.188-5.817l.092-11.647.052-5.824.427-5.808.856-11.619c.423-3.858,1.038-7.7,1.548-11.547l.8-5.771c.307-1.918.754-3.81,1.123-5.717.795-3.8,1.51-7.623,2.37-11.41A248.149,248.149,0,0,1,54.8,536.509c6.573-14.054,14.362-27.653,24.443-39.531Z" transform="translate(8.057 -489.494)" fill="url(#linear-gradient-10)"/>
      <path id="Path_52" data-name="Path 52" d="M7.964,609.144c-18.846-13.639,8.511-50.3,54.331-51.281,0,0,3.671,20.374-1.867,37.959C55.7,610.826,34.355,628.245,7.964,609.144Z" transform="translate(54.366 -489.494)" opacity="0.519" fill="url(#linear-gradient-11)"/>
      <path id="Path_53" data-name="Path 53" d="M77.1,561.9a95.918,95.918,0,0,0-12.957,10.485l-3.035,2.825-2.886,2.98c-1.965,1.938-3.727,4.074-5.52,6.168a186.825,186.825,0,0,0-18.866,27.06l-3.969,7.251a39,39,0,0,0-1.846,3.7l-1.757,3.75-1.793,3.735c-.3.625-.612,1.242-.886,1.876l-.768,1.926c-1,2.576-2.08,5.127-3.169,7.68-1.16,2.529-1.985,5.18-2.9,7.8L14,657.024c-1.763,5.292-3.164,10.694-5.009,16.032l-.3-.058c1.254-5.461,2.4-10.951,3.742-16.392l2.384-8.063c.806-2.685,1.521-5.4,2.573-8l2.925-7.887.73-1.972c.263-.65.569-1.282.851-1.922l1.727-3.837,1.728-3.835a39.849,39.849,0,0,1,1.841-3.781l3.969-7.421a156.782,156.782,0,0,1,19.771-27.155c1.921-2.043,3.8-4.125,5.891-6l3.064-2.885,3.214-2.715a83.242,83.242,0,0,1,13.864-9.508Z" transform="translate(34.003 -489.494)" opacity="0.519" fill="url(#linear-gradient-12)"/>
      <path id="Path_54" data-name="Path 54" d="M20.726,552.515a28.381,28.381,0,0,1,7.224-3.87c1.249-.529,2.545-.869,3.831-1.274,1.3-.351,2.616-.615,3.93-.9a42,42,0,0,1,8.083-.627,23.755,23.755,0,0,1,8.117,1.51l-.007.284a81.275,81.275,0,0,0-15.686,1.633,152.575,152.575,0,0,0-15.408,3.522Z" transform="translate(47.155 -489.494)" opacity="0.511" fill="url(#linear-gradient-13)"/>
      <path id="Path_55" data-name="Path 55" d="M21.787,535.225a21.056,21.056,0,0,1,5.412-4.308,31.122,31.122,0,0,1,3-1.551c1.03-.45,2.092-.821,3.146-1.217A31.353,31.353,0,0,1,40,526.793a18.032,18.032,0,0,1,6.95.629l.031.284a67.68,67.68,0,0,0-12.751,3.147,127.612,127.612,0,0,0-12.325,4.631Z" transform="translate(51.022 -489.494)" opacity="0.511" fill="url(#linear-gradient-14)"/>
      <path id="Path_56" data-name="Path 56" d="M75.037,548.789a22.461,22.461,0,0,1-2.1-4.057c-.528-1.3-1.008-2.551-1.419-3.761-.153-.635-.417-1.2-.61-1.794l-.3-.881a7.42,7.42,0,0,1-.333-.86,19.628,19.628,0,0,0-1.926-3.7l.1-.242a8.132,8.132,0,0,1,3.488,2.7,14.014,14.014,0,0,1,2.05,3.921A26.685,26.685,0,0,1,75.3,548.79Z" transform="translate(-23.858 -489.494)" opacity="0.511" fill="url(#linear-gradient-15)"/>
      <path id="Path_57" data-name="Path 57" d="M59.87,529.945a16.464,16.464,0,0,1-.848-3.415c-.181-1.077-.256-2.11-.369-3.105-.05-1.005-.15-1.964-.251-2.91a12.358,12.358,0,0,0-.727-3.106l.114-.162a6.093,6.093,0,0,1,2.053,2.694,11.156,11.156,0,0,1,.775,3.314,24.27,24.27,0,0,1-.553,6.733Z" transform="translate(1.452 -489.494)" opacity="0.511" fill="url(#linear-gradient-16)"/>
      <g id="Group_14" data-name="Group 14" transform="translate(21.267 148.98)">
        <path id="Path_58" data-name="Path 58" d="M88.933,676.952h-26.5a2.6,2.6,0,0,1-2.581-2.294L56.2,643.941a2.6,2.6,0,0,1,2.579-2.9H92.585a2.6,2.6,0,0,1,2.581,2.9l-3.652,30.717A2.6,2.6,0,0,1,88.933,676.952Z" transform="translate(-52.841 -638.474)" fill="url(#linear-gradient-17)"/>
        <path id="Path_59" data-name="Path 59" d="M96.012,647.125H55.355a1.714,1.714,0,0,1-1.695-1.455l-.8-5.222a1.715,1.715,0,0,1,1.695-1.974H96.81a1.715,1.715,0,0,1,1.695,1.974l-.8,5.222A1.714,1.714,0,0,1,96.012,647.125Z" transform="translate(-52.842 -638.474)" fill="url(#linear-gradient-18)"/>
      </g>
    </g>
    <g id="Group_21" data-name="Group 21">
      <path id="Path_128" data-name="Path 128" d="M9247.313,670.076c36.936-5.46,61.887,8.381,170.09,4.4,20.578,11.815,27.425,32.56-13.294,21.838s-105.37,0-134.447,0S9210.377,675.535,9247.313,670.076Z" transform="translate(-9196.062 6.532)" fill="#eee"/>
      <path id="Path_60" data-name="Path 60" d="M73.692,353.421l-2.706-14.007,8.363-9.557,4.38,3.982-2.015,9.906,2.169,2.4-2.361,10.125S73.665,353.23,73.692,353.421Z" fill="#f5c3a1"/>
      <path id="Path_61" data-name="Path 61" d="M182.883,325.052l1.027-14.615-11.82-9.151-4.957,6.482,5.338,9.533-1.906,4.957,5.24,7.871Z" fill="#f5c3a1"/>
      <g id="Group_20" data-name="Group 20">
        <g id="Group_18" data-name="Group 18">
          <g id="Group_16" data-name="Group 16">
            <path id="Path_62" data-name="Path 62" d="M89.22,491.026l-.956,82.688,8.812,106.445h11.981l14.337-98.206,16.4-98.374Z" fill="#004554"/>
            <path id="Path_63" data-name="Path 63" d="M108.988,685.211,96.032,691.69l-6.478-6.478,6.478-6.478h12.957Z" fill="#002340"/>
          </g>
          <g id="Group_17" data-name="Group 17">
            <path id="Path_64" data-name="Path 64" d="M171.367,491.026l.235,47.838-8.081,141.3H151.54L131.5,586.4,120.8,483.58Z" fill="#004554"/>
            <path id="Path_65" data-name="Path 65" d="M151.609,685.211l12.956,6.478,6.478-6.478-6.478-6.478H151.609Z" fill="#002340"/>
          </g>
        </g>
        <path id="Path_66" data-name="Path 66" d="M183.827,519.83c.257,7.59.092,17.743-3.1,18.122a3.148,3.148,0,0,1-1.7-.45c-5.557-2.7-9.518-6.516-15-9.124-5.741-2.733-12.265-4.163-18.642-5.151a193.88,193.88,0,0,0-28.75-2.517c-8.227-.072-16.782,3.68-24.56,5.744-2.993.8-5.428,2.976-7.916,4.687-3.673,2.527-5.283,3.528-4.782-1.635.817-8.426,1.666-16.85,2.7-25.251,2.068-16.758,4.882-33.477,9.644-49.7,1.819-6.2,3.917-12.309,6.015-18.418l7.664-22.317c3.175-9.245,8.533-15.758,17.916-18.992,8.108-2.8,18.18-3.56,26.067.352,8.766,4.349,12.936,19.166,17.2,27.084,3.732,6.938,8.437,25.863,9.834,33.343,1.682,9,3.235,17.964,4.458,26.9a276.06,276.06,0,0,1,2.586,29.579C183.486,513.173,183.705,516.206,183.827,519.83Z" fill="#004554"/>
        <path id="Path_67" data-name="Path 67" d="M140.519,396.489l-16.191.154s-17.375,60.718-18.013,71.183c-.627,10.274-5.018,51.929-5.018,51.929s17.931.423,38.592,2.94c20.2,4.322,21.9,1.766,21.9,1.766s-10.9-43.781-11.263-56.36c-.37-12.866-2.017-55.359-2.017-55.359Z" fill="#fff"/>
        <path id="Path_68" data-name="Path 68" d="M138.173,397.481H130.2a2.248,2.248,0,0,0-1.787,3.611l3.272,4.289L122.98,485.7,133.7,496.229l7.367-12.509-2.009-78.339,1.3-5.1A2.247,2.247,0,0,0,138.173,397.481Z" fill="#8a2d87"/>
        <g id="Group_19" data-name="Group 19">
          <path id="Path_69" data-name="Path 69" d="M130.7,396.8a1.933,1.933,0,0,0,.663.379,3.676,3.676,0,0,0,1.574.043l6.426-.761c-.706-6.559,3.128-8.042,6.864-12.261,3.787-4.276,2.621-10.042,2.409-15.276a11.134,11.134,0,0,0-.749-4.281c-1.081-2.321-3.6-3.6-6.044-4.362-6.238-1.938-13.373-1.461-18.866,2.075a9.986,9.986,0,0,0-3.619,3.672c-1.221,2.386-.91,5.234-.57,7.893a26.609,26.609,0,0,0,4.044,11.545c2.153,3.21,6.258,4.747,6.73,8.6A4.358,4.358,0,0,0,130.7,396.8Z" fill="#f5c3a1"/>
          <path id="Path_70" data-name="Path 70" d="M154.955,346.042a14.876,14.876,0,0,0-4.524-4.76c-4.25-2.592-10.166-2.83-14.744-4.607-6.44-2.5-9.713-.246-15.793,1.707-2.431.78-5.225,1.458-6.512,3.761-.711,1.272-.816,2.841-1.534,4.109-.924,1.633-2.678,2.485-4.2,3.513a5.867,5.867,0,0,0-2.579,4.931c-.132,4.219,3.056,11.072,6.977,12.792a8.425,8.425,0,0,0,2.5.625c.947,2.626,2.628,5.158,5.159,6.017.4-1.639-.368-3.307-.733-4.956a4.639,4.639,0,0,1-.083-1.281,36.642,36.642,0,0,0,8.031-2.531c4.477-1.955,13.2-4.037,17.844-1.729,3.676,1.826,2.548,7.646,2.363,11.327a10.07,10.07,0,0,0,.1,2.83c.3,1.277,1.271,1.995,1.461,3.295,3.009-1.351,4.83-4.746,6.53-7.505a28.468,28.468,0,0,0,2.271-4.387C160.278,362.192,159.248,352.754,154.955,346.042Z" fill="#31368c"/>
        </g>
      </g>
      <path id="Path_71" data-name="Path 71" d="M119.341,396.2l-38.513-.551,3.736-41.281-12.411-4.513-14.966,49.76,7.023,15.011L107.194,427.2Z" fill="#004554"/>
      <path id="Path_72" data-name="Path 72" d="M145.713,394.341l41.1-12.114L171.6,330.838l12.537-8.992L214.4,381.336l-8.369,20.6-39.273,20.271Z" fill="#004554"/>
    </g>
    <g id="Group_34" data-name="Group 34" transform="translate(-16.67)">
      <g id="Group_26" data-name="Group 26">
        <path id="Path_129" data-name="Path 129" d="M9247.313,670.076c36.936-5.46,61.887,8.381,170.09,4.4,20.578,11.815,27.425,32.56-13.294,21.838s-105.37,0-134.447,0S9210.377,675.535,9247.313,670.076Z" transform="translate(-8890.197 45.532)" fill="#e0e0e0"/>
        <path id="Path_73" data-name="Path 73" d="M502.483,499.592V721.824a6.79,6.79,0,0,1-6.8,6.779H379.046a6.785,6.785,0,0,1-6.779-6.779V499.592a6.8,6.8,0,0,1,6.779-6.8H495.68A6.808,6.808,0,0,1,502.483,499.592Z" fill="#03a1b5"/>
        <path id="Path_74" data-name="Path 74" d="M502.472,499.6v16.564h-130.2V499.6a6.8,6.8,0,0,1,6.781-6.8H495.691A6.8,6.8,0,0,1,502.472,499.6Z" fill="#03a1b5"/>
        <g id="Group_23" data-name="Group 23">
          <g id="Group_22" data-name="Group 22">
            <path id="Path_75" data-name="Path 75" d="M437.371,722.773h0a6.38,6.38,0,0,1-6.38-6.381h0a6.379,6.379,0,0,1,6.38-6.38h0a6.381,6.381,0,0,1,6.381,6.38h0A6.381,6.381,0,0,1,437.371,722.773Z" fill="#e2f1e6"/>
          </g>
        </g>
        <g id="Group_25" data-name="Group 25">
          <g id="Group_24" data-name="Group 24">
            <path id="Path_76" data-name="Path 76" d="M413.8,506.87h0a2.593,2.593,0,0,1-2.592-2.592h0a2.594,2.594,0,0,1,2.592-2.593h0a2.594,2.594,0,0,1,2.593,2.593h0A2.594,2.594,0,0,1,413.8,506.87Z" fill="#e2f1e6"/>
          </g>
        </g>
        <path id="Path_77" data-name="Path 77" d="M450.458,505.234h-25.79a.956.956,0,0,1,0-1.912h25.79a.956.956,0,0,1,0,1.912Z" fill="#e2f1e6"/>
        <rect id="Rectangle_22" data-name="Rectangle 22" width="125.363" height="187.061" transform="translate(374.686 516.165)" fill="#c7eaf6"/>
      </g>
      <g id="Group_27" data-name="Group 27">
        <rect id="Rectangle_23" data-name="Rectangle 23" width="22.737" height="7.186" transform="translate(384.773 594.951)" fill="#e9f5f1"/>
        <rect id="Rectangle_24" data-name="Rectangle 24" width="22.737" height="7.186" transform="translate(442.679 594.951)" fill="#e9f5f1"/>
        <rect id="Rectangle_25" data-name="Rectangle 25" width="22.737" height="7.186" transform="translate(413.726 594.951)" fill="#e9f5f1"/>
      </g>
      <g id="Group_33" data-name="Group 33">
        <g id="Group_28" data-name="Group 28" transform="translate(-54 159)">
          <rect id="Rectangle_26" data-name="Rectangle 26" width="91.75" height="25.197" transform="translate(278.359 391.321)" fill="#00bcd4"/>
          <path id="Path_127" data-name="Path 127" d="M0,0H17.9V17.9H0Z" transform="translate(348.175 394.968)" fill="#02889a"/>
          <rect id="Rectangle_28" data-name="Rectangle 28" width="38.753" height="3.454" transform="translate(273.609 396.052)" fill="#02889a"/>
          <rect id="Rectangle_29" data-name="Rectangle 29" width="38.753" height="3.452" transform="translate(273.609 402.193)" fill="#02889a"/>
          <rect id="Rectangle_30" data-name="Rectangle 30" width="26.093" height="3.454" transform="translate(273.609 408.331)" fill="#02889a"/>
        </g>
        <g id="Group_29" data-name="Group 29">
          <rect id="Rectangle_31" data-name="Rectangle 31" width="67.057" height="31.464" transform="translate(482.207 279.983)" fill="#add3c6"/>
          <rect id="Rectangle_32" data-name="Rectangle 32" width="34.213" height="3.454" transform="translate(490.906 284.716)" fill="#dd5546"/>
          <rect id="Rectangle_33" data-name="Rectangle 33" width="26.093" height="3.454" transform="translate(490.906 290.854)" fill="#dd5546"/>
          <rect id="Rectangle_34" data-name="Rectangle 34" width="17.597" height="3.452" transform="translate(490.906 296.995)" fill="#dd5546"/>
          <rect id="Rectangle_35" data-name="Rectangle 35" width="10.488" height="3.452" transform="translate(510.678 296.995)" fill="#fff"/>
          <rect id="Rectangle_36" data-name="Rectangle 36" width="23.789" height="3.454" transform="translate(490.906 303.134)" fill="#dd5546"/>
        </g>
        <g id="Group_31" data-name="Group 31">
          <rect id="Rectangle_37" data-name="Rectangle 37" width="98.621" height="80.476" transform="translate(361.902 622.785)" fill="#9c27b0" opacity="0.104"/>
          <g id="Group_30" data-name="Group 30">
            <circle id="Ellipse_8" data-name="Ellipse 8" cx="25.278" cy="25.278" r="25.278" transform="translate(385.934 637.744)" fill="#00bcd4"/>
            <path id="Path_78" data-name="Path 78" d="M430.365,663.018a19.14,19.14,0,0,1-14.743,18.65c-.473.113-.949.2-1.435.28a18.328,18.328,0,0,1-2.974.234,19.417,19.417,0,0,1-5.689-.86,19.159,19.159,0,0,1-4.913-34.249,18.835,18.835,0,0,1,7.077-2.882,19.157,19.157,0,0,1,21.372,11.9A18.787,18.787,0,0,1,430.365,663.018Z" fill="#ebf1f1"/>
            <path id="Path_79" data-name="Path 79" d="M411.213,665.238A2.216,2.216,0,0,1,409,663.023V650.756a2.215,2.215,0,0,1,4.431,0v12.267A2.215,2.215,0,0,1,411.213,665.238Z" fill="#b6cec5"/>
            <path id="Path_80" data-name="Path 80" d="M411.215,665.238a2.215,2.215,0,0,1-1.179-4.092l6.368-4a2.215,2.215,0,0,1,2.353,3.754l-6.368,4A2.2,2.2,0,0,1,411.215,665.238Z" fill="#b6cec5"/>
          </g>
          <path id="Path_81" data-name="Path 81" d="M462.17,516.165l-87.484,87.484V556.621l40.459-40.456Z" fill="#f2fafd" opacity="0.3"/>
          <path id="Path_82" data-name="Path 82" d="M494.921,516.165,374.686,636.386V612.873l96.723-96.708Z" fill="#f2fafd" opacity="0.3"/>
        </g>
        <g id="Group_32" data-name="Group 32" opacity="0.7">
          <rect id="Rectangle_38" data-name="Rectangle 38" width="48.498" height="48.498" transform="translate(555.944 279.983)" fill="#d9afe0"/>
          <path id="Path_83" data-name="Path 83" d="M580.192,306.42h0a6.173,6.173,0,0,1-6.175-6.174v-3.707a6.176,6.176,0,0,1,6.175-6.177h0a6.178,6.178,0,0,1,6.177,6.177v3.707A6.175,6.175,0,0,1,580.192,306.42Z" fill="#f7fbf8"/>
          <path id="Path_84" data-name="Path 84" d="M580.192,303.247a14.574,14.574,0,0,0-13.179,8.35,4.352,4.352,0,0,0,3.919,6.22h18.521a4.351,4.351,0,0,0,3.918-6.22A14.573,14.573,0,0,0,580.192,303.247Z" fill="#f7fbf8"/>
        </g>
        <rect id="Rectangle_39" data-name="Rectangle 39" width="14.456" height="94.979" transform="translate(474.432 527.806)" fill="#00bcd4"/>
      </g>
      <path id="Path_85" data-name="Path 85" d="M501.527,583.9h0v-34.71h0a2.839,2.839,0,0,1,2.839,2.838v29.033A2.839,2.839,0,0,1,501.527,583.9Z" fill="#55b37d"/>
    </g>
    <g id="Group_47" data-name="Group 47" transform="translate(-16.67)">
      <g id="Group_46" data-name="Group 46">
        <g id="Group_42" data-name="Group 42">
          <g id="Group_35" data-name="Group 35">
            <path id="Path_86" data-name="Path 86" d="M374.413,362.137a4.951,4.951,0,0,0-.764-2.417,1.574,1.574,0,0,0-2.238-.353c-1.462,1.463-.841,1.611-2.839,1.248-2.945-.535-5.347-3.927-7.737-1.291-2.325,2.564-.443,3.646,1.962,4.765,1.892.884,4,1.659,5.443,3.246.947,1.044,3.735,5.546,3.735,6.768a1.415,1.415,0,0,0,.494.58,1.331,1.331,0,0,0,1.294-.249C378.729,371.257,375.088,366.8,374.413,362.137Z" fill="#f3c3a1"/>
            <path id="Path_87" data-name="Path 87" d="M392.547,388.711c-3.959-5.423-7.008-11.592-11.1-16.821-1.961-2.505-1.895-3.505-5.382-3.819-.87-.078-8.055,1.862-7.9,2.49a308.457,308.457,0,0,0,12.825,39.9c3.1,7.773,8.5,5.594,15.884,5.5l23.659-.3c4.335-.054,9.255-.375,12.009-3.723,3.177-3.863,4.965-11.476,4.4-16.315-1.009-8.592-7.215-7.976-13.975-6.941L399.954,392.2a7.282,7.282,0,0,1-4.245-.2,7.088,7.088,0,0,1-2.38-2.246Q392.931,389.239,392.547,388.711Z" fill="#d4a6cc"/>
          </g>
          <g id="Group_39" data-name="Group 39">
            <path id="Path_88" data-name="Path 88" d="M396.944,503.169c.842-7.279,4.49-13.057,11.23-16.22,5.466-2.566,11.61-3.17,17.6-3.939,13.339-1.712,26.073-3.422,39.542-2.893,10.77.423,17.408,9.613,22.449,18.676,3.177,5.712,2.295,8.391-1.7,13.174a48.339,48.339,0,0,1-13.163,11c-9.9,5.625-25.1,4.235-36.006,3.02a84.112,84.112,0,0,1-29.537-9.013C401.449,513.893,396.124,510.256,396.944,503.169Z" fill="#001928"/>
            <path id="Path_89" data-name="Path 89" d="M463.745,525.3a127.332,127.332,0,0,1,4.676,12.815,21.709,21.709,0,0,1,1.257,7.077c-.208,5.631-6.475,9.713-10.573,4.5a28.294,28.294,0,0,1-4.251-7.56c-1.5-4.008,1.67-1.673,4.35-2.9,3.086-1.418,3.012-2.52,1.7-5.412-1.688-3.726-3.686-6.154-3.446-10.439.067-1.184.4-2.557,1.492-3.02a2.4,2.4,0,0,1,2.477.6,6.779,6.779,0,0,1,1.416,2.273Q463.3,524.262,463.745,525.3Z" fill="#002340"/>
            <path id="Path_90" data-name="Path 90" d="M443.565,386.9c-5.073-.676-10.224-1.6-14.474.257-3.6,1.569-3.538,6.114-4.342,9.55-2.663,11.368-4.664,22.873-6.231,34.44-.749,5.531-2.044,11.452-2.012,17.038.026,4.482,1.149,8.839.8,13.407-.265,3.509-1.757,7.3-4.971,8.732-1.617.722-3.474.756-5.1,1.471s-3.008,2.622-2.192,4.194a4.362,4.362,0,0,0,1.9,1.608l12.025,6.7a64.218,64.218,0,0,0,9.438,4.607,50.756,50.756,0,0,0,14.631,2.5,120.467,120.467,0,0,0,38.088-4.178c6.657-1.837,13.088-5.1,11.473-12.627-1.662-7.752-4.877-15.486-8.343-22.584-4.2-8.593-5.44-18.948-8.412-28.016-2.759-8.415-5.55-16.846-8.605-25.159-1.5-4.082-4.154-7.908-8.076-9.971C454.32,386.324,448.822,387.6,443.565,386.9Z" fill="#d4a6cc"/>
            <g id="Group_38" data-name="Group 38">
              <path id="Path_91" data-name="Path 91" d="M421.109,527.567l-3.464.185c-1.254.067-2.653.086-3.587-.754a3.212,3.212,0,0,1-.089-4.186,7.539,7.539,0,0,1,3.87-2.346,41.037,41.037,0,0,1,10.95-1.623,2.65,2.65,0,0,1,1.1.114,2.266,2.266,0,0,1,1.143,1.487C433.128,526.817,425.6,527.327,421.109,527.567Z" fill="#f3c3a1"/>
              <g id="Group_37" data-name="Group 37">
                <path id="Path_92" data-name="Path 92" d="M465.542,538.415a2.782,2.782,0,0,1-.1,1.528,2.019,2.019,0,0,1-.772.8c-2.381,1.518-5.583-.117-7.406-2.273s-3.057-4.885-5.383-6.487c-5.322-3.667-.45-10.38,5.113-8.84C463.486,524.943,464.849,532.744,465.542,538.415Z" fill="#f3c3a1"/>
                <g id="Group_36" data-name="Group 36">
                  <path id="Path_93" data-name="Path 93" d="M393.817,503.848c-4.6-3.377-9.2-7.2-10.884-12.894s.69-13.723,6.62-17c7.23-4,14.332.916,19.488,5.556,10.56,9.493,22.07,17.886,33.322,26.569,3.8,2.935,17,13.74,17,13.74.363,1.522-6.728,15.3-8.608,14.8C430.225,529.184,410.259,515.93,393.817,503.848Z" fill="#002340"/>
                  <path id="Path_94" data-name="Path 94" d="M497.131,510.392c4.5-2.191,9.027-4.829,10.806-10.091s-.243-13.919-5.818-18.74c-6.8-5.878-13.741-2.8-18.816.513-10.393,6.769-21.661,12.19-32.692,17.969C446.882,502,433.93,509.4,433.93,509.4c-.393,1.431,5.973,17.065,7.787,17.047C461.524,526.327,481.031,518.229,497.131,510.392Z" fill="#002340"/>
                </g>
              </g>
            </g>
            <path id="Path_95" data-name="Path 95" d="M428.849,530.348a128.8,128.8,0,0,1-12.707,5.358,21.982,21.982,0,0,1-7.083,1.621c-5.7.069-10.129-6.056-5.074-10.452a28.614,28.614,0,0,1,7.422-4.668c3.972-1.716,1.772,1.6,3.149,4.248,1.584,3.045,2.693,2.916,5.548,1.449,3.678-1.89,6.03-4.027,10.37-4,1.2.008,2.6.277,3.123,1.356a2.424,2.424,0,0,1-.487,2.531,6.878,6.878,0,0,1-2.225,1.543Q429.871,529.851,428.849,530.348Z" fill="#002340"/>
          </g>
          <g id="Group_40" data-name="Group 40">
            <path id="Path_96" data-name="Path 96" d="M384.3,483.85l58.3-18.331,72.106,3.71-40.793,17.993Z" fill="#d6d3e4"/>
            <path id="Path_97" data-name="Path 97" d="M384.492,478.808l-2.177-56.618,89.114,2.233L474,484.97Z" fill="#8a989f"/>
            <path id="Path_98" data-name="Path 98" d="M513.468,469.15,474.136,484.9c-.048.02-.088.048-.133.071l.105-2.791-89.616-3.373-.189,5.042,88.738,3.339a1.314,1.314,0,0,0,1.834,1.111l39.332-15.752C516.146,471.772,515.436,468.362,513.468,469.15Z" fill="#8a989f"/>
          </g>
          <g id="Group_41" data-name="Group 41">
            <path id="Path_99" data-name="Path 99" d="M475.042,465.611c-.43.3-.914.66-.957,1.194a1.656,1.656,0,0,0,.333.977,4.367,4.367,0,0,0,2.2,1.987,2.009,2.009,0,0,0,2.5-1.068c.936,1.473.06,3.492-1.182,4.7s-2.843,2.042-3.838,3.473a10.961,10.961,0,0,0-1.413,3.775A10.121,10.121,0,0,0,483.865,476a20.944,20.944,0,0,0,1.8-4.769l2.556-8.912c-2.225-1.549-4.224-3.754-6.891-2.706C479.279,460.416,477.019,464.232,475.042,465.611Z" fill="#f3c3a1"/>
            <path id="Path_100" data-name="Path 100" d="M490.765,431.671c3.273,6.333,6.213,13.079,6.422,20.205s-2.86,14.74-9.117,18.156c-1.738-3.833-5.132-6.662-7.27-10.287-5.44-9.225-1.739-21.279-5.175-31.423-1.9-5.625-5.824-10.1-9.188-14.879a64.2,64.2,0,0,1-4.777-7.8c-.82-1.6-3.356-4.874-3.736-6.337a5.527,5.527,0,0,1,.352-3.083c.534-1.6,1.37-3.333,2.971-3.871,1.732-.581,3.573.5,4.919,1.734,4.805,4.406,7.713,12.074,11.429,17.5C482.119,418.2,487.074,424.531,490.765,431.671Z" fill="#d4a6cc"/>
          </g>
        </g>
        <g id="Group_45" data-name="Group 45">
          <g id="Group_44" data-name="Group 44">
            <g id="Group_43" data-name="Group 43">
              <path id="Path_101" data-name="Path 101" d="M449.528,391.643a3.409,3.409,0,0,1-.627.585,8.75,8.75,0,0,1-3.5,1.235,10.2,10.2,0,0,1-4.809.177c-5.058-1.47-2.766-10.128-2.217-13.722-3.282-1.208-7.066-3.05-7.567-6.886a12.346,12.346,0,0,1,.266-3.669q1.314-7.543,2.627-15.087a15.038,15.038,0,0,1,1.5-5.037c1.535-2.643,4.439-3.858,7.179-4.457,6.992-1.528,14.55-.046,19.851,4.894a11.254,11.254,0,0,1,3.274,4.862c.917,3.016.121,6.39-.677,9.534q-1.105,4.353-2.21,8.705c-.847,3.338-2.05,7.138-4.945,8.457-1.537.7-3.332.554-4.731,1.567C450.008,384.925,451.458,389.328,449.528,391.643Z" fill="#f3c3a1"/>
            </g>
            <path id="Path_102" data-name="Path 102" d="M440.545,349.947a5.037,5.037,0,0,0-.568.777c-.851,1.445-.842,3.273-1.681,4.725-1.332,2.3-4.514,3.206-5.467,5.69-.78,2.031.254,4.319-.054,6.472-.337,2.353-2.27,4.254-2.5,6.6a15.509,15.509,0,0,0,1.367,6.931c-.269-.57-3.643-1.066-4.4-1.77a3.575,3.575,0,0,1-1.328-3.081c-.115-1.452.461-2.744.134-4.274-.4-1.876-1.686-3.453-1.854-5.4-.23-2.659,1.64-5.038,2.063-7.674.64-3.989-2.028-8.406-.028-11.917,1.173-2.059,3.6-3.037,5.2-4.781a30.475,30.475,0,0,0,2.881-4.552c.967-1.518,2.39-2.945,4.183-3.1a29.5,29.5,0,0,1,2.984.245c1.728.026,3.343-.844,5.058-1.063,2.452-.314,6.034,2.824,6.981,5.04.941,2.2-.061,3.706-1.765,5.139C448.914,346.332,443.066,347.09,440.545,349.947Z" fill="#002340"/>
          </g>
          <path id="Path_103" data-name="Path 103" d="M475.588,345.146c1.173,1.287,2.724,2.358,3.743,3.791,1.986,2.794,1.71,6.565,1.121,9.942-.524,3.006.248,5.927-.7,8.979a7.786,7.786,0,0,1-3.909,4.879c-2.432,1.111-5.813.692-7.252,2.945-1.564,2.448.512,6.345-1.622,8.315-1.178,1.087-3.02.909-4.511,1.5-1.662.658-2.761,2.209-3.962,3.533s-2.853,2.559-4.613,2.243c.467-2.679.813-4.806,2.443-7.014.949-1.285,3.43-3.511,2.24-5.35-.688-1.469-2.836-2.335-2.574-3.935a3.748,3.748,0,0,1,1.309-1.822,9.327,9.327,0,0,0,2.349-8.172,12.126,12.126,0,0,0-4.673-7.271c-2.75-2.09-2.109-2.736-2.406-5.832-.274-2.849-1.67-3.786-3.89-5.253-1.993-1.316-2.581-2-2.972-4.2-.286-1.6-.649-3.53.536-5.017a10.212,10.212,0,0,1,3.707-2.541c2.839-1.38,6-2.8,9.043-1.95,1.689.469,3.14,1.6,4.836,2.043,1.131.3,2.32.272,3.474.465a9.292,9.292,0,0,1,5.253,2.819c1.359,1.5,1.066,2.713,1.617,4.557A6.085,6.085,0,0,0,475.588,345.146Z" fill="#002340"/>
          <path id="Path_104" data-name="Path 104" d="M467.361,332.8c.075-1.917.755-4.3,2.655-4.566,1.04-.148,2.053.448,3.1.446,2.24,0,3.5-2.462,5.006-4.118a1.659,1.659,0,0,1,.812-.566,2.7,2.7,0,0,1,1.381.315c2.089.693,4.143-1.092,6.314-1.451a5.164,5.164,0,0,1,5.748,4.462c.1,1.116-.185,2.236-.109,3.352.311,4.524,6.221,7.614,5.484,12.088-.5,3.024-4.016,5.307-3.434,8.316.372,1.923,2.413,3.6,1.768,5.446a2.7,2.7,0,0,1-3.119,1.494,5.427,5.427,0,0,1-3-2.174c-1.217-1.588-2-3.468-3.129-5.118s-2.785-3.136-4.78-3.286c-1.933-.144-3.935.979-5.745.287-1.448-.553-2.291-2.114-3.687-2.788-1.306-.63-2.847-.378-4.283-.578s-3.031-1.291-2.782-2.72a3.575,3.575,0,0,0,.186-1.031c-.118-.978-1.693-1.24-1.8-2.219.971-.992,1.933-.372,2.765-1.757A8.364,8.364,0,0,0,467.361,332.8Z" fill="#002340"/>
        </g>
      </g>
    </g>
    <g id="Group_48" data-name="Group 48" transform="matrix(-0.966, -0.259, 0.259, -0.966, 575.964, 502.703)">
      <path id="Path_105" data-name="Path 105" d="M239.225,304.233a3.632,3.632,0,1,1-3.632-3.634A3.633,3.633,0,0,1,239.225,304.233Z" fill="#4eb69d"/>
      <path id="Path_106" data-name="Path 106" d="M216.55,303.243a9.187,9.187,0,1,1,9.186-9.187A9.2,9.2,0,0,1,216.55,303.243Zm0-13.579a4.393,4.393,0,1,0,4.392,4.392A4.4,4.4,0,0,0,216.55,289.664Z" fill="#9c27b0"/>
      <path id="Path_107" data-name="Path 107" d="M481.149,123.212h-3.087V126.3a2.528,2.528,0,0,1-5.056,0v-3.088h-3.088a2.528,2.528,0,0,1,0-5.057h3.088V115.07a2.528,2.528,0,0,1,5.056,0v3.085h3.087a2.529,2.529,0,0,1,0,5.057Z" fill="#00bcd4"/>
      <path id="Path_108" data-name="Path 108" d="M505.994,107.165a3.632,3.632,0,1,1-3.631-3.633A3.632,3.632,0,0,1,505.994,107.165Z" fill="#1c4172"/>
    </g>
    <g id="Group_49" data-name="Group 49">
      <path id="Path_109" data-name="Path 109" d="M42.53,470.249a3.632,3.632,0,1,1,3.634-3.632A3.632,3.632,0,0,1,42.53,470.249Z" fill="#4eb69d"/>
      <path id="Path_110" data-name="Path 110" d="M43.52,447.574a9.187,9.187,0,1,1,9.186,9.187A9.2,9.2,0,0,1,43.52,447.574Zm13.579,0a4.392,4.392,0,1,0-4.393,4.392A4.4,4.4,0,0,0,57.1,447.574Z" fill="#9c27b0"/>
      <path id="Path_111" data-name="Path 111" d="M223.55,712.173v-3.087h-3.087a2.528,2.528,0,1,1,0-5.056h3.087v-3.088a2.528,2.528,0,0,1,5.057,0v3.088h3.085a2.528,2.528,0,1,1,0,5.056h-3.085v3.087a2.528,2.528,0,0,1-5.057,0Z" fill="#f0def3"/>
      <path id="Path_112" data-name="Path 112" d="M239.6,737.019a3.633,3.633,0,1,1,3.632-3.632A3.632,3.632,0,0,1,239.6,737.019Z" fill="#1c4172"/>
    </g>
    <g id="Group_50" data-name="Group 50" transform="translate(18.301 -51.082)">
      <path id="Path_113" data-name="Path 113" d="M540.569,576.791a2.988,2.988,0,1,1-2.99,2.988A2.988,2.988,0,0,1,540.569,576.791Z" transform="translate(-34.92 -47.271)" fill="#4eb69d"/>
      <path id="Path_114" data-name="Path 114" d="M536.967,597.838a7.559,7.559,0,1,1-7.558-7.559A7.568,7.568,0,0,1,536.967,597.838Zm-11.173,0a3.614,3.614,0,1,0,3.615-3.615A3.619,3.619,0,0,0,525.794,597.838Z" transform="translate(-32.133 -49.661)" fill="#3c4858"/>
      <path id="Path_115" data-name="Path 115" d="M358.3,334.419v2.54h2.541a2.08,2.08,0,1,1,0,4.159H358.3v2.542a2.08,2.08,0,1,1-4.16,0v-2.542H351.6a2.08,2.08,0,1,1,0-4.159h2.538v-2.54a2.08,2.08,0,1,1,4.16,0Z" transform="translate(-1.597 -3.955)" fill="#00bcd4"/>
      <path id="Path_116" data-name="Path 116" d="M343.5,310.021a2.989,2.989,0,1,1-2.989,2.988A2.988,2.988,0,0,1,343.5,310.021Z" fill="#1c4172"/>
    </g>
    <g id="Group_56" data-name="Group 56" opacity="0.7">
      <path id="Path_117" data-name="Path 117" d="M555.689,200.241l10.4-7.458,5.188-3.721a2.62,2.62,0,0,0,.606-3.652l-26.2-36.532a2.621,2.621,0,0,0-3.654-.6L536.838,152l-64.417,46.2a2.615,2.615,0,0,0-.6,3.649l26.2,36.531a2.616,2.616,0,0,0,3.648.6l43.255-31.025a1.091,1.091,0,0,0,1.261-.006l9.093-6.522A1.094,1.094,0,0,0,555.689,200.241Z" fill="url(#linear-gradient-19)"/>
      <g id="Group_55" data-name="Group 55">
        <g id="Group_52" data-name="Group 52">
          <g id="Group_51" data-name="Group 51">
            <path id="Path_118" data-name="Path 118" d="M486.748,218.808h0a2.46,2.46,0,0,1,.565-3.432h0a2.458,2.458,0,0,1,3.431.565h0a2.458,2.458,0,0,1-.564,3.431h0A2.46,2.46,0,0,1,486.748,218.808Z" fill="#e2f1e6"/>
          </g>
        </g>
        <g id="Group_54" data-name="Group 54">
          <g id="Group_53" data-name="Group 53">
            <path id="Path_119" data-name="Path 119" d="M549.077,162.924h0a1,1,0,0,1,.23-1.394h0a1,1,0,0,1,1.394.23h0a1,1,0,0,1-.229,1.394h0A1,1,0,0,1,549.077,162.924Z" fill="#e2f1e6"/>
          </g>
        </g>
        <path id="Path_120" data-name="Path 120" d="M557.824,174.038l-5.793-8.079a.368.368,0,1,1,.6-.429l5.794,8.078a.369.369,0,0,1-.6.43Z" fill="#e2f1e6"/>
        <rect id="Rectangle_40" data-name="Rectangle 40" width="72.102" height="48.321" transform="matrix(0.813, -0.583, 0.583, 0.813, 478.788, 194.783)" fill="url(#linear-gradient-20)"/>
      </g>
      <path id="Path_121" data-name="Path 121" d="M557.032,180.161l-47.054-7.748,14.729-10.564,21.761,3.583Z" fill="#f2fafd" opacity="0.3"/>
      <path id="Path_122" data-name="Path 122" d="M564.389,190.42l-64.665-10.653,7.364-5.282,52.019,8.57Z" fill="#f2fafd" opacity="0.3"/>
    </g>
    <g id="Group_57" data-name="Group 57">
      <rect id="Rectangle_41" data-name="Rectangle 41" width="50.779" height="23.826" transform="translate(537.579 403.255)" fill="url(#linear-gradient-21)"/>
      <rect id="Rectangle_42" data-name="Rectangle 42" width="25.908" height="2.615" transform="translate(544.167 406.838)" fill="#fff"/>
      <rect id="Rectangle_43" data-name="Rectangle 43" width="19.759" height="2.615" transform="translate(544.167 411.488)" fill="#fff"/>
      <rect id="Rectangle_44" data-name="Rectangle 44" width="13.325" height="2.614" transform="translate(544.167 416.137)" fill="#fff"/>
      <rect id="Rectangle_45" data-name="Rectangle 45" width="7.942" height="2.614" transform="translate(559.139 416.137)" fill="#ec4a3a"/>
      <rect id="Rectangle_46" data-name="Rectangle 46" width="18.015" height="2.615" transform="translate(544.167 420.785)" fill="#fff"/>
    </g>
    <g id="Group_59" data-name="Group 59" transform="translate(224.938 647.532)">
      <g id="Group_60" data-name="Group 60" transform="translate(1.175 -229.188)" clip-path="url(#clip-path)">
        <g id="Group_59-2" data-name="Group 59" transform="translate(-502.833 -54.548)" clip-path="url(#clip-path-2)">
          <path id="Path_135" data-name="Path 135" d="M1.175-229.188H108.929V-151H1.175Z" transform="translate(501.658 283.736)" fill="#fef8ff"/>
        </g>
      </g>
      <g id="Group_63" data-name="Group 63" transform="translate(1.175 -229.188)" clip-path="url(#clip-path)">
        <g id="Group_62" data-name="Group 62" transform="translate(-502.833 -54.548)" clip-path="url(#clip-path-2)">
          <g id="Group_61" data-name="Group 61" transform="translate(502.833 54.548)">
            <path id="Path_138" data-name="Path 138" d="M0,0H107.754V78.188H0Z" fill="none" stroke="rgba(23,148,199,0.41)" stroke-width="4"/>
          </g>
        </g>
      </g>
      <g id="Group_65" data-name="Group 65" transform="translate(1.175 -229.188)" clip-path="url(#clip-path-5)">
        <g id="Group_64" data-name="Group 64" transform="translate(-502.833 -54.548)" clip-path="url(#clip-path-2)">
          <path id="Path_141" data-name="Path 141" d="M-3.825-234.188H107.342v14.43H-3.825Z" transform="translate(504.952 287.03)" fill="#9ed3e7"/>
        </g>
      </g>
      <g id="Group_67" data-name="Group 67" transform="translate(3.601 -226.09)" clip-path="url(#clip-path-7)">
        <g id="Group_66" data-name="Group 66" transform="translate(-505.26 -57.646)" clip-path="url(#clip-path-2)">
          <path id="Path_144" data-name="Path 144" d="M3.284-225.111h8.233v8.233H3.284Z" transform="translate(500.269 281.05)" fill="#d3f2ff"/>
        </g>
      </g>
      <g id="Group_69" data-name="Group 69" transform="translate(10.919 -226.09)" clip-path="url(#clip-path-9)">
        <g id="Group_68" data-name="Group 68" transform="translate(-512.577 -57.646)" clip-path="url(#clip-path-2)">
          <path id="Path_147" data-name="Path 147" d="M24.723-225.111h8.233v8.233H24.723Z" transform="translate(486.148 281.05)" fill="#d3f2ff"/>
        </g>
      </g>
      <g id="Group_71" data-name="Group 71" transform="translate(18.236 -226.09)" clip-path="url(#clip-path-11)">
        <g id="Group_70" data-name="Group 70" transform="translate(-519.895 -57.646)" clip-path="url(#clip-path-2)">
          <path id="Path_150" data-name="Path 150" d="M46.162-225.111h8.233v8.233H46.162Z" transform="translate(472.027 281.05)" fill="#d3f2ff"/>
        </g>
      </g>
      <g id="Group_73" data-name="Group 73" transform="translate(12.689 -211.867)" clip-path="url(#clip-path-13)">
        <g id="Group_72" data-name="Group 72" transform="translate(-514.348 -71.869)" clip-path="url(#clip-path-14)">
          <path id="Path_153" data-name="Path 153" d="M29.91-183.443H65.963v9.9H29.91Z" transform="translate(482.731 253.605)" fill="#c4a5c9"/>
        </g>
      </g>
      <g id="Group_75" data-name="Group 75" transform="translate(12.689 -173.544)" clip-path="url(#clip-path-15)">
        <g id="Group_74" data-name="Group 74" transform="translate(-514.348 -110.192)" clip-path="url(#clip-path-14)">
          <path id="Path_156" data-name="Path 156" d="M29.91-71.165H65.963v9.9H29.91Z" transform="translate(482.731 179.65)" fill="#c4a5c9"/>
        </g>
      </g>
      <g id="Group_77" data-name="Group 77" transform="translate(21.17 -200.718)" clip-path="url(#clip-path-17)">
        <g id="Group_76" data-name="Group 76" transform="translate(-522.828 -83.018)" clip-path="url(#clip-path-14)">
          <path id="Path_159" data-name="Path 159" d="M54.756-150.777H82.328v25.923H54.756Z" transform="translate(466.366 232.089)" fill="#c4a5c9"/>
        </g>
      </g>
      <g id="Group_79" data-name="Group 79" transform="translate(12.689 -200.718)" clip-path="url(#clip-path-19)">
        <g id="Group_78" data-name="Group 78" transform="translate(-514.348 -83.018)" clip-path="url(#clip-path-14)">
          <path id="Path_162" data-name="Path 162" d="M29.91-150.777H40.065v25.923H29.91Z" transform="translate(482.731 232.089)" fill="#c4a5c9"/>
        </g>
      </g>
      <g id="Group_81" data-name="Group 81" transform="translate(64.088 -211.867)" clip-path="url(#clip-path-21)">
        <g id="Group_80" data-name="Group 80" transform="translate(-565.747 -71.869)" clip-path="url(#clip-path-14)">
          <path id="Path_165" data-name="Path 165" d="M180.5-183.443h36.053v9.9H180.5Z" transform="translate(383.545 253.605)" fill="#c4a5c9"/>
        </g>
      </g>
      <g id="Group_83" data-name="Group 83" transform="translate(64.088 -173.544)" clip-path="url(#clip-path-23)">
        <g id="Group_82" data-name="Group 82" transform="translate(-565.747 -110.192)" clip-path="url(#clip-path-14)">
          <path id="Path_168" data-name="Path 168" d="M180.5-71.165h36.053v9.9H180.5Z" transform="translate(383.545 179.65)" fill="#c4a5c9"/>
        </g>
      </g>
      <g id="Group_85" data-name="Group 85" transform="translate(72.569 -200.718)" clip-path="url(#clip-path-25)">
        <g id="Group_84" data-name="Group 84" transform="translate(-574.227 -83.018)" clip-path="url(#clip-path-14)">
          <path id="Path_171" data-name="Path 171" d="M205.341-150.777h27.572v25.923H205.341Z" transform="translate(367.179 232.089)" fill="#c4a5c9"/>
        </g>
      </g>
      <g id="Group_87" data-name="Group 87" transform="translate(64.088 -200.718)" clip-path="url(#clip-path-27)">
        <g id="Group_86" data-name="Group 86" transform="translate(-565.747 -83.018)" clip-path="url(#clip-path-28)">
          <path id="Path_174" data-name="Path 174" d="M180.5-150.777H190.65v9.576H180.5Z" transform="translate(383.545 232.089)" fill="#dd5546"/>
        </g>
      </g>
      <g id="Group_89" data-name="Group 89" transform="translate(64.088 -192.544)" clip-path="url(#clip-path-29)">
        <g id="Group_88" data-name="Group 88" transform="translate(-565.747 -91.192)" clip-path="url(#clip-path-28)">
          <path id="Path_177" data-name="Path 177" d="M180.5-126.831H190.65v9.576H180.5Z" transform="translate(383.545 216.316)" fill="#dd5546"/>
        </g>
      </g>
      <g id="Group_91" data-name="Group 91" transform="translate(64.088 -184.371)" clip-path="url(#clip-path-31)">
        <g id="Group_90" data-name="Group 90" transform="translate(-565.747 -99.365)" clip-path="url(#clip-path-28)">
          <path id="Path_180" data-name="Path 180" d="M180.5-102.885H190.65v9.576H180.5Z" transform="translate(383.545 200.544)" fill="#dd5546"/>
        </g>
      </g>
    </g>
  </g>
</svg>
