<svg width="371" height="353" viewBox="0 0 371 353" fill="none" xmlns="http://www.w3.org/2000/svg">
<mask id="mask0_2124_4164" style="mask-type:alpha" maskUnits="userSpaceOnUse" x="-249" y="0" width="620" height="353">
<rect x="-249" width="620" height="353" fill="#D9D9D9"/>
</mask>
<g mask="url(#mask0_2124_4164)">
<path opacity="0.2" d="M14.0347 401.417C206.382 469.345 287.198 330.404 303.563 252.443C373.519 0.97823 -21.8698 35.7292 -103.966 117.889C-160.616 174.583 -226.399 316.508 14.0347 401.417Z" fill="#9036AA"/>
<path opacity="0.07" d="M-63.3762 348.417C73.4914 499.675 210.677 415.915 262.162 355.127C443.33 167.227 79.0212 9.68462 -32.2765 42.8928C-109.077 65.808 -234.461 159.346 -63.3762 348.417Z" fill="#9036AA"/>
<g clip-path="url(#clip0_2124_4164)">
<path d="M77.7443 304L22.5996 249.012L77.7443 194.024" fill="#9036AA"/>
<path d="M242.629 187.857C240.62 183.143 238.414 178.587 235.972 174.11C223.855 151.878 206.548 132.883 185.515 118.729C183.427 117.315 181.3 115.979 179.134 114.801C174.801 112.17 170.35 109.774 165.741 107.535C141.724 96.0374 115.174 90.801 88.5755 92.3149C61.9768 93.8289 36.1974 102.044 13.6476 116.192C-8.90215 130.34 -27.4858 149.959 -40.366 173.214C-53.2461 196.469 -60.002 222.602 -60.002 249.168C-60.002 275.735 -53.2461 301.867 -40.366 325.123C-27.4858 348.378 -8.90215 367.997 13.6476 382.145C36.1974 396.293 61.9768 404.508 88.5755 406.022C115.174 407.536 141.724 402.299 165.741 390.802C170.35 388.563 174.801 386.167 179.134 383.535C181.3 382.2 183.427 380.865 185.515 379.608C206.548 365.454 223.855 346.458 235.972 324.227C238.414 319.749 240.62 315.193 242.629 310.48C250.793 291.119 254.998 270.328 254.998 249.325C254.998 228.323 250.793 207.532 242.629 188.171V187.857ZM121.074 190.095L180.158 249.011L121.074 307.927V190.095ZM-28.6043 249.011C-28.6043 215.677 -15.3246 183.708 8.31348 160.137C31.9515 136.566 64.0116 123.324 97.4408 123.324V374.698C64.0116 374.698 31.9515 361.456 8.31348 337.885C-15.3246 314.314 -28.6043 282.345 -28.6043 249.011Z" fill="#9036AA"/>
</g>
</g>
<defs>
<clipPath id="clip0_2124_4164">
<rect width="315" height="314" fill="white" transform="translate(-60.002 91.999)"/>
</clipPath>
</defs>
</svg>
