<svg width="100" height="100" viewBox="0 0 100 100" fill="none" xmlns="http://www.w3.org/2000/svg">
<rect x="-0.000488281" y="0.000488281" width="100" height="100" fill="white"/>
<g clip-path="url(#clip0_1725_2237)">
<path fill-rule="evenodd" clip-rule="evenodd" d="M10.7552 44.3181H16.0723V41.4958H10.7552V38.148H17.2439V35.3257H7.62402V49.7142H10.7552V44.3181Z" fill="#3F3F3F"/>
<path fill-rule="evenodd" clip-rule="evenodd" d="M26.6416 44.3039C26.6416 45.8895 25.4903 47.0852 23.964 47.0852C22.4132 47.0852 21.2865 45.9154 21.2865 44.3039C21.2865 42.6413 22.3879 41.4799 23.964 41.4799C25.4903 41.4799 26.6416 42.694 26.6416 44.3039ZM29.837 44.2846C29.8682 42.8371 29.2913 41.4464 28.2118 40.3696C27.0867 39.2483 25.5385 38.6082 23.9649 38.6375C22.409 38.6041 20.8776 39.2232 19.7585 40.3311C18.6663 41.4146 18.081 42.8187 18.1131 44.2805C18.0818 45.7381 18.6849 47.1906 19.7686 48.265C20.881 49.3678 22.4031 49.9803 23.9404 49.9502L24.0544 49.9518C25.5782 49.9518 27.0766 49.3285 28.1814 48.2332C29.2812 47.1438 29.8682 45.7397 29.837 44.2846Z" fill="#3F3F3F"/>
<path fill-rule="evenodd" clip-rule="evenodd" d="M38.7132 41.6304V38.8992L38.6423 38.8775C38.3231 38.7832 37.9912 38.7381 37.6582 38.7436C37.1225 38.7385 36.5918 38.8453 36.1006 39.0571C35.6094 39.2689 35.1688 39.5809 34.8075 39.9728V38.8733H31.9146V49.7132H35.0457V44.3029C35.0457 42.6043 36.061 41.6295 37.8314 41.6295L38.7132 41.6304Z" fill="#3F3F3F"/>
<path fill-rule="evenodd" clip-rule="evenodd" d="M47.735 45.164C47.735 46.3078 46.9553 47.1069 45.8387 47.1069C44.679 47.1069 43.8994 46.3262 43.8994 45.164V38.8726H40.769V44.9272C40.769 47.8976 42.8537 49.9727 45.8387 49.9727C48.7528 49.9727 50.8661 47.8499 50.8661 44.9272V38.8726H47.735V45.1648V45.164Z" fill="#3F3F3F"/>
<path fill-rule="evenodd" clip-rule="evenodd" d="M65.523 38.6366C64.1099 38.6366 62.8454 39.157 61.9501 40.105C61.2135 39.1303 60.1391 38.6366 58.7514 38.6366C57.5857 38.6366 56.5527 39.0047 55.8145 39.68V38.8734H52.9224V49.7133H56.0535V43.421C56.0535 42.2103 56.7715 41.458 57.9278 41.458C59.0259 41.458 59.7354 42.2278 59.7354 43.4219V49.7133H62.8674V43.3574C62.8674 42.2396 63.6386 41.458 64.7417 41.458C65.8398 41.458 66.551 42.2278 66.551 43.4219V49.7133H69.6813V43.0135C69.6813 40.3544 68.0494 38.6366 65.523 38.6366Z" fill="#3F3F3F"/>
<path fill-rule="evenodd" clip-rule="evenodd" d="M19.2186 60.4085C19.2186 63.0526 17.3266 64.9737 14.7183 64.9737C12.1108 64.9737 10.2188 63.0534 10.2188 60.4085C10.2188 57.7636 12.1108 55.8432 14.7183 55.8432C17.2843 55.8432 19.2186 57.8062 19.2186 60.4085ZM14.6963 52.9565C12.6691 52.9164 10.663 53.7196 9.19756 55.1647C7.74897 56.5913 6.96934 58.453 7.00144 60.4068C6.96934 62.3631 7.74897 64.2257 9.19756 65.6523C10.6639 67.0973 12.67 67.8981 14.6946 67.8604L14.8475 67.8621C16.8392 67.8621 18.7963 67.0538 20.2406 65.6305C21.6875 64.2047 22.4672 62.3497 22.4368 60.4093C22.4672 58.4681 21.6875 56.6122 20.2406 55.1864C18.7608 53.7271 16.7387 52.9172 14.6963 52.9565Z" fill="#3F3F3F"/>
<path fill-rule="evenodd" clip-rule="evenodd" d="M30.4526 56.5254C29.2684 56.5254 28.1974 56.9044 27.4068 57.5972V56.7613H24.5146V67.6029H27.645V61.2906C27.645 60.1342 28.4423 59.3268 29.5851 59.3268C30.7178 59.3268 31.4806 60.1158 31.4806 61.2906V67.6029H34.5898V60.9032C34.5898 58.2449 32.9663 56.5271 30.4526 56.5271" fill="#3F3F3F"/>
<path fill-rule="evenodd" clip-rule="evenodd" d="M39.8537 61.0176C40.1975 59.8294 41.1384 59.068 42.283 59.068C43.5347 59.068 44.4326 59.8637 44.501 61.0176H39.8537ZM42.3945 56.5252C41.6392 56.5093 40.8886 56.6461 40.1886 56.9274C39.4886 57.2086 38.8539 57.6284 38.3232 58.161C37.2251 59.2487 36.6381 60.6804 36.6702 62.1899C36.6389 63.6734 37.2158 65.0791 38.2945 66.1501C39.4103 67.2563 40.9095 67.8613 42.5262 67.8613H42.6529C44.2443 67.8613 45.7123 67.3174 47.0139 66.2464L47.0815 66.192L45.7613 64.0449L45.6726 64.1118C44.7527 64.8122 43.7662 65.167 42.7391 65.167C41.2643 65.167 40.222 64.4741 39.8546 63.26H47.3323L47.3509 63.1831C47.4802 62.6545 47.5465 62.1128 47.5486 61.569C47.5486 58.694 45.3313 56.5252 42.3945 56.5252Z" fill="#3F3F3F"/>
<path fill-rule="evenodd" clip-rule="evenodd" d="M93.7447 30L69.6812 53.8377H89.9192C90.9338 53.8377 91.9068 53.4385 92.6242 52.7278C93.3416 52.0171 93.7447 51.0532 93.7447 50.0482V30Z" fill="#E9162B"/>
<path fill-rule="evenodd" clip-rule="evenodd" d="M69.6812 53.8378L53.1909 70.1742V57.6273C53.1908 57.1297 53.2896 56.6369 53.4818 56.1771C53.6739 55.7172 53.9556 55.2994 54.3108 54.9474C54.6659 54.5955 55.0876 54.3162 55.5517 54.1257C56.0157 53.9352 56.5132 53.837 57.0155 53.8369L69.6812 53.8378Z" fill="#3E2A5E"/>
</g>
<defs>
<clipPath id="clip0_1725_2237">
<rect width="87" height="41" fill="white" transform="translate(6.99951 30)"/>
</clipPath>
</defs>
</svg>
