<svg width="100" height="100" viewBox="0 0 100 100" fill="none" xmlns="http://www.w3.org/2000/svg">
<rect x="-0.000488281" y="0.000488281" width="100" height="100" fill="white"/>
<g clip-path="url(#clip0_1725_2234)">
<path fill-rule="evenodd" clip-rule="evenodd" d="M63.4079 43.7618H60.2408L70.5974 37.7832C69.8659 36.5168 68.2454 36.0814 66.979 36.8129L63.2052 39.007L69.785 27.6096C68.5194 26.879 66.8996 27.3117 66.1682 28.5781L63.4079 33.3644V19.0479C61.945 19.0479 60.7589 20.2324 60.7597 21.6953L60.7541 28.3843L53.014 14.979C51.7477 15.7105 51.3141 17.3303 52.0456 18.5967L55.9804 25.4142L41.5495 17.0826C40.8181 18.35 41.2516 19.9697 42.5181 20.7003L50.3489 25.2257H32.5146C32.5146 26.6878 33.6999 27.8731 35.1619 27.8731H45.3914L28.9189 37.383C29.6513 38.6503 31.2684 39.0838 32.5366 38.3532L42.4124 32.6507L32.3154 50.1413C33.5818 50.8728 35.2007 50.4383 35.9322 49.1719L42.2229 38.2794L42.2236 59.6504C43.6857 59.6504 44.872 58.4633 44.871 57.0022V35.8187H44.8737C44.8737 31.4325 48.4305 27.8748 52.8184 27.8748C55.6897 27.8748 58.204 29.3986 59.599 31.6793L59.807 32.0398C60.3993 33.1343 60.742 34.3832 60.7589 35.713L60.7597 35.9254C60.7421 37.2455 60.4045 38.4873 59.8185 39.5765L59.5849 39.981C58.9302 41.0429 58.0322 41.9401 56.9685 42.5931L56.586 42.8135C55.4783 43.4118 54.2101 43.7547 52.8634 43.7618H50.1667C50.1667 45.2238 51.353 46.4091 52.8159 46.4091H52.8184V46.4109C52.8334 46.4109 52.8485 46.4091 52.8634 46.4091H66.0553C66.0553 44.9471 64.87 43.7618 63.4079 43.7618Z" fill="#333333"/>
</g>
<g clip-path="url(#clip1_1725_2234)">
<path fill-rule="evenodd" clip-rule="evenodd" d="M37.1599 68.0374C37.7393 68.2702 38.2108 68.6012 38.5616 69.0217C38.9111 69.4415 39.1625 69.95 39.3095 70.5347C39.4542 71.1135 39.5274 71.7668 39.5274 72.4759V78.2399C39.5274 78.2858 39.4911 78.3233 39.4452 78.3233H36.9539C36.9092 78.3233 36.8711 78.2858 36.8711 78.2399V72.848C36.8711 72.3086 36.8341 71.843 36.7591 71.4625C36.6871 71.0921 36.5668 70.7848 36.4025 70.5538C36.2411 70.3263 36.022 70.1578 35.751 70.0536C35.4735 69.9458 35.1222 69.8922 34.7096 69.8922C34.3869 69.8922 34.0522 69.9249 33.7163 69.9893C33.4156 70.0465 33.1822 70.0995 33.022 70.1459V78.2399C33.022 78.2858 32.9851 78.3233 32.9393 78.3233H30.4485C30.4032 78.3233 30.3663 78.2858 30.3663 78.2399V64.0835C30.3663 64.0424 30.3961 64.0085 30.4366 64.0032L32.9268 63.6107C32.9506 63.6048 32.975 63.6138 32.9934 63.6286C33.0113 63.6446 33.022 63.6679 33.022 63.6917V67.9915C33.2752 67.9135 33.5639 67.8444 33.8825 67.7873C34.2493 67.7212 34.6179 67.6885 34.9787 67.6885C35.8487 67.6885 36.5829 67.8057 37.1599 68.0374ZM44.5501 76.1785C44.9062 76.3869 45.398 76.4911 46.012 76.4911C46.7289 76.4911 47.2886 76.456 47.6787 76.3881V73.8931C47.5483 73.8604 47.3714 73.8264 47.1517 73.7931C46.8986 73.755 46.6127 73.7353 46.3007 73.7353C46.0274 73.7353 45.7511 73.755 45.4772 73.7931C45.2057 73.8306 44.958 73.9009 44.7388 74.0027C44.5269 74.1016 44.3542 74.2409 44.2256 74.4165C44.1 74.591 44.0362 74.8143 44.0362 75.0834C44.0362 75.6187 44.2042 75.9772 44.5501 76.1785ZM47.912 67.9481C48.4849 68.1464 48.9488 68.431 49.2929 68.7924C49.6371 69.1533 49.886 69.5969 50.0325 70.1114C50.1789 70.6182 50.2529 71.1832 50.2529 71.7899V78.0048C50.2529 78.044 50.2254 78.078 50.1867 78.0858C49.805 78.1655 49.2179 78.2602 48.442 78.371C47.6631 78.4823 46.7772 78.5377 45.806 78.5377C45.1581 78.5377 44.5567 78.4788 44.0178 78.3597C43.4741 78.24 43.0037 78.0453 42.6196 77.7791C42.232 77.5117 41.9253 77.1574 41.7074 76.7281C41.4901 76.3012 41.3793 75.7676 41.3793 75.1424C41.3793 74.5422 41.5049 74.0266 41.7515 73.6109C41.9974 73.1958 42.3362 72.8529 42.7578 72.5909C43.1746 72.3336 43.6647 72.1454 44.2143 72.0323C44.7609 71.9198 45.3379 71.8638 45.9292 71.8638C46.2008 71.8638 46.4949 71.8805 46.8033 71.9144C47.0779 71.9436 47.3732 71.9924 47.6787 72.0591V71.7703C47.6787 71.5053 47.6453 71.2493 47.5792 71.0081C47.5137 70.7735 47.3987 70.5645 47.2374 70.3853C47.0754 70.2067 46.8581 70.0655 46.5896 69.9661C46.3192 69.8654 45.9715 69.8136 45.5588 69.8136C44.9491 69.8136 44.3792 69.8565 43.8653 69.9393C43.3562 70.022 42.9364 70.1203 42.6161 70.2316C42.5922 70.24 42.5678 70.2376 42.547 70.2239C42.5256 70.212 42.5113 70.1906 42.5077 70.1674L42.198 68.2452C42.1909 68.2047 42.2148 68.1666 42.2528 68.1541C42.594 68.041 43.0776 67.9308 43.7332 67.8171C44.378 67.7051 45.0759 67.6485 45.806 67.6485C46.6354 67.6485 47.3446 67.7504 47.912 67.9481ZM59.3782 73.406C59.1049 73.147 58.7559 72.9106 58.3391 72.7064C57.9241 72.5021 57.415 72.2937 56.8249 72.0841C56.4718 71.9674 56.1693 71.8531 55.9269 71.7435C55.6852 71.6357 55.4905 71.5268 55.3452 71.419C55.2058 71.3178 55.1076 71.2064 55.051 71.0879C54.995 70.9694 54.9671 70.8295 54.9671 70.6729C54.9671 70.3632 55.1076 70.1411 55.3958 69.9911C55.6989 69.8345 56.1008 69.7553 56.5932 69.7553C57.1476 69.7553 57.64 69.8035 58.0569 69.9006C58.4737 69.9964 58.8226 70.103 59.093 70.218C59.1151 70.228 59.1412 70.228 59.1627 70.2167C59.1841 70.206 59.1996 70.1858 59.2056 70.1626L59.6587 68.2398C59.6676 68.1999 59.645 68.1583 59.6057 68.144C59.3133 68.0374 58.8846 67.9308 58.2968 67.8165C57.7151 67.7051 57.1 67.6485 56.4694 67.6485C55.2082 67.6485 54.1942 67.9284 53.4553 68.4792C52.7102 69.036 52.3316 69.8065 52.3316 70.7705C52.3316 71.2641 52.4132 71.6881 52.5763 72.0305C52.7377 72.3735 52.9639 72.6695 53.2455 72.9106C53.523 73.1494 53.8589 73.362 54.2418 73.5406C54.6199 73.7175 55.0421 73.8871 55.4953 74.0437C56.2258 74.3022 56.7558 74.5428 57.0708 74.7601C57.3733 74.9679 57.5192 75.221 57.5192 75.5342C57.5192 75.87 57.3858 76.0987 57.1119 76.2356C56.8231 76.3792 56.3508 76.4512 55.7084 76.4512C55.0588 76.4512 54.474 76.3869 53.9685 76.2577C53.4581 76.129 53.0146 75.9915 52.6501 75.8492C52.6269 75.8409 52.6019 75.842 52.5811 75.8534C52.5585 75.8659 52.5447 75.8849 52.5388 75.9093L52.1065 77.8893C52.0982 77.9291 52.1202 77.9685 52.1571 77.9839C52.3941 78.0762 52.805 78.2006 53.382 78.3495C53.9631 78.5008 54.7383 78.5788 55.687 78.5788C57.1095 78.5788 58.2236 78.3192 58.9959 77.8095C59.7783 77.292 60.1749 76.5202 60.1749 75.5146C60.1749 75.0495 60.1112 74.6434 59.9844 74.3099C59.8576 73.9723 59.6527 73.6686 59.3782 73.406ZM64.5129 71.2511C64.4182 71.5012 64.3485 71.7596 64.3056 72.021H68.7578C68.7507 71.7352 68.7031 71.4589 68.6191 71.1975C68.5256 70.9152 68.3887 70.6687 68.2118 70.4621C68.0368 70.2566 67.817 70.0911 67.5603 69.9732C67.3049 69.8542 66.9947 69.7939 66.6392 69.7939C66.2689 69.7939 65.9414 69.8607 65.6662 69.9922C65.3887 70.1239 65.1512 70.2983 64.96 70.5116C64.7695 70.7259 64.6182 70.9742 64.5129 71.2511ZM64.7361 67.9963C65.3477 67.7664 65.9812 67.6485 66.6172 67.6485C68.1165 67.6485 69.3039 68.0999 70.147 68.9883C70.9884 69.8755 71.4148 71.2142 71.4148 72.9654C71.4148 73.0982 71.4118 73.2459 71.4047 73.4108C71.3975 73.5775 71.3869 73.7288 71.3737 73.8574C71.369 73.8997 71.3326 73.9312 71.2909 73.9312H64.2799C64.3604 74.6856 64.6557 75.2793 65.1577 75.6973C65.6824 76.1327 66.4576 76.3541 67.4615 76.3541C68.0582 76.3541 68.609 76.3011 69.1026 76.1981C69.5951 76.0957 69.9887 75.985 70.2721 75.8706C70.2954 75.8611 70.3215 75.8623 70.343 75.8742C70.3645 75.8861 70.3805 75.9081 70.3847 75.9325L70.7133 77.8731C70.7204 77.91 70.702 77.9464 70.6681 77.9619C70.527 78.0292 70.3316 78.1 70.0905 78.1721C69.8493 78.2442 69.5695 78.3108 69.258 78.371C68.9472 78.4293 68.6096 78.4788 68.2535 78.5181C67.8962 78.5574 67.5265 78.5788 67.1531 78.5788C66.2004 78.5788 65.3595 78.4419 64.654 78.1703C63.9459 77.8994 63.3535 77.5165 62.8938 77.0324C62.4348 76.5482 62.0887 75.9719 61.8666 75.3157C61.6457 74.6643 61.5337 73.9383 61.5337 73.1631C61.5337 72.2538 61.6773 71.4452 61.9613 70.7586C62.2448 70.0727 62.6288 69.4915 63.1034 69.0354C63.5744 68.5786 64.124 68.2297 64.7361 67.9963ZM82.2592 76.1576H76.0165C76.0493 76.0177 76.1362 75.848 76.2749 75.6503C76.4494 75.4008 76.6626 75.1364 76.9073 74.8649C77.1544 74.5904 77.4164 74.3141 77.687 74.0438C77.9584 73.7723 78.2052 73.5352 78.4243 73.3417C78.8377 72.9606 79.2536 72.5688 79.6611 72.1723C80.0739 71.7739 80.4471 71.3552 80.7721 70.9283C81.0952 70.5008 81.3649 70.0536 81.5725 69.5993C81.7832 69.139 81.8897 68.6626 81.8897 68.1827C81.8897 66.9745 81.5165 66.0081 80.7823 65.309C80.0492 64.6106 78.8979 64.2568 77.3599 64.2568C76.4613 64.2568 75.6086 64.4206 74.8268 64.7439C74.0467 65.0661 73.3566 65.4966 72.776 66.0229C72.745 66.0509 72.7397 66.0998 72.7647 66.1337L74.0003 67.8004C74.014 67.8195 74.036 67.8313 74.0598 67.8337C74.0825 67.8361 74.1068 67.8278 74.123 67.8117C74.2176 67.7212 74.3605 67.6015 74.5492 67.4538C74.7386 67.3044 74.9601 67.1597 75.2084 67.0191C75.4556 66.8798 75.7438 66.756 76.0678 66.6536C76.3881 66.5517 76.74 66.5005 77.1133 66.5005C77.6826 66.5005 78.1727 66.6411 78.5675 66.9167C78.9551 67.1865 79.1513 67.6521 79.1513 68.3006C79.1513 68.6001 79.0839 68.8948 78.9527 69.1765C78.8179 69.4641 78.6391 69.7487 78.4177 70.022C78.195 70.2983 77.9314 70.5817 77.6319 70.8676C77.3265 71.1588 77.0085 71.4553 76.687 71.7477C76.269 72.1329 75.8384 72.5361 75.4091 72.9464C74.9822 73.3507 74.5927 73.7907 74.2468 74.2492C73.9014 74.7113 73.6174 75.215 73.4036 75.7486C73.1875 76.285 73.0779 76.8787 73.0779 77.5141V77.8571C73.0779 78.0119 73.0856 78.1441 73.0994 78.2507C73.1053 78.2929 73.1392 78.3233 73.1804 78.3233H82.2592C82.305 78.3233 82.3423 78.2858 82.3423 78.24V76.2404C82.3423 76.1946 82.305 76.1576 82.2592 76.1576ZM24.6457 71.1439C25.2864 70.7985 25.611 70.128 25.611 69.1545C25.611 68.6871 25.524 68.2893 25.3537 67.9755C25.1835 67.6628 24.9447 67.4145 24.6422 67.2377C24.3373 67.0584 23.9693 66.9281 23.5477 66.8512C23.1202 66.7744 22.6581 66.7357 22.1734 66.7357C21.5571 66.7357 21.0384 66.7529 20.63 66.7882V71.6798H21.8024C23.0314 71.6798 23.9883 71.4994 24.6457 71.1439ZM21.9882 64.4337C24.0676 64.4337 25.6866 64.8177 26.8001 65.5764C27.9237 66.3433 28.4936 67.5545 28.4936 69.1765C28.4936 70.0208 28.3417 70.7551 28.0428 71.36C27.7415 71.9662 27.2991 72.467 26.7275 72.8487C26.1588 73.2303 25.4562 73.5138 24.641 73.6919C23.83 73.8711 22.8885 73.9622 21.8441 73.9622H20.63V78.2399C20.63 78.2858 20.5925 78.3233 20.5466 78.3233H17.9534C17.9081 78.3233 17.8706 78.2858 17.8706 78.2399V64.8493C17.8706 64.8106 17.898 64.7766 17.9355 64.7683C18.5387 64.6373 19.2181 64.5486 19.9547 64.5015C20.6931 64.4557 21.3785 64.4337 21.9882 64.4337Z" fill="#333333"/>
</g>
<defs>
<clipPath id="clip0_1725_2234">
<rect width="42.161" height="45.6744" fill="white" transform="translate(28.9189 14.4443)"/>
</clipPath>
<clipPath id="clip1_1725_2234">
<rect width="64.999" height="15.0461" fill="white" transform="translate(17.5005 63.5752)"/>
</clipPath>
</defs>
</svg>
