<svg width="100" height="100" viewBox="0 0 100 100" fill="none" xmlns="http://www.w3.org/2000/svg">
<rect x="-0.000488281" y="0.000488281" width="100" height="100" fill="white"/>
<g clip-path="url(#clip0_1725_2229)">
<path d="M71.4697 28.4712L64.7167 28.4624C63.9171 28.4639 63.1507 28.8021 62.5852 29.4029C62.0197 30.0038 61.7013 30.8184 61.6996 31.6684C61.7008 32.5185 62.0189 33.3336 62.5845 33.9348C63.1501 34.536 63.9168 34.8742 64.7167 34.8754L70.3451 34.8699C74.1143 34.8699 77.2389 37.7679 77.2389 41.2532C77.2389 44.7428 74.1723 48.3601 70.4051 48.3601H58.7199V40.7198C58.7199 33.7041 52.9217 28.0005 46.3197 28.0005C44.6263 28.0003 42.9522 28.3824 41.4081 29.1215C39.864 29.8605 38.4852 30.9397 37.3628 32.2875C35.1073 29.5765 31.4219 28.0005 27.9755 28.0005C21.3755 28.0005 16.0047 33.703 16.0047 40.7209L15.9995 52.072C15.9995 53.8416 17.3508 55.3219 19.0134 55.3219C20.6792 55.3219 22.0294 53.8416 22.0294 52.072H22.0211L22.0232 41.9164C22.0232 37.9086 24.6946 34.6532 27.9755 34.6532C31.2139 34.6532 34.3116 37.8713 34.353 41.814L34.3437 52.072C34.3437 53.8416 35.6949 55.3219 37.3628 55.3219C39.0244 55.3219 40.3809 53.8416 40.3809 52.072L40.3736 41.8493C40.4026 37.8812 43.0709 34.6532 46.3197 34.6532C49.6016 34.6532 52.7035 37.9086 52.7035 41.9164L52.689 51.5529C52.6906 52.3314 52.9582 53.0827 53.442 53.6673C53.9258 54.2517 54.5928 54.6294 55.319 54.7302L71.5288 54.7566C78.1266 54.7566 83.4995 48.271 83.4995 41.2543C83.4995 34.2397 78.0759 28.4712 71.4697 28.4712Z" fill="#938514"/>
<path d="M22.4146 66.2812C22.1581 66.0106 21.8688 65.7769 21.5555 65.5861C21.236 65.3899 20.9087 65.209 20.5741 65.0438C20.2394 64.8796 19.9132 64.7177 19.594 64.5569C19.293 64.4082 19.0057 64.2301 18.7357 64.0249C18.4972 63.8449 18.2925 63.6189 18.1323 63.3586C17.9801 63.1072 17.9046 62.8078 17.9046 62.4596C17.9046 62.2219 17.9445 61.9955 18.0238 61.7843C18.102 61.5715 18.2196 61.3875 18.3766 61.2324C18.5346 61.0778 18.7331 60.955 18.9773 60.861C19.2183 60.7688 19.503 60.7206 19.8308 60.7206C20.182 60.7206 20.4975 60.7688 20.7789 60.861C21.0601 60.9556 21.3043 61.0592 21.5101 61.1707C21.6099 61.2262 21.6397 61.2409 21.6442 61.2426C21.9719 61.495 22.289 61.4407 22.5078 61.1509C22.687 60.912 22.685 60.5599 22.5332 60.3148L22.4943 60.2468C22.4673 60.1986 22.4342 60.1548 22.3953 60.1166C22.3377 60.0566 22.2182 59.9757 22.037 59.8761C22.037 59.8761 21.6467 59.6859 21.4143 59.6055C21.1812 59.5262 20.9345 59.4611 20.6699 59.413C20.4106 59.3648 20.1478 59.3403 19.8845 59.34C19.3758 59.34 18.9017 59.413 18.4638 59.5568C18.0249 59.7028 17.6471 59.9134 17.3278 60.1891C17.0096 60.4673 16.7554 60.8191 16.5845 61.2177C16.4057 61.6269 16.3142 62.0923 16.3142 62.6159C16.3142 63.1231 16.3913 63.5595 16.5462 63.9241C16.7026 64.2875 16.9027 64.6034 17.1506 64.874C17.4002 65.1479 17.68 65.3817 17.9956 65.5815C18.3095 65.7797 18.6335 65.9614 18.9677 66.1272C19.2987 66.2914 19.627 66.4516 19.943 66.6096C20.2607 66.7681 20.5443 66.9413 20.7928 67.1315C21.0412 67.3222 21.2409 67.5419 21.3927 67.7938C21.544 68.044 21.6201 68.348 21.6201 68.7006C21.6201 69.0307 21.5645 69.3228 21.4552 69.5792C21.3501 69.8328 21.1902 70.0564 20.9885 70.2319C20.7729 70.417 20.5258 70.5563 20.2607 70.6423C19.96 70.7426 19.6462 70.7917 19.3311 70.7878C18.8815 70.7878 18.4883 70.7317 18.1451 70.618C17.8442 70.523 17.551 70.4026 17.2682 70.2579C17.1967 70.217 17.1241 70.1781 17.0506 70.1413C16.6941 69.8724 16.3567 69.9381 16.1333 70.2545C16.0482 70.3765 16.0014 70.5238 15.9996 70.6757C15.9977 70.8275 16.041 70.9761 16.1232 71.1002L16.2285 71.2429C16.2987 71.3193 16.4233 71.4127 16.6015 71.5225C16.7803 71.6318 17.0022 71.7377 17.2634 71.8401C17.5284 71.9437 17.8274 72.0314 18.1642 72.1011C18.1642 72.1011 18.865 72.2075 19.2598 72.2075C19.7927 72.2121 20.3231 72.131 20.8332 71.9669C21.3211 71.805 21.7449 71.5661 22.1045 71.2463C22.4637 70.9299 22.7525 70.5323 22.9492 70.0824C23.1517 69.625 23.2536 69.1031 23.2536 68.5189C23.2536 68.0225 23.1767 67.5906 23.0217 67.226C22.8744 66.8746 22.669 66.5543 22.4146 66.2806V66.2812ZM39.5092 66.2812C39.2527 66.0104 38.9635 65.7767 38.6497 65.5861C38.3311 65.3899 38.0038 65.2089 37.6696 65.0438C37.3345 64.8796 37.0085 64.7177 36.689 64.5569C36.3879 64.4082 36.1003 64.2301 35.8303 64.0249C35.5918 63.8448 35.3872 63.6188 35.2273 63.3586C35.0747 63.1072 34.999 62.8078 34.999 62.4596C34.999 62.2219 35.0391 61.9955 35.1189 61.7843C35.1966 61.5715 35.314 61.3875 35.4711 61.2324C35.6298 61.0778 35.8282 60.955 36.0725 60.861C36.3134 60.7688 36.5982 60.7206 36.9254 60.7206C37.2764 60.7206 37.5918 60.7688 37.8741 60.861C38.1552 60.9556 38.3994 61.0592 38.6052 61.1707C38.705 61.2262 38.7344 61.2409 38.7393 61.2426C39.0674 61.495 39.3837 61.4407 39.6029 61.1509C39.7817 60.912 39.7801 60.5599 39.6283 60.3148L39.589 60.2468C39.5624 60.1985 39.5297 60.1547 39.4912 60.1166C39.4319 60.0566 39.3137 59.9757 39.1325 59.8761C39.1325 59.8761 38.7418 59.6859 38.5098 59.6055C38.2762 59.5262 38.0296 59.4611 37.7649 59.413C37.5055 59.3647 37.2425 59.3403 36.979 59.34C36.4979 59.3362 36.0189 59.4093 35.5582 59.5568C35.1201 59.7028 34.7417 59.9134 34.423 60.1891C34.1047 60.4673 33.8503 60.8191 33.6797 61.2177C33.5009 61.6269 33.4093 62.0923 33.4093 62.6159C33.4093 63.1231 33.4862 63.5595 33.6412 63.9241C33.7975 64.2875 33.9976 64.6034 34.2459 64.874C34.4962 65.1489 34.7806 65.3868 35.0907 65.5815C35.4044 65.7797 35.7284 65.9614 36.0627 66.1272C36.3932 66.2914 36.7217 66.4516 37.0379 66.6096C37.3558 66.7681 37.6393 66.9413 37.8872 67.1315C38.1363 67.3222 38.3352 67.5419 38.4869 67.7938C38.6391 68.044 38.7148 68.348 38.7148 68.7006C38.7148 69.0307 38.6587 69.3228 38.5503 69.5792C38.4452 69.8328 38.2852 70.0564 38.0836 70.2319C37.8794 70.4096 37.6368 70.5472 37.3558 70.6423C37.0551 70.7426 36.7417 70.7917 36.4267 70.7878C35.9767 70.7878 35.5832 70.7317 35.24 70.618C34.9393 70.5232 34.6464 70.4028 34.3637 70.2579C34.2921 70.2168 34.2193 70.1779 34.1457 70.1413C33.7893 69.8724 33.4514 69.9381 33.2277 70.2545C33.1426 70.3764 33.0959 70.5239 33.0943 70.6757C33.0922 70.8276 33.136 70.9762 33.2183 71.1002L33.3234 71.2429C33.3937 71.3193 33.5185 71.4127 33.6961 71.5225C33.8748 71.6318 34.0974 71.7377 34.3584 71.8401C34.6222 71.9437 34.9225 72.0314 35.2588 72.1011C35.2588 72.1011 35.96 72.2075 36.3543 72.2075C36.8874 72.2121 37.418 72.131 37.9281 71.9669C38.4162 71.805 38.84 71.5661 39.1987 71.2463C39.5583 70.9296 39.8472 70.5321 40.0452 70.0824C40.2472 69.625 40.3483 69.1031 40.3483 68.5189C40.3483 68.0225 40.2718 67.5906 40.1167 67.226C39.9695 66.8746 39.7633 66.5544 39.5092 66.2806V66.2812ZM81.3895 66.2812C81.133 66.0105 80.8446 65.7769 80.5308 65.5861C80.2113 65.3901 79.8841 65.2091 79.5498 65.0438C79.2148 64.8796 78.8887 64.7177 78.5701 64.5569C78.269 64.4082 77.9814 64.2301 77.7114 64.0249C77.4725 63.8451 77.2679 63.6191 77.108 63.3586C76.9558 63.1072 76.8801 62.8078 76.8801 62.4596C76.8801 62.2219 76.9202 61.9955 76.9988 61.7843C77.0777 61.5715 77.1951 61.3875 77.3522 61.2324C77.5097 61.0778 77.7093 60.955 77.9528 60.861C78.1945 60.7688 78.4784 60.7206 78.8057 60.7206C79.1571 60.7206 79.4729 60.7688 79.7544 60.861C80.0354 60.9556 80.2793 61.0592 80.4854 61.1707C80.5857 61.2262 80.6147 61.2409 80.6196 61.2426C80.9473 61.495 81.2639 61.4407 81.4836 61.1509C81.6628 60.912 81.6599 60.5599 81.509 60.3148L81.4693 60.2468C81.4431 60.1983 81.41 60.1544 81.3711 60.1166C81.3126 60.0566 81.194 59.9757 81.0127 59.8761C81.0127 59.8761 80.6229 59.6859 80.3905 59.6055C80.1561 59.5262 79.9098 59.4611 79.6456 59.413C79.3862 59.3648 79.1232 59.3404 78.8601 59.34C78.3508 59.34 77.8767 59.413 77.4381 59.5568C77.0004 59.7028 76.622 59.9134 76.3045 60.1891C75.9854 60.467 75.7306 60.8188 75.5596 61.2177C75.3808 61.6269 75.2892 62.0923 75.2892 62.6159C75.2892 63.1231 75.3673 63.5595 75.5211 63.9241C75.6782 64.2875 75.8778 64.6034 76.1258 64.874C76.3753 65.1479 76.6551 65.3817 76.9709 65.5815C77.2851 65.7797 77.6087 65.9614 77.9433 66.1272C78.2743 66.2914 78.602 66.4516 78.9186 66.6096C79.2361 66.7681 79.52 66.9413 79.7679 67.1315C80.017 67.3222 80.2158 67.5419 80.368 67.7938C80.5198 68.044 80.5959 68.348 80.5959 68.7006C80.5959 69.0307 80.5398 69.3228 80.4314 69.5792C80.3222 69.8373 80.1651 70.0558 79.9642 70.2319C79.7482 70.4169 79.5012 70.5562 79.2361 70.6423C78.9354 70.7426 78.6216 70.7917 78.3066 70.7878C77.857 70.7878 77.4639 70.7317 77.1203 70.618C76.741 70.4985 76.3745 70.3388 76.0255 70.1413C75.6692 69.8724 75.3321 69.9381 75.1087 70.2545C75.0237 70.3764 74.9766 70.5238 74.975 70.6757C74.9733 70.8276 75.0167 70.9762 75.0993 71.1002L75.2041 71.2429C75.2744 71.3193 75.3984 71.4127 75.5772 71.5225C75.7551 71.6318 75.9772 71.7377 76.2395 71.8401C76.5033 71.9437 76.8036 72.0314 77.1391 72.1011C77.1391 72.1011 77.8407 72.2075 78.2354 72.2075C78.7681 72.212 79.2987 72.1309 79.8088 71.9669C80.296 71.805 80.7203 71.5661 81.079 71.2463C81.4386 70.9299 81.7278 70.5323 81.9254 70.0824C82.1275 69.625 82.2294 69.1031 82.2294 68.5189C82.2294 68.0225 82.1521 67.5906 81.9974 67.226C81.8497 66.8746 81.644 66.5544 81.3895 66.2806V66.2812ZM57.3072 70.6372L55.8823 70.6378C55.8672 70.6378 55.8528 70.6411 55.8385 70.6417H52.9802V66.1697H55.202L55.2085 66.1708L56.0435 66.1697H56.3838L56.5998 66.1692C56.8502 66.1697 57.0637 66.0174 57.1693 65.7961C57.2176 65.6929 57.2401 65.5784 57.2352 65.4633C57.2298 65.3481 57.1975 65.2364 57.1402 65.1384C57.0834 65.0405 57.0036 64.9597 56.9091 64.9037C56.8142 64.8477 56.7078 64.8184 56.5994 64.8185L55.2085 64.8202C55.1856 64.8202 55.1631 64.8247 55.1414 64.827H52.9802V60.9058H55.7007C55.7362 60.912 55.8369 60.9035 55.8602 60.912L57.2331 60.9154C57.3186 60.9153 57.4029 60.8974 57.4818 60.8626C57.5608 60.8279 57.6324 60.7769 57.6925 60.7127C57.7531 60.6484 57.8009 60.5722 57.8337 60.4883C57.866 60.4044 57.8827 60.3144 57.8827 60.2236C57.8827 60.1328 57.866 60.0429 57.8332 59.959C57.8005 59.8752 57.7527 59.799 57.6921 59.7348C57.632 59.6706 57.5604 59.6197 57.4814 59.585C57.4025 59.5503 57.3178 59.5324 57.2327 59.5325L56.7037 59.5262L56.6473 59.5234H52.0012C51.8589 59.5234 51.7288 59.5732 51.6048 59.6723C51.4813 59.7742 51.4191 59.9491 51.4191 60.2004V71.3493C51.4191 71.6001 51.4813 71.775 51.6052 71.8752C51.7288 71.9748 51.8589 72.0247 52.0012 72.0247H56.4886L57.308 72.0303C57.562 72.0303 57.7829 71.8639 57.8893 71.6363C57.9388 71.5309 57.9621 71.4139 57.9568 71.2962C57.9519 71.1785 57.9187 71.0642 57.8602 70.9641C57.8022 70.8639 57.7207 70.7813 57.6238 70.724C57.5272 70.6667 57.4184 70.6366 57.3076 70.6367L57.3072 70.6372ZM49.2902 59.5251L48.7952 59.5262V59.5234H42.2064V59.5257L41.7989 59.5268C41.4336 59.5274 41.1399 59.8415 41.1391 60.2299C41.1387 60.3217 41.1558 60.4126 41.1886 60.4975C41.2217 60.5823 41.27 60.6594 41.3313 60.7243C41.3923 60.7892 41.4647 60.8407 41.5445 60.8757C41.6242 60.9107 41.7097 60.9286 41.7961 60.9284L42.2776 60.9273V60.9341H44.7644V69.4003C44.7644 69.4122 44.762 69.423 44.762 69.4343L44.7644 70.5947V70.7798H44.7652L44.7669 71.2554C44.7669 71.3649 44.7873 71.4733 44.8266 71.5745C44.8663 71.6756 44.924 71.7675 44.9968 71.8448C45.0696 71.9221 45.1563 71.9834 45.2517 72.0252C45.3466 72.0669 45.4488 72.0883 45.5515 72.0881C45.6542 72.0883 45.7557 72.0671 45.8502 72.0256C45.9451 71.9841 46.0314 71.9231 46.1038 71.8461C46.1762 71.7691 46.2339 71.6777 46.2732 71.577C46.3124 71.4763 46.3329 71.3683 46.3329 71.2593L46.328 69.4377L46.3276 69.4303V60.9335H47.8019C47.8146 60.9346 47.8265 60.938 47.8396 60.938L49.2865 60.9324C49.4092 60.9314 49.5291 60.8945 49.6334 60.8257C49.7377 60.7569 49.822 60.6589 49.8777 60.5423C49.9218 60.4472 49.9468 60.3391 49.9468 60.2276C49.9472 60.1355 49.9304 60.0442 49.8977 59.959C49.865 59.8737 49.8167 59.7962 49.7557 59.7309C49.6948 59.6656 49.622 59.6137 49.5422 59.5783C49.4624 59.5429 49.3765 59.5246 49.2902 59.5245V59.5251ZM32.0286 59.7747C31.9582 59.6779 31.8678 59.6001 31.7639 59.5477C31.5856 59.4571 31.3806 59.4452 31.1941 59.5147C31.0075 59.5841 30.8541 59.7293 30.7678 59.9185L30.6819 60.09L30.659 60.1342L29.174 63.4174C29.0222 63.7713 28.8717 64.1301 28.7248 64.493C28.5775 64.8572 28.4352 65.2235 28.2973 65.5917H28.2789C28.1214 65.2108 27.9692 64.8338 27.8174 64.4613C27.6734 64.1003 27.5229 63.7423 27.3662 63.3874L26.5975 61.6932C26.5848 61.6398 26.5672 61.5879 26.5443 61.5386L25.7977 59.9196C25.7073 59.7238 25.5474 59.574 25.3535 59.5031C25.1592 59.4323 24.9468 59.4461 24.7623 59.5415C24.6711 59.5887 24.5893 59.6547 24.5218 59.7355C24.4547 59.8164 24.4032 59.9106 24.37 60.0127C24.3373 60.1149 24.3234 60.2229 24.3299 60.3307C24.3361 60.4385 24.3627 60.5439 24.4072 60.6408L24.4977 60.8378L24.4907 60.8424L24.9092 61.7322L25.1538 62.2604C25.1645 62.2853 25.1784 62.3074 25.1915 62.33L27.4668 67.1643V69.4286L27.4664 69.4343L27.4668 69.663V70.8834H27.4705L27.4722 71.2559C27.4722 71.5814 27.6497 71.8639 27.9062 72.0009C28.0113 72.0558 28.1316 72.0869 28.256 72.0881C28.3582 72.0884 28.4601 72.0672 28.5546 72.0258C28.6495 71.9843 28.7358 71.9233 28.8082 71.8463C28.8807 71.7693 28.9383 71.6778 28.9776 71.5771C29.0169 71.4763 29.0369 71.3683 29.0369 71.2593L29.0328 69.4377C29.0328 69.4264 29.0296 69.4167 29.0296 69.406V67.1643L31.3074 62.3498C31.3319 62.3136 31.3757 62.2106 31.3949 62.1698L32.1076 60.6029C32.1689 60.4708 32.1939 60.3232 32.1796 60.1767C32.1657 60.0303 32.1133 59.891 32.0286 59.7747ZM73.0486 69.4388L73.0473 69.4252V60.2757C73.0473 60.1416 73.0298 60.0283 72.9925 59.9338C72.9606 59.8473 72.9123 59.7687 72.8506 59.7028C72.79 59.6402 72.7168 59.5935 72.6362 59.5664C72.5519 59.5374 72.464 59.5229 72.3756 59.5234H71.3697C71.2154 59.5234 71.0813 59.5404 70.9638 59.5772C70.8473 59.6112 70.7384 59.6703 70.6448 59.751C70.5494 59.8313 70.4631 59.9395 70.3829 60.0736C70.3007 60.2095 70.2283 60.3725 70.1604 60.5661L66.6643 69.59H66.6197L63.2586 60.5367C63.2099 60.3787 63.1453 60.2268 63.0663 60.0832C62.9947 59.9587 62.9007 59.8504 62.7898 59.7645C62.672 59.679 62.5407 59.6168 62.402 59.5811C62.2322 59.5397 62.0583 59.5203 61.8841 59.5234H60.9264C60.7587 59.5234 60.6097 59.5811 60.4756 59.6966C60.3402 59.8127 60.2714 60.0068 60.2714 60.2757V70.8766H60.2767L60.278 71.2554C60.2784 71.4755 60.361 71.6865 60.5079 71.8419C60.6543 71.9973 60.8532 72.0844 61.0602 72.0841C61.162 72.0842 61.2635 72.0629 61.358 72.0213C61.4525 71.9798 61.5384 71.9187 61.6104 71.8418C61.6828 71.7649 61.7401 71.6735 61.7789 71.573C61.8182 71.4724 61.8382 71.3647 61.8378 71.2559L61.8354 69.4388L61.8342 69.4275V60.8848H61.8415L65.8015 71.8209C65.8138 71.8599 65.8367 71.8944 65.869 71.9284C65.9038 71.9596 65.9492 71.9867 66.011 72.0094C66.0711 72.032 66.1472 72.0479 66.2376 72.0626C66.3297 72.0762 66.4372 72.0824 66.5645 72.0824C66.686 72.0824 66.7891 72.0779 66.8778 72.0677C66.965 72.058 67.0419 72.0417 67.1057 72.0201C67.1593 72.0037 67.2088 71.9751 67.2509 71.9363C67.2841 71.9044 67.3098 71.8649 67.327 71.8209L71.4687 60.8848H71.4879V70.9836H71.4907L71.4916 71.2548C71.4924 71.4747 71.5746 71.6854 71.7211 71.8407C71.8671 71.9961 72.0655 72.0834 72.2721 72.0835C72.3744 72.0838 72.4758 72.0625 72.5703 72.021C72.6648 71.9794 72.7512 71.9184 72.8232 71.8415C72.8956 71.7645 72.9532 71.6732 72.9921 71.5726C73.0314 71.472 73.0514 71.3642 73.051 71.2554L73.0486 69.4388Z" fill="#333333"/>
</g>
<defs>
<clipPath id="clip0_1725_2229">
<rect width="68" height="45" fill="white" transform="translate(15.9995 28.0005)"/>
</clipPath>
</defs>
</svg>
