<svg width="100" height="100" viewBox="0 0 100 100" fill="none" xmlns="http://www.w3.org/2000/svg">
<rect x="-0.000488281" y="0.000488281" width="100" height="100" fill="white"/>
<g clip-path="url(#clip0_1725_2243)">
<path d="M5.60596 21.1894C5.60596 21.1894 32.5392 17.6705 33.3513 17.5351C34.5017 17.3321 35.5844 17.1291 36.5318 16.8584C38.6973 16.2494 40.7275 15.3696 42.4869 14.1516C44.1787 13.0011 45.8028 11.3093 47.3593 9.48221C48.3744 8.3318 49.3894 6.77535 50.4045 5.28658V4.60986C49.2541 6.36932 48.1037 7.8581 46.9533 9.14386C45.3968 10.9033 43.7727 12.3244 42.0809 13.4072C40.3891 14.4899 38.4267 15.3696 36.3288 15.911C35.3814 16.1817 34.3664 16.317 33.2159 16.5201C32.4716 16.6554 31.7272 16.7231 30.9828 16.7907C30.6444 16.7907 5.60596 19.4299 5.60596 19.4299V21.1894Z" fill="#BBBDBF"/>
<path d="M41.7426 16.6555C40.0508 17.6029 38.0883 18.3473 35.9228 18.7533C34.9754 18.9564 34.028 19.0917 32.8776 19.227C32.2009 19.2947 31.5242 19.3624 30.8474 19.4301C30.5091 19.4301 30.1031 19.4977 29.7647 19.4977C21.5088 20.3098 13.3205 21.0542 5.60596 21.7986V23.558C13.3205 22.6106 21.6441 21.5955 29.9 20.6481C30.2384 20.5805 30.6444 20.5805 30.9828 20.5128C31.6595 20.4451 32.3362 20.3775 33.0129 20.2421C34.1633 20.1068 35.2461 19.9038 36.1258 19.7007C38.359 19.227 40.3891 18.415 42.1486 17.3322C43.908 16.2495 45.3968 14.8284 47.0886 13.0013C48.1037 11.8508 49.2541 10.2944 50.3368 8.80562V8.12891C49.0511 9.82069 47.9007 11.3095 46.6826 12.5276C45.0585 14.3547 43.4343 15.7081 41.7426 16.6555Z" fill="#BBBDBF"/>
<path d="M46.4796 16.2491C44.8554 17.7379 43.096 18.956 41.4042 19.8357C39.7124 20.6478 37.8176 21.2568 35.5844 21.5952C34.637 21.7305 33.6896 21.8659 32.5392 22.0012L5.60596 24.1667V25.9262L29.494 23.3547L32.6069 23.0163C33.7573 22.881 34.7724 22.7456 35.7198 22.5426C38.0206 22.1366 39.9831 21.4599 41.7426 20.5801C43.5697 19.6327 45.3292 18.144 47.0209 16.5198C48.1714 15.4371 49.1864 14.016 50.3368 12.5949V11.9858C48.9834 13.6776 47.7653 15.0311 46.4796 16.2491Z" fill="#BBBDBF"/>
<path d="M39.9831 25.3172C38.4267 26.1969 37.2762 26.7383 35.0431 26.9413C33.6896 27.0767 32.3362 27.1443 30.9828 27.212C30.3061 27.212 29.697 27.2797 29.0203 27.3473C24.96 27.5504 20.9674 27.821 16.9071 28.0917L5.60596 28.9038V30.6633L16.9748 29.5805C20.629 29.2422 24.8923 28.8361 29.088 28.4978L32.1332 28.2947C33.2836 28.2271 34.2987 28.0917 35.1784 27.9564C37.4792 27.6857 39.4417 27.212 41.2012 26.5353C43.096 25.8586 44.8554 24.7082 46.6149 23.4224C48.239 22.272 50.4045 19.9711 50.4045 19.9035V19.2944C48.9834 20.7155 48.1037 21.5276 46.5472 22.5427C44.5848 23.8961 41.4042 24.5728 39.9831 25.3172Z" fill="#BBBDBF"/>
<path d="M40.5247 28.701C38.8329 29.1747 36.9381 29.513 34.7049 29.716C33.8252 29.7837 32.8101 29.8514 31.7274 29.9191L28.7498 30.0544C21.306 30.3928 13.8621 30.7988 5.67383 31.2048V32.9643C13.5237 32.3552 21.1706 31.7462 28.8852 31.2048L31.8627 31.0018C33.0131 30.9341 33.9605 30.8665 34.9079 30.7311C37.2088 30.4604 39.1712 30.0544 40.863 29.513C42.7578 28.904 44.6526 28.0243 46.4121 26.8738C47.6979 26.0618 49.0513 25.0467 50.4047 23.8286C48.9159 25.1144 47.4948 25.3851 46.0737 26.2648C44.2466 27.3475 42.4195 28.1596 40.5247 28.701Z" fill="#BBBDBF"/>
<path d="M40.2538 31.6106C38.562 32.0167 36.6672 32.2873 34.434 32.4227C33.5543 32.4904 32.6069 32.558 31.4565 32.558L28.4789 32.6934C20.9674 32.9641 13.3882 33.3024 5.60596 33.6408V35.4002C13.3205 34.8589 20.8997 34.3852 28.5466 33.8438L31.5242 33.6408C32.6746 33.5731 33.622 33.5054 34.5017 33.4378C36.8025 33.2347 38.6973 32.8964 40.4568 32.4227C42.4193 31.8813 44.3141 31.1369 46.1412 30.1895C47.5623 29.4451 48.9157 28.5654 50.3368 27.4827V26.7383C48.7804 27.8887 47.2916 28.7684 45.8029 29.5128C44.0434 30.4602 42.1486 31.1369 40.2538 31.6106Z" fill="#BBBDBF"/>
<path d="M39.9831 34.4531C38.2913 34.7914 36.3965 34.9944 34.1633 35.0621C33.2836 35.1298 32.4039 35.1298 31.2535 35.1975L5.60596 35.8742V37.6336L28.3436 36.4155L31.3211 36.2802C32.4716 36.2125 33.419 36.1449 34.2987 36.0772C36.5995 35.8742 38.4266 35.6712 40.1861 35.2651C42.1486 34.8591 44.1111 34.2501 45.9382 33.438C47.427 32.829 48.8481 32.0846 50.4045 31.1372V30.4604C48.7804 31.4079 47.2239 32.1522 45.6675 32.7613C43.8404 33.5733 41.9456 34.1147 39.9831 34.4531Z" fill="#BBBDBF"/>
<path d="M39.7801 37.2952C36.5995 37.7012 33.419 37.7689 30.2384 37.8366C29.494 37.8366 28.8173 37.8366 28.0729 37.9043L5.60596 38.3103V40.0698L28.1406 39.1224C28.885 39.1224 29.5617 39.0547 30.3061 39.0547C33.4866 38.9193 36.7349 38.784 39.9154 38.3103C41.9456 37.9719 43.908 37.4982 45.6675 36.8892C47.1563 36.4155 48.7127 35.7388 50.2692 34.9267V34.25C48.6451 34.9944 46.9533 35.6711 45.3968 36.1448C43.705 36.6185 41.8102 37.0922 39.7801 37.2952Z" fill="#BBBDBF"/>
<path d="M39.6447 40.2051C36.6672 40.4758 33.6896 40.4758 30.7121 40.4758C29.8324 40.4758 28.885 40.4758 28.0052 40.4758C20.5614 40.4758 13.1175 40.5435 5.60596 40.6112V42.3706C12.7791 42.0999 20.426 41.8969 28.0729 41.6262C28.9526 41.6262 29.9 41.5586 30.7798 41.5586C33.6896 41.4909 36.7349 41.4232 39.7124 41.0849C41.8102 40.8818 43.705 40.5435 45.5322 40.0698C47.0886 39.6638 48.7127 39.1224 50.4045 38.5133V37.9043C48.7127 38.5133 47.0209 38.987 45.3968 39.3931C43.5697 39.7991 41.6749 40.0698 39.6447 40.2051Z" fill="#BBBDBF"/>
<path d="M39.5094 43.047C38.2913 43.1147 36.9379 43.1147 35.4491 43.1147C34.9077 43.1147 34.2987 43.1147 33.7573 43.1147L27.9376 43.047C23.9449 43.047 20.02 42.9793 16.2981 42.9793L5.60596 43.047V44.8064L16.3657 44.5358C20.0877 44.4681 24.0126 44.3327 27.9376 44.2651L33.7573 44.1974C35.3814 44.1974 37.4792 44.1297 39.5771 43.9944C41.6749 43.859 43.5697 43.656 45.3968 43.3853C47.0209 43.1147 48.7127 42.7763 50.4045 42.3703V41.7612C48.7127 42.1673 46.9533 42.5056 45.3291 42.7086C43.4343 42.844 41.6072 42.9793 39.5094 43.047Z" fill="#BBBDBF"/>
<path d="M33.6896 45.8219L27.8699 45.7543C20.4937 45.6189 13.1175 45.4836 5.60596 45.3482V47.1077C12.7791 47.04 20.3584 46.9724 27.8699 46.9047L33.6896 46.837C35.6521 46.837 37.5469 46.7693 39.5094 46.7017C43.502 46.5663 47.0209 46.2956 50.4045 45.8219V45.2129C47.0886 45.5512 43.502 45.7543 39.5094 45.8219C37.5469 45.8219 35.5844 45.8219 33.6896 45.8219Z" fill="#BBBDBF"/>
<path d="M50.3368 48.9346L5.60596 47.7842V49.5436H50.3368V48.9346Z" fill="#BBBDBF"/>
<path d="M46.3442 19.4976C44.6524 20.851 43.299 21.8661 41.2689 22.6782C39.4417 23.4226 37.4793 23.6933 35.3138 24.0316C33.8927 24.2346 32.4039 24.5053 30.9828 24.6407C30.3737 24.7083 29.8324 24.7083 29.2233 24.776L5.60596 26.4678V28.2272L29.2233 25.9264L32.2685 25.6557C33.419 25.5204 34.434 25.4527 35.3814 25.2497C37.6823 24.9113 39.6447 24.3023 41.4042 23.4902C43.2313 22.6782 45.1261 21.3247 46.8179 19.9036C47.9683 18.8886 49.1188 17.6705 50.3368 16.3171V15.708C48.8481 17.1968 47.63 18.4825 46.3442 19.4976Z" fill="#BBBDBF"/>
<path d="M69.3525 4.60986C69.3525 4.60986 77.4055 17.3998 78.8942 19.7683C80.383 22.1368 82.0748 23.9639 88.0299 25.2497C93.985 26.5354 96.5565 27.0768 96.5565 27.0768V27.5505C96.5565 27.5505 92.7669 26.7385 87.8945 25.6557C83.0222 24.573 81.0597 24.2346 78.8266 21.1217C76.9994 18.5502 69.3525 7.65508 69.3525 7.65508V4.60986Z" fill="#BBBDBF"/>
<path d="M69.3525 19.2271C69.3525 19.2271 76.6611 26.8739 78.8266 29.1071C81.0597 31.4756 83.9696 32.2877 87.9622 33.032C91.7518 33.7088 96.5565 34.5208 96.5565 34.5208V34.9268C96.5565 34.9268 92.0225 34.1825 87.9622 33.5057C83.9696 32.829 81.1274 32.423 78.8266 30.3252C76.7964 28.4304 69.4202 21.5279 69.4202 21.5279L69.3525 19.2271Z" fill="#BBBDBF"/>
<path d="M69.3525 22.7456C69.3525 22.7456 76.3227 29.2421 78.8266 31.4076C81.1274 33.4377 82.9545 34.0468 87.9622 34.9942C92.9699 35.8739 96.5565 36.4153 96.5565 36.4153V36.889C96.5565 36.889 92.0225 36.1446 87.9622 35.4679C83.9019 34.7911 81.2627 34.5881 78.8266 32.558C75.9844 30.2571 69.3525 24.8434 69.3525 24.8434V22.7456Z" fill="#BBBDBF"/>
<path d="M69.3525 26.4004C69.3525 26.4004 77.3378 32.6938 78.8266 33.8443C80.3153 34.927 82.2778 36.2128 87.9622 37.0925C93.6466 37.9046 96.5565 38.3106 96.5565 38.3106V38.7843C96.5565 38.7843 91.4135 38.0399 87.9622 37.6339C84.511 37.2278 81.8718 37.0248 78.8266 34.9947C75.849 33.0322 69.3525 28.4305 69.3525 28.4305V26.4004Z" fill="#BBBDBF"/>
<path d="M69.3525 29.9189C69.3525 29.9189 77.3378 35.265 78.8266 36.0771C80.3153 36.8891 82.1425 38.3102 87.9622 39.0546C93.782 39.799 96.5565 40.1373 96.5565 40.1373V40.611C96.5565 40.611 91.7518 40.0697 87.9622 39.6636C84.1726 39.2576 81.6011 38.7162 78.8266 37.1598C76.052 35.6034 69.3525 31.7461 69.3525 31.7461V29.9189Z" fill="#BBBDBF"/>
<path d="M69.3525 33.5059C69.3525 33.5059 76.3904 37.3631 78.8266 38.5136C81.4657 39.867 83.7666 40.476 87.9622 41.0174C92.0902 41.4911 96.5565 41.9648 96.5565 41.9648V42.3708C96.5565 42.3708 92.4285 41.8971 87.9622 41.4911C83.5636 41.0851 82.0071 40.8821 78.8266 39.461C75.9844 38.1752 69.3525 35.13 69.3525 35.13V33.5059Z" fill="#BBBDBF"/>
<path d="M69.3528 37.0923C69.3528 37.0923 74.9019 39.4608 78.8268 41.0172C82.6841 42.5737 85.594 42.709 87.9625 42.912C88.9776 43.0474 96.4891 43.7918 96.4891 43.7918V44.1978C96.4891 44.1978 92.0228 43.8594 87.8948 43.4534C83.8345 43.1151 82.0751 42.912 78.7592 41.8293C75.4433 40.7465 69.2852 38.5811 69.2852 38.5811L69.3528 37.0923Z" fill="#BBBDBF"/>
<path d="M69.3525 40.7461C69.3525 40.7461 74.9693 42.5056 78.8266 43.5206C82.6838 44.5357 86.2028 44.9417 87.9622 45.0771C89.7217 45.2124 96.5565 45.7538 96.5565 45.7538V46.1598C96.5565 46.1598 92.6992 45.8891 87.9622 45.5508C84.1049 45.2801 81.0597 45.0094 78.8266 44.468C76.3227 43.9267 69.3525 42.2349 69.3525 42.2349V40.7461Z" fill="#BBBDBF"/>
<path d="M69.3525 44.333C69.3525 44.333 73.9542 45.1451 78.8266 45.9571C82.4808 46.5662 87.4208 46.9722 87.9622 46.9722C88.5036 46.9722 96.5565 47.5812 96.5565 47.5812V47.9873C96.5565 47.9873 91.4135 47.7166 87.9622 47.5136C84.3756 47.3106 80.8567 47.1075 78.8266 46.9045C74.2926 46.4308 69.3525 45.8218 69.3525 45.8218V44.333Z" fill="#BBBDBF"/>
<path d="M69.3525 48.1226C69.3525 48.1226 76.5934 48.3932 78.8266 48.4609C81.0597 48.5286 96.5565 49.1376 96.5565 49.1376V49.5437H69.3525V48.1226Z" fill="#BBBDBF"/>
<path d="M87.9619 27.2122C81.3978 25.7911 79.909 23.4226 78.8263 21.9338C77.7435 20.445 69.4199 8.26416 69.4199 8.26416V11.0387C69.7583 11.4447 76.8638 20.7834 78.8939 23.3549C81.1271 26.2648 84.646 26.9415 88.0296 27.6182C91.4132 28.3626 96.6239 29.3777 96.6239 29.3777V28.9717C96.5562 28.9717 89.6537 27.6182 87.9619 27.2122Z" fill="#BBBDBF"/>
<path d="M87.9619 29.1744C82.5482 28.0917 80.3827 26.3999 78.8263 24.3697C77.2698 22.2719 69.4199 11.9858 69.4199 11.9858V14.5574C69.7583 14.9634 76.9315 23.4223 78.8263 25.6555C81.0594 28.227 84.1723 28.9037 87.9619 29.5804C91.7515 30.2572 96.5562 31.2046 96.5562 31.2046V30.7985C96.5562 30.7985 91.0748 29.7835 87.9619 29.1744Z" fill="#BBBDBF"/>
<path d="M87.9622 31.137C82.3455 30.0543 81.1951 29.1745 78.8266 26.5353C77.3378 24.9112 69.6909 15.9109 69.3525 15.5049V17.8734C69.3525 17.8734 76.4581 25.4526 78.7589 27.7534C81.7364 30.731 84.5786 30.934 87.8945 31.543C91.2105 32.1521 96.4888 33.0995 96.4888 33.0995V32.6935C96.5565 32.6935 90.1954 31.6107 87.9622 31.137Z" fill="#BBBDBF"/>
<path d="M63.3976 23.2871H24.2158V49.476H63.3976V23.2871Z" fill="#034DA1"/>
<path d="M44.2465 27.0092H45.6L44.5172 27.8889L44.9233 29.2424L43.8405 28.4303L42.7578 29.2424L43.1638 27.8889L42.0811 27.0092H43.4345L43.8405 25.6558L44.2465 27.0092Z" fill="#FFF100"/>
<path d="M44.2465 44.4684H45.6L44.5172 45.2804L44.9233 46.5662L43.8405 45.7541L42.7578 46.5662L43.1638 45.2804L42.0811 44.4684H43.4345L43.8405 43.1826L44.2465 44.4684Z" fill="#FFF100"/>
<path d="M48.5771 43.318H49.9305L48.8478 44.13L49.2538 45.4158L48.1711 44.6037L47.0883 45.4158L47.4944 44.13L46.4116 43.318H47.7651L48.1711 42.0322L48.5771 43.318Z" fill="#FFF100"/>
<path d="M48.5773 28.1593H49.9307L48.848 28.9714L49.254 30.2571L48.1713 29.4451L47.0885 30.3248L47.5622 28.9714L46.4795 28.1593H47.8329L48.239 26.8735L48.5773 28.1593Z" fill="#FFF100"/>
<path d="M51.8256 31.4078H53.1791L52.0963 32.2199L52.5024 33.5056L51.4196 32.6936L50.3369 33.5056L50.7429 32.2199L49.6602 31.4078H51.0136L51.4196 30.1221L51.8256 31.4078Z" fill="#FFF100"/>
<path d="M51.8256 40.2052H53.1791L52.0963 41.0173L52.5024 42.303L51.4196 41.491L50.3369 42.303L50.7429 41.0173L49.6602 40.2052H51.0136L51.4196 38.9194L51.8256 40.2052Z" fill="#FFF100"/>
<path d="M53.0437 35.7389H54.3971L53.3144 36.5509L53.7204 37.8367L52.6377 37.0246L51.5549 37.8367L51.961 36.5509L50.8105 35.7389H52.164L52.57 34.4531L53.0437 35.7389Z" fill="#FFF100"/>
<path d="M39.7797 28.1595H41.1332L40.0504 28.9716L40.4565 30.2573L39.4414 29.5129L38.291 30.325L38.697 29.0392L37.6143 28.2272H38.9677L39.4414 26.9414L39.7797 28.1595Z" fill="#FFF100"/>
<path d="M36.6674 31.4078H38.0209L36.9381 32.2199L37.3442 33.5056L36.2614 32.6936L35.1787 33.5056L35.5847 32.2199L34.502 31.4078H35.8554L36.2614 30.1221L36.6674 31.4078Z" fill="#FFF100"/>
<path d="M35.5166 35.7389H36.87L35.7872 36.5509L36.1933 37.8367L35.1105 37.0246L34.0278 37.8367L34.4338 36.5509L33.3511 35.7389H34.7045L35.1105 34.4531L35.5166 35.7389Z" fill="#FFF100"/>
<path d="M36.6674 40.2052H38.0209L36.9381 41.0173L37.3442 42.303L36.2614 41.491L35.1787 42.303L35.5847 41.0173L34.502 40.2052H35.8554L36.2614 38.9194L36.6674 40.2052Z" fill="#FFF100"/>
<path d="M39.8476 43.3854H41.201L40.1183 44.1974L40.5243 45.4832L39.4416 44.6711L38.3588 45.4832L38.7649 44.1974L37.6821 43.3854H39.0356L39.4416 42.0996L39.8476 43.3854Z" fill="#FFF100"/>
<path d="M6.00781 57.0193C6.00781 56.7547 6.09522 56.6665 6.3574 56.6665H12.8247C13.0869 56.6665 13.1743 56.7547 13.1743 57.0193V58.0778C13.1743 58.2542 13.0869 58.4306 12.8247 58.4306H8.01792V61.5178H12.3003C12.5625 61.5178 12.6499 61.606 12.6499 61.8706V62.9291C12.6499 63.1055 12.5625 63.2819 12.3003 63.2819H8.01792V66.8101H12.9121C13.0869 66.8101 13.2617 66.8983 13.2617 67.1629V68.2214C13.2617 68.3978 13.1743 68.5742 12.9121 68.5742H6.3574C6.09522 68.5742 6.00781 68.486 6.00781 68.2214V57.0193Z" fill="#626366"/>
<path d="M22.0883 68.4862H20.8648C20.7774 68.4862 20.69 68.4862 20.6026 68.398C20.5152 68.3098 20.5152 68.2216 20.5152 68.1333V67.5159C20.3404 67.6041 20.1656 67.7805 19.9034 67.8687C19.6413 67.9569 19.4665 68.1333 19.2043 68.2216C18.9421 68.3098 18.6799 68.398 18.4177 68.4862C18.1555 68.5744 17.8933 68.5744 17.6312 68.5744C17.0194 68.5744 16.5824 68.4862 16.2328 68.3098C15.8832 68.1333 15.621 67.9569 15.4463 67.6041C15.2715 67.3395 15.1841 66.9867 15.0967 66.5457C15.0093 66.1046 15.0093 65.7518 15.0093 65.2226V60.0185C15.0093 59.7539 15.0967 59.6657 15.3589 59.6657H16.6698C16.8446 59.6657 17.0194 59.7539 17.0194 60.0185V64.958C17.0194 65.2226 17.0194 65.4872 17.1068 65.6636C17.1068 65.84 17.1942 66.0164 17.2816 66.1928C17.369 66.3692 17.5438 66.4575 17.6312 66.5457C17.7185 66.6339 17.9807 66.6339 18.2429 66.6339C18.4177 66.6339 18.5925 66.6339 18.8547 66.5457C19.1169 66.4575 19.2917 66.3692 19.5539 66.281C19.816 66.1928 19.9908 66.1046 20.1656 66.0164C20.3404 65.9282 20.5152 65.84 20.6026 65.7518V59.8421C20.6026 59.7539 20.6026 59.6657 20.69 59.5775C20.7774 59.4893 20.8648 59.4893 20.9522 59.4893H22.1757C22.4379 59.4893 22.5253 59.5775 22.5253 59.8421V67.8687C22.4379 68.3098 22.3505 68.4862 22.0883 68.4862Z" fill="#626366"/>
<path d="M26.5462 68.1332C26.5462 68.3978 26.4588 68.486 26.1966 68.486H24.8857C24.6235 68.486 24.5361 68.3978 24.5361 68.1332V60.1066C24.5361 59.8419 24.6235 59.7537 24.8857 59.7537H26.1092C26.3714 59.7537 26.4588 59.8419 26.4588 60.1066V60.9004C26.5462 60.8122 26.721 60.6358 26.9832 60.5476C27.158 60.3712 27.4202 60.283 27.6824 60.1948C27.9446 60.1066 28.2068 60.0183 28.3815 59.8419C28.6437 59.7537 28.8185 59.6655 29.0807 59.6655C29.1681 59.6655 29.2555 59.6655 29.3429 59.6655C29.4303 59.6655 29.4303 59.7537 29.5177 59.9301L29.6051 61.0768C29.6051 61.165 29.6051 61.3414 29.6051 61.3414C29.6051 61.4296 29.5177 61.4296 29.2555 61.5178C28.9933 61.606 28.7311 61.606 28.4689 61.6942C28.2068 61.7825 27.9446 61.8707 27.6824 61.8707C27.4202 61.9589 27.158 62.0471 26.9832 62.1353C26.721 62.2235 26.5462 62.3117 26.4588 62.3117V68.1332H26.5462Z" fill="#626366"/>
<path d="M38.1698 63.9874C38.1698 64.5166 38.1698 65.0459 38.0825 65.5751C37.9951 66.1043 37.8203 66.6335 37.5581 67.0746C37.2959 67.5156 36.9463 67.8684 36.4219 68.2212C35.8975 68.4859 35.1984 68.6623 34.3244 68.6623C33.4505 68.6623 32.7513 68.4859 32.2269 68.2212C31.7025 67.9566 31.353 67.6038 31.0908 67.0746C30.8286 66.6335 30.6538 66.1043 30.6538 65.5751C30.5664 65.0459 30.5664 64.5166 30.5664 63.9874C30.5664 63.5464 30.5664 63.1054 30.6538 62.5761C30.7412 62.0469 30.916 61.6059 31.1782 61.1648C31.4404 60.7238 31.7899 60.371 32.3143 60.0182C32.8387 59.7536 33.4505 59.5771 34.3244 59.5771C35.1984 59.5771 35.8976 59.6654 36.3345 59.93C36.8589 60.1946 37.2085 60.5474 37.4707 60.9884C37.7329 61.4295 37.9077 61.8705 37.995 62.3997C38.0824 62.9289 38.1698 63.4582 38.1698 63.9874ZM36.1597 64.0756C36.1597 63.6346 36.1597 63.1936 36.0723 62.8407C35.9849 62.4879 35.8976 62.2233 35.8102 61.9587C35.6354 61.6941 35.4606 61.5177 35.1984 61.4295C34.9362 61.3412 34.674 61.253 34.237 61.253C33.8874 61.253 33.5379 61.3412 33.3631 61.4295C33.1883 61.5177 32.9261 61.6941 32.8387 61.9587C32.6639 62.2233 32.5765 62.4879 32.5765 62.8407C32.4891 63.1936 32.4891 63.6346 32.4891 64.0756C32.4891 64.5166 32.4891 64.9577 32.5765 65.3105C32.6639 65.6633 32.7513 65.9279 32.8387 66.1925C32.9261 66.4571 33.1883 66.6335 33.3631 66.7218C33.5379 66.81 33.8874 66.8982 34.237 66.8982C34.674 66.8982 34.9362 66.81 35.1984 66.7218C35.4606 66.6335 35.6354 66.4571 35.8102 66.1925C35.9849 65.9279 36.0723 65.6633 36.0723 65.3105C36.1597 64.9577 36.1597 64.6048 36.1597 64.0756Z" fill="#626366"/>
<path d="M47.434 64.0756C47.434 64.7812 47.3466 65.3987 47.2592 66.0161C47.1718 66.5453 46.997 67.0746 46.7348 67.4274C46.4726 67.7802 46.1231 68.133 45.6861 68.3094C45.2491 68.4859 44.6373 68.5741 43.9382 68.5741C43.676 68.5741 43.3264 68.5741 42.8894 68.4859C42.5398 68.3976 42.1028 68.3094 41.6659 68.2212V71.3084C41.6659 71.3966 41.6659 71.4848 41.5785 71.573C41.4911 71.6612 41.4037 71.6612 41.3163 71.6612H40.0927C39.918 71.6612 39.8306 71.6612 39.8306 71.573C39.8306 71.4848 39.7432 71.3966 39.7432 71.3084V60.1064C39.7432 59.8418 39.8306 59.7536 40.0927 59.7536H41.3163C41.4037 59.7536 41.4911 59.7536 41.5785 59.8418C41.6659 59.93 41.6659 60.0182 41.6659 60.1064V60.6356H41.7533C41.9281 60.5474 42.1028 60.4592 42.2776 60.2828C42.4524 60.1946 42.7146 60.0182 42.9768 59.93C43.239 59.8418 43.5012 59.7536 43.7634 59.6654C44.0256 59.5771 44.2877 59.5771 44.5499 59.5771C45.1617 59.5771 45.5987 59.6654 45.9483 59.93C46.2979 60.1064 46.6474 60.4592 46.8222 60.812C46.997 61.1648 47.1718 61.6941 47.2592 62.2233C47.434 62.7525 47.434 63.37 47.434 64.0756ZM45.4239 64.0756C45.4239 63.5464 45.4239 63.0171 45.3365 62.7525C45.2491 62.4879 45.1617 62.1351 45.0743 61.9587C44.9869 61.7823 44.8121 61.6059 44.6373 61.6059C44.4625 61.5177 44.2877 61.5177 44.0256 61.5177C43.8508 61.5177 43.676 61.5177 43.4138 61.6059C43.1516 61.6941 42.9768 61.6941 42.7146 61.7823C42.5398 61.8705 42.2776 61.9587 42.1028 62.0469C41.9281 62.1351 41.7533 62.2233 41.5785 62.3115V66.7218C42.0155 66.81 42.365 66.8982 42.6272 66.9864C42.8894 67.0746 43.239 67.0746 43.5886 67.0746C43.9382 67.0746 44.2004 66.9864 44.3751 66.8982C44.5499 66.81 44.7247 66.6335 44.8995 66.4571C45.0743 66.1925 45.1617 65.9279 45.1617 65.5751C45.4239 65.0459 45.4239 64.6048 45.4239 64.0756Z" fill="#626366"/>
<path d="M50.8421 64.6052C50.8421 65.0462 50.9295 65.399 51.0169 65.7518C51.1043 66.0165 51.2791 66.2811 51.4539 66.4575C51.6287 66.6339 51.8035 66.7221 52.0657 66.8103C52.3279 66.8985 52.5901 66.8985 53.027 66.8985C53.3766 66.8985 53.7262 66.8985 54.1632 66.8103C54.6002 66.7221 54.9497 66.7221 55.2993 66.7221C55.4741 66.7221 55.5615 66.7221 55.6489 66.7221C55.7363 66.7221 55.7363 66.8103 55.8237 66.9867L55.9111 67.6042C55.9111 67.6924 55.9111 67.8688 55.9111 67.957C55.9111 68.0452 55.8237 68.1334 55.6489 68.2216C55.4741 68.3098 55.2993 68.398 55.0371 68.398C54.775 68.398 54.6002 68.4862 54.338 68.5744C54.0758 68.6626 53.8136 68.6626 53.5514 68.6626C53.2892 68.6626 53.027 68.6626 52.8522 68.6626C51.9783 68.6626 51.3665 68.5744 50.8421 68.3098C50.3178 68.0452 49.9682 67.6924 49.706 67.3395C49.4438 66.8985 49.269 66.4575 49.1816 65.9283C49.0942 65.399 49.0068 64.8698 49.0068 64.2524C49.0068 63.8113 49.0068 63.3703 49.0942 62.8411C49.1816 62.3119 49.3564 61.7826 49.6186 61.3416C49.8808 60.9006 50.2304 60.4595 50.7548 60.1949C51.2791 59.8421 51.8909 59.7539 52.7648 59.7539C53.5514 59.7539 54.1632 59.8421 54.6876 60.1067C55.2119 60.3713 55.5615 60.636 55.8237 60.9888C56.0859 61.3416 56.2607 61.7826 56.3481 62.2236C56.4355 62.6647 56.5229 63.1939 56.5229 63.6349C56.5229 63.9877 56.5229 64.2524 56.3481 64.4288C56.1733 64.6052 55.9985 64.6934 55.6489 64.6934H50.8421V64.6052ZM52.5901 61.1652C52.2405 61.1652 51.9783 61.2534 51.8035 61.3416C51.6287 61.4298 51.4539 61.6062 51.2791 61.7826C51.1043 61.959 51.0169 62.2236 51.0169 62.4883C50.9295 62.7529 50.9295 63.0175 50.9295 63.3703H54.4254C54.4254 63.1057 54.4254 62.8411 54.338 62.5765C54.2506 62.3119 54.1632 62.1354 54.0758 61.8708C53.9884 61.6062 53.8136 61.518 53.5514 61.4298C53.2018 61.2534 52.9396 61.1652 52.5901 61.1652Z" fill="#626366"/>
<path d="M63.3394 67.4277C62.9025 67.7805 62.3781 68.0451 61.8537 68.2216C61.3293 68.398 60.7176 68.5744 60.1058 68.5744C59.6688 68.5744 59.2318 68.4862 58.9696 68.398C58.6201 68.3098 58.4453 68.1333 58.2705 67.8687C58.0957 67.6923 57.9209 67.4277 57.9209 67.0749C57.8335 66.8103 57.8335 66.4575 57.8335 66.0164C57.8335 64.958 58.0957 64.2523 58.6201 63.7231C59.1444 63.2821 60.0184 63.0175 61.0671 63.0175H63.3394V62.5764C63.3394 62.3118 63.3394 62.1354 63.252 61.8708C63.1646 61.6944 63.0773 61.518 62.9899 61.4298C62.8151 61.3416 62.6403 61.2534 62.4655 61.1652C62.2033 61.0769 61.9411 61.0769 61.5915 61.0769C61.4167 61.0769 61.2419 61.0769 61.0671 61.0769C60.8923 61.0769 60.6302 61.0769 60.4554 61.0769C60.2806 61.0769 60.0184 61.0769 59.8436 61.1652C59.6688 61.1652 59.4066 61.1652 59.2318 61.2534C59.057 61.2534 58.9696 61.2534 58.8822 61.2534C58.7948 61.2534 58.7948 61.1652 58.7075 60.9887L58.5327 60.3713C58.5327 60.2831 58.5327 60.1949 58.5327 60.1067C58.6201 60.0185 58.7075 59.9303 58.8822 59.8421C59.057 59.7539 59.3192 59.7539 59.5814 59.6657C59.8436 59.5775 60.1058 59.5775 60.368 59.5775C60.6302 59.5775 60.8924 59.4893 61.1545 59.4893C61.4167 59.4893 61.6789 59.4893 61.8537 59.4893C62.6403 59.4893 63.252 59.5775 63.689 59.7539C64.126 59.9303 64.4756 60.1067 64.7378 60.3713C65 60.6359 65.0874 60.9887 65.1747 61.4298C65.2621 61.8708 65.2621 62.3118 65.2621 62.7528V66.1928C65.2621 66.3692 65.2621 66.5457 65.2621 66.6339C65.2621 66.7221 65.3495 66.8103 65.3495 66.8985C65.3495 66.9867 65.4369 66.9867 65.5243 66.9867C65.6117 66.9867 65.6991 66.9867 65.8739 67.0749C65.9613 67.0749 66.0487 67.0749 66.1361 67.1631C66.2235 67.1631 66.2235 67.2513 66.2235 67.3395V68.0451C66.2235 68.2216 66.0487 68.398 65.7865 68.398C65.6117 68.398 65.5243 68.398 65.3495 68.4862C65.1747 68.4862 65.0874 68.4862 64.9126 68.4862C64.4756 68.4862 64.2134 68.398 63.9512 68.2216C63.6016 68.1333 63.4268 67.8687 63.3394 67.4277ZM63.252 64.5169H61.1545C60.7176 64.5169 60.368 64.6051 60.1058 64.8698C59.8436 65.0462 59.7562 65.4872 59.7562 66.0164C59.7562 66.3692 59.8436 66.6339 60.0184 66.8103C60.1932 66.9867 60.4554 67.0749 60.8923 67.0749C61.0671 67.0749 61.2419 67.0749 61.5041 66.9867C61.7663 66.8985 61.9411 66.8985 62.2033 66.8103C62.4655 66.7221 62.6403 66.6339 62.8151 66.5457C62.9898 66.4575 63.252 66.3692 63.3394 66.281V64.5169H63.252Z" fill="#626366"/>
<path d="M74.788 68.398C74.7006 68.4862 74.6132 68.4862 74.5258 68.4862H73.2149C72.9527 68.4862 72.8653 68.398 72.8653 68.1334V63.1939C72.8653 62.6647 72.7779 62.2236 72.6031 61.959C72.4283 61.6062 72.0787 61.518 71.5544 61.518C71.3796 61.518 71.2048 61.518 70.9426 61.6062C70.6804 61.6944 70.5056 61.7826 70.2434 61.8708C69.9812 61.959 69.8064 62.0472 69.6317 62.1354C69.4569 62.2236 69.2821 62.3119 69.1947 62.4001V68.3098C69.1947 68.5744 69.1073 68.6626 68.8451 68.6626H67.6216C67.3594 68.6626 67.272 68.5744 67.272 68.3098V60.2831C67.272 60.0185 67.3594 59.9303 67.6216 59.9303H68.8451C69.1073 59.9303 69.1947 60.0185 69.1947 60.2831V60.8124C69.3695 60.7242 69.5443 60.5478 69.8064 60.4595C70.0686 60.3713 70.2434 60.1949 70.5056 60.1067C70.7678 60.0185 71.03 59.9303 71.2922 59.8421C71.5544 59.7539 71.8166 59.7539 72.0787 59.7539C72.6905 59.7539 73.1275 59.8421 73.4771 60.0185C73.8267 60.1949 74.0888 60.4595 74.2636 60.7242C74.4384 60.9888 74.5258 61.4298 74.6132 61.7826C74.7006 62.2236 74.7006 62.5765 74.7006 63.1057V68.2216C74.788 68.2216 74.788 68.3098 74.788 68.398Z" fill="#626366"/>
<path d="M5.83301 80.5695C5.83301 79.7757 5.9204 79.0701 6.0078 78.3644C6.09519 77.6588 6.35738 76.9531 6.70697 76.4239C7.05655 75.8947 7.49353 75.3654 8.1053 75.0126C8.71707 74.6598 9.50364 74.4834 10.5524 74.4834C10.7272 74.4834 10.9894 74.4834 11.2515 74.4834C11.5137 74.4834 11.7759 74.5716 12.1255 74.5716C12.3877 74.5716 12.7373 74.6598 12.9995 74.748C13.2616 74.8362 13.5238 74.9244 13.786 75.0126C13.9608 75.1008 14.0482 75.1008 14.0482 75.189C14.0482 75.2772 14.1356 75.3654 14.1356 75.5419L13.9608 76.2475C13.9608 76.3357 13.8734 76.4239 13.8734 76.5121C13.786 76.6003 13.6986 76.6003 13.5238 76.5121C13.0869 76.4239 12.6499 76.4239 12.1255 76.3357C11.6011 76.2475 11.1642 76.2475 10.7272 76.2475C10.1154 76.2475 9.67842 76.3357 9.32884 76.6003C8.97926 76.8649 8.71707 77.1295 8.45488 77.4824C8.28009 77.8352 8.1053 78.3644 8.1053 78.8054C8.1053 79.2465 8.0179 79.8639 8.0179 80.4813C8.0179 81.0988 8.01791 81.628 8.1053 82.069C8.1927 82.5983 8.2801 83.0393 8.54228 83.3921C8.71707 83.7449 8.97926 84.0977 9.41624 84.2742C9.76582 84.4506 10.2028 84.627 10.8146 84.627C11.3389 84.627 11.7759 84.627 12.2129 84.5388C12.6499 84.4506 13.0869 84.4506 13.6112 84.3624C13.786 84.3624 13.8734 84.3624 13.9608 84.3624C14.0482 84.4506 14.0482 84.4506 14.1356 84.627L14.3104 85.3326C14.3978 85.5972 14.3104 85.7736 14.0482 85.8618C13.8734 85.9501 13.6112 86.0383 13.2616 86.1265C12.9995 86.2147 12.6499 86.2147 12.3877 86.3029C12.1255 86.3911 11.7759 86.3911 11.5137 86.3911C11.2515 86.3911 10.9894 86.3911 10.7272 86.3911C9.76582 86.3911 8.97926 86.2147 8.36749 85.8618C7.75572 85.509 7.23134 85.068 6.96916 84.5388C6.61957 84.0095 6.35738 83.3921 6.26999 82.6865C5.9204 82.069 5.83301 81.3634 5.83301 80.5695Z" fill="#626366"/>
<path d="M23.0497 81.8932C23.0497 82.4224 23.0497 82.9516 22.9623 83.4809C22.8749 84.0101 22.7001 84.5393 22.438 84.9803C22.1758 85.4214 21.8262 85.7742 21.3018 86.127C20.7774 86.3916 20.0783 86.568 19.2043 86.568C18.3304 86.568 17.6312 86.3916 17.1068 86.127C16.5824 85.8624 16.2329 85.5096 15.9707 84.9803C15.7085 84.5393 15.5337 84.0101 15.5337 83.4809C15.4463 82.9516 15.4463 82.4224 15.4463 81.8932C15.4463 81.4521 15.4463 81.0111 15.5337 80.4819C15.6211 79.9527 15.7959 79.5116 16.0581 79.0706C16.3202 78.6296 16.6698 78.2768 17.1942 77.9239C17.7186 77.6593 18.3304 77.4829 19.2043 77.4829C20.0783 77.4829 20.7774 77.5711 21.2144 77.8357C21.7388 78.1003 22.0884 78.4532 22.3506 78.8942C22.6128 79.3352 22.7875 79.7762 22.8749 80.3055C22.9623 80.8347 23.0497 81.3639 23.0497 81.8932ZM21.0396 81.9814C21.0396 81.5403 21.0396 81.0993 20.9522 80.7465C20.8648 80.3937 20.7774 80.1291 20.69 79.8644C20.5152 79.5998 20.3405 79.4234 20.0783 79.3352C19.8161 79.247 19.5539 79.1588 19.1169 79.1588C18.7673 79.1588 18.4177 79.247 18.243 79.3352C18.0682 79.4234 17.806 79.5998 17.7186 79.8644C17.5438 80.1291 17.4564 80.3937 17.4564 80.7465C17.369 81.0993 17.369 81.5403 17.369 81.9814C17.369 82.4224 17.369 82.8634 17.4564 83.2162C17.5438 83.5691 17.6312 83.8337 17.7186 84.0983C17.806 84.3629 18.0682 84.5393 18.243 84.6275C18.4177 84.7157 18.7673 84.8039 19.1169 84.8039C19.5539 84.8039 19.8161 84.7157 20.0783 84.6275C20.3405 84.5393 20.5152 84.3629 20.69 84.0983C20.8648 83.8337 20.9522 83.5691 20.9522 83.2162C20.9522 82.8634 21.0396 82.5106 21.0396 81.9814Z" fill="#626366"/>
<path d="M37.2954 86.3034C37.2954 86.3916 37.208 86.3916 37.0332 86.3916H35.8097C35.5475 86.3916 35.4601 86.3034 35.4601 86.0388V81.0111C35.4601 80.3937 35.3727 79.8644 35.1979 79.688C35.0232 79.4234 34.6736 79.3352 34.2366 79.3352C34.0618 79.3352 33.887 79.3352 33.7122 79.4234C33.5374 79.5116 33.2752 79.5116 33.1004 79.5998C32.9256 79.688 32.6635 79.7762 32.4887 79.8644C32.3139 79.9527 32.1391 80.0409 31.9643 80.1291C31.9643 80.2173 31.9643 80.3055 31.9643 80.4819C31.9643 80.6583 31.9643 80.8347 31.9643 81.0111V86.0388C31.9643 86.127 31.9643 86.2152 31.8769 86.3034C31.7895 86.3916 31.7021 86.3916 31.6147 86.3916H30.3038C30.129 86.3916 30.0416 86.3034 30.0416 86.0388V80.9229C30.0416 80.3937 29.9542 79.9527 29.7794 79.688C29.6046 79.4234 29.3424 79.3352 28.9054 79.3352C28.7307 79.3352 28.5559 79.3352 28.3811 79.4234C28.2063 79.5116 28.0315 79.5116 27.7693 79.5998C27.5945 79.688 27.3323 79.7762 27.1575 79.8644C26.9827 79.9527 26.8079 80.0409 26.6332 80.1291V86.0388C26.6332 86.3034 26.5458 86.3916 26.2836 86.3916H25.06C24.8852 86.3916 24.7104 86.3034 24.7104 86.0388V78.0121C24.7104 77.7475 24.7978 77.6593 25.06 77.6593H26.2836C26.5458 77.6593 26.6332 77.7475 26.6332 78.0121V78.5414C26.8079 78.4532 26.9827 78.2768 27.1575 78.1885C27.3323 78.1003 27.5945 77.9239 27.7693 77.8357C27.9441 77.7475 28.2063 77.6593 28.4685 77.5711C28.7307 77.4829 28.9054 77.4829 29.1676 77.4829C29.692 77.4829 30.129 77.5711 30.566 77.7475C31.0029 77.9239 31.3525 78.2768 31.6147 78.7178C32.0517 78.365 32.5761 78.1003 33.1004 77.8357C33.6248 77.5711 34.1492 77.4829 34.761 77.4829C35.3727 77.4829 35.8097 77.5711 36.1593 77.7475C36.5089 77.9239 36.7711 78.1886 36.9459 78.4532C37.1207 78.7178 37.208 79.0706 37.2954 79.5116C37.3828 79.9526 37.3828 80.3055 37.3828 80.7465V86.0388C37.2954 86.127 37.2954 86.2152 37.2954 86.3034Z" fill="#626366"/>
<path d="M51.7158 86.3034C51.7158 86.3916 51.6284 86.3916 51.4537 86.3916H50.2301C49.9679 86.3916 49.8805 86.3034 49.8805 86.0388V81.0111C49.8805 80.3937 49.7931 79.8644 49.6184 79.688C49.4436 79.4234 49.094 79.3352 48.657 79.3352C48.4822 79.3352 48.3074 79.3352 48.1326 79.4234C47.9578 79.5116 47.6956 79.5116 47.5208 79.5998C47.3461 79.688 47.0839 79.7762 46.9091 79.8644C46.7343 79.9527 46.5595 80.0409 46.3847 80.1291C46.3847 80.2173 46.3847 80.3055 46.3847 80.4819C46.3847 80.6583 46.3847 80.8347 46.3847 81.0111V86.0388C46.3847 86.127 46.3847 86.2152 46.2973 86.3034C46.2099 86.3916 46.1225 86.3916 46.0351 86.3916H44.7242C44.5494 86.3916 44.462 86.3034 44.462 86.0388V80.9229C44.462 80.3937 44.3746 79.9527 44.1998 79.688C44.025 79.4234 43.7628 79.3352 43.3259 79.3352C43.1511 79.3352 42.9763 79.3352 42.8015 79.4234C42.6267 79.5116 42.4519 79.5116 42.1897 79.5998C41.9275 79.688 41.7527 79.7762 41.5779 79.8644C41.4032 79.9527 41.2284 80.0409 41.0536 80.1291V86.0388C41.0536 86.3034 40.9662 86.3916 40.704 86.3916H39.4804C39.3056 86.3916 39.1309 86.3034 39.1309 86.0388V78.0121C39.1309 77.7475 39.2182 77.6593 39.4804 77.6593H40.704C40.9662 77.6593 41.0536 77.7475 41.0536 78.0121V78.5414C41.2284 78.4532 41.4032 78.2768 41.5779 78.1885C41.7527 78.1003 42.0149 77.9239 42.1897 77.8357C42.4519 77.7475 42.6267 77.6593 42.8889 77.5711C43.1511 77.4829 43.3258 77.4829 43.588 77.4829C44.1124 77.4829 44.5494 77.5711 44.9864 77.7475C45.4234 77.9239 45.7729 78.2768 46.0351 78.7178C46.4721 78.365 46.9965 78.1003 47.5208 77.8357C48.0452 77.5711 48.5696 77.4829 49.1814 77.4829C49.7931 77.4829 50.2301 77.5711 50.5797 77.7475C50.9293 77.9239 51.1915 78.1886 51.3663 78.4532C51.5411 78.7178 51.6285 79.0706 51.7158 79.5116C51.8032 79.9526 51.8032 80.3055 51.8032 80.7465V86.0388C51.8032 86.127 51.7158 86.2152 51.7158 86.3034Z" fill="#626366"/>
<path d="M55.9105 75.3654C55.9105 75.5419 55.9105 75.6301 55.9105 75.8065C55.9105 75.8947 55.8231 76.0711 55.7357 76.1593C55.6483 76.2475 55.5609 76.3357 55.3861 76.4239C55.2113 76.5121 55.0365 76.5121 54.8617 76.5121C54.5995 76.5121 54.4248 76.5121 54.3374 76.4239C54.1626 76.3357 54.0752 76.2475 53.9878 76.1593C53.9004 76.0711 53.9004 75.9829 53.813 75.8065C53.813 75.7183 53.813 75.5419 53.813 75.4537C53.813 75.189 53.9004 74.9244 53.9878 74.748C54.1626 74.5716 54.4248 74.4834 54.8617 74.4834C55.2987 74.4834 55.5609 74.5716 55.7357 74.748C55.8231 74.8362 55.9105 75.1008 55.9105 75.3654ZM55.8231 86.0383C55.8231 86.1265 55.8231 86.2147 55.7357 86.3029C55.7357 86.3911 55.6483 86.3911 55.4735 86.3911H54.25C53.9878 86.3911 53.9004 86.3029 53.9004 86.0383V78.0116C53.9004 77.747 53.9878 77.6588 54.25 77.6588H55.4735C55.5609 77.6588 55.6483 77.6588 55.7357 77.747C55.7357 77.8352 55.8231 77.9234 55.8231 78.0116V86.0383Z" fill="#626366"/>
<path d="M64.3882 83.7448C64.3882 84.274 64.3008 84.7151 64.126 85.0679C63.9512 85.4207 63.689 85.6853 63.3394 85.9499C62.9898 86.1263 62.6403 86.3027 62.2033 86.391C61.7663 86.4792 61.3293 86.5674 60.8923 86.5674C60.4554 86.5674 59.931 86.5674 59.494 86.4792C58.9696 86.391 58.5327 86.3027 58.1831 86.2145C58.0083 86.1263 57.9209 86.0381 57.8335 85.9499C57.7461 85.8617 57.7461 85.7735 57.8335 85.5971L57.9209 84.9797C57.9209 84.8033 58.0083 84.7151 58.0957 84.7151C58.1831 84.7151 58.2705 84.7151 58.4452 84.7151C58.62 84.7151 58.8822 84.8033 59.057 84.8033C59.3192 84.8033 59.494 84.8033 59.7562 84.8915C60.0184 84.8915 60.1932 84.8915 60.368 84.9797C60.5428 84.9797 60.7175 84.9797 60.8923 84.9797C61.4167 84.9797 61.8537 84.8915 62.1159 84.7151C62.3781 84.5386 62.4655 84.274 62.4655 83.9212C62.4655 83.7448 62.4655 83.5684 62.3781 83.392C62.2907 83.2156 62.2907 83.1274 62.1159 83.0392C61.9411 82.951 61.8537 82.8628 61.6789 82.8628C61.5041 82.7745 61.2419 82.7745 60.9797 82.6863C60.5428 82.5981 60.1058 82.5099 59.7562 82.4217C59.4066 82.3335 59.057 82.1571 58.7074 81.9807C58.4453 81.8043 58.1831 81.5397 58.0083 81.2751C57.8335 81.0104 57.7461 80.5694 57.7461 80.1284C57.7461 79.2463 58.0083 78.6289 58.6201 78.0997C59.2318 77.6587 60.0184 77.394 60.9797 77.394C61.1545 77.394 61.3293 77.394 61.5915 77.394C61.8537 77.394 62.0285 77.394 62.2907 77.4822C62.5529 77.4822 62.7277 77.5705 62.9898 77.5705C63.252 77.5705 63.4268 77.6587 63.6016 77.7469C63.8638 77.8351 64.0386 78.0115 63.9512 78.2761L63.7764 78.8935C63.7764 78.9817 63.689 79.0699 63.6016 79.1581C63.5142 79.1581 63.4268 79.1581 63.252 79.1581C62.9024 79.0699 62.4655 79.0699 62.0285 78.9817C61.5915 78.9817 61.2419 78.8935 60.8923 78.8935C60.368 78.8935 59.931 78.9817 59.7562 79.1581C59.5814 79.3346 59.494 79.5992 59.494 79.952C59.494 80.3048 59.5814 80.4812 59.8436 80.6576C60.1058 80.7458 60.4554 80.834 60.9797 80.9222C61.4167 81.0104 61.7663 81.0987 62.2033 81.1869C62.6403 81.2751 62.9024 81.4515 63.252 81.6279C63.5142 81.8043 63.7764 82.0689 63.9512 82.4217C64.3008 82.7745 64.3882 83.2156 64.3882 83.7448Z" fill="#626366"/>
<path d="M72.4282 83.7448C72.4282 84.274 72.3408 84.7151 72.166 85.0679C71.9912 85.4207 71.729 85.6853 71.3795 85.9499C71.0299 86.1263 70.6803 86.3027 70.2433 86.391C69.8063 86.4792 69.3694 86.5674 68.9324 86.5674C68.4954 86.5674 67.971 86.5674 67.534 86.4792C67.0097 86.391 66.5727 86.3027 66.2231 86.2145C66.0483 86.1263 65.9609 86.0381 65.8735 85.9499C65.7861 85.8617 65.7861 85.7735 65.8735 85.5971L65.9609 84.9797C65.9609 84.8033 66.0483 84.7151 66.1357 84.7151C66.2231 84.7151 66.3105 84.7151 66.4853 84.7151C66.6601 84.7151 66.9223 84.8033 67.0971 84.8033C67.3593 84.8033 67.5341 84.8033 67.7962 84.8915C68.0584 84.8915 68.2332 84.8915 68.408 84.9797C68.5828 84.9797 68.7576 84.9797 68.9324 84.9797C69.4567 84.9797 69.8937 84.8915 70.1559 84.7151C70.4181 84.5386 70.5055 84.274 70.5055 83.9212C70.5055 83.7448 70.5055 83.5684 70.4181 83.392C70.3307 83.2156 70.3307 83.1274 70.1559 83.0392C69.9811 82.951 69.8937 82.8628 69.7189 82.8628C69.5442 82.7745 69.282 82.7745 69.0198 82.6863C68.5828 82.5981 68.1458 82.5099 67.7962 82.4217C67.4467 82.3335 67.0971 82.1571 66.7475 81.9807C66.4853 81.8043 66.2231 81.5397 66.0483 81.2751C65.8735 81.0104 65.7861 80.5694 65.7861 80.1284C65.7861 79.2463 66.0483 78.6289 66.6601 78.0997C67.2719 77.6587 68.0584 77.394 69.0198 77.394C69.1946 77.394 69.3694 77.394 69.6315 77.394C69.8937 77.394 70.0685 77.394 70.3307 77.4822C70.5929 77.4822 70.7677 77.5705 71.0299 77.5705C71.2921 77.5705 71.4669 77.6587 71.6416 77.7469C71.9038 77.8351 72.0786 78.0115 71.9912 78.2761L71.8164 78.8935C71.8164 78.9817 71.729 79.0699 71.6416 79.1581C71.5543 79.1581 71.4669 79.1581 71.2921 79.1581C70.9425 79.0699 70.5055 79.0699 70.0685 78.9817C69.6315 78.9817 69.282 78.8935 68.9324 78.8935C68.408 78.8935 67.971 78.9817 67.7962 79.1581C67.6214 79.3346 67.534 79.5992 67.534 79.952C67.534 80.3048 67.6214 80.4812 67.8836 80.6576C68.1458 80.7458 68.4954 80.834 69.0198 80.9222C69.4568 81.0104 69.8063 81.0987 70.2433 81.1869C70.6803 81.2751 70.9425 81.4515 71.2921 81.6279C71.5543 81.8043 71.8164 82.0689 71.9912 82.4217C72.3408 82.7745 72.4282 83.2156 72.4282 83.7448Z" fill="#626366"/>
<path d="M76.3612 75.3654C76.3612 75.5419 76.3612 75.6301 76.3612 75.8065C76.3612 75.8947 76.2738 76.0711 76.1864 76.1593C76.099 76.2475 76.0116 76.3357 75.8368 76.4239C75.662 76.5121 75.4872 76.5121 75.3124 76.5121C75.0502 76.5121 74.8754 76.5121 74.7881 76.4239C74.6133 76.3357 74.5259 76.2475 74.4385 76.1593C74.3511 76.0711 74.3511 75.9829 74.2637 75.8065C74.2637 75.7183 74.2637 75.5419 74.2637 75.4537C74.2637 75.189 74.3511 74.9244 74.4385 74.748C74.6133 74.5716 74.8754 74.4834 75.3124 74.4834C75.7494 74.4834 76.0116 74.5716 76.1864 74.748C76.2738 74.8362 76.3612 75.1008 76.3612 75.3654ZM76.2738 86.0383C76.2738 86.1265 76.2738 86.2147 76.1864 86.3029C76.1864 86.3911 76.099 86.3911 75.9242 86.3911H74.7007C74.4385 86.3911 74.3511 86.3029 74.3511 86.0383V78.0116C74.3511 77.747 74.4385 77.6588 74.7007 77.6588H75.9242C76.0116 77.6588 76.099 77.6588 76.1864 77.747C76.1864 77.8352 76.2738 77.9234 76.2738 78.0116V86.0383Z" fill="#626366"/>
<path d="M85.8871 81.8932C85.8871 82.4224 85.8871 82.9516 85.7997 83.4809C85.7123 84.0101 85.5375 84.5393 85.2754 84.9803C85.0132 85.4214 84.6636 85.7742 84.1392 86.127C83.6148 86.3916 82.9157 86.568 82.0417 86.568C81.1677 86.568 80.4686 86.3916 79.9442 86.127C79.4198 85.8624 79.0702 85.5096 78.8081 84.9803C78.5459 84.5393 78.3711 84.0101 78.3711 83.4809C78.2837 82.9516 78.2837 82.4224 78.2837 81.8932C78.2837 81.4521 78.2837 81.0111 78.3711 80.4819C78.4585 79.9527 78.6333 79.5116 78.8955 79.0706C79.1576 78.6296 79.5072 78.2768 80.0316 77.9239C80.556 77.6593 81.1677 77.4829 82.0417 77.4829C82.9157 77.4829 83.6148 77.5711 84.0518 77.8357C84.5762 78.1003 84.9258 78.4532 85.188 78.8942C85.4501 79.3352 85.6249 79.7762 85.7123 80.3055C85.7997 80.8347 85.8871 81.3639 85.8871 81.8932ZM83.877 81.9814C83.877 81.5403 83.877 81.0993 83.7896 80.7465C83.7022 80.3937 83.6148 80.1291 83.5274 79.8644C83.3526 79.5998 83.1778 79.4234 82.9157 79.3352C82.6535 79.247 82.3913 79.1588 81.9543 79.1588C81.6047 79.1588 81.2551 79.247 81.0804 79.3352C80.9056 79.4234 80.6434 79.5998 80.556 79.8644C80.3812 80.1291 80.2938 80.3937 80.2938 80.7465C80.2064 81.0993 80.2064 81.5403 80.2064 81.9814C80.2064 82.4224 80.2064 82.8634 80.2938 83.2162C80.3812 83.5691 80.4686 83.8337 80.556 84.0983C80.6434 84.3629 80.9056 84.5393 81.0804 84.6275C81.2551 84.7157 81.6047 84.8039 81.9543 84.8039C82.3913 84.8039 82.6535 84.7157 82.9157 84.6275C83.1778 84.5393 83.3526 84.3629 83.5274 84.0983C83.7022 83.8337 83.7896 83.5691 83.7896 83.2162C83.7896 82.8634 83.877 82.5106 83.877 81.9814Z" fill="#626366"/>
<path d="M94.9765 86.3034C94.8891 86.3916 94.8017 86.3916 94.7143 86.3916H93.4034C93.1412 86.3916 93.0538 86.3034 93.0538 86.0388V81.0993C93.0538 80.5701 92.9664 80.1291 92.7916 79.8644C92.6168 79.5116 92.2672 79.4234 91.7428 79.4234C91.568 79.4234 91.3933 79.4234 91.1311 79.5116C90.8689 79.5998 90.6941 79.688 90.4319 79.7762C90.1697 79.8644 89.9949 79.9527 89.8201 80.0409C89.6453 80.1291 89.4705 80.2173 89.3832 80.3055V86.0388C89.3832 86.3034 89.2958 86.3916 89.0336 86.3916H87.81C87.5478 86.3916 87.4604 86.3034 87.4604 86.0388V78.0121C87.4604 77.7475 87.5478 77.6593 87.81 77.6593H89.0336C89.2958 77.6593 89.3832 77.7475 89.3832 78.0121V78.5414C89.5579 78.4532 89.7327 78.2768 89.9949 78.1885C90.2571 78.1003 90.4319 77.9239 90.6941 77.8357C90.9563 77.7475 91.2185 77.6593 91.4806 77.5711C91.7428 77.4829 92.005 77.4829 92.2672 77.4829C92.879 77.4829 93.316 77.5711 93.6655 77.7475C94.0151 77.9239 94.2773 78.1886 94.4521 78.4532C94.6269 78.7178 94.7143 79.1588 94.8017 79.5116C94.8891 79.9526 94.8891 80.3055 94.8891 80.8347V86.0388C95.0639 86.127 94.9765 86.2152 94.9765 86.3034Z" fill="#626366"/>
</g>
<defs>
<clipPath id="clip0_1725_2243">
<rect width="89.999" height="89.999" fill="white" transform="translate(4.99951 5.00049)"/>
</clipPath>
</defs>
</svg>
