<svg width="100" height="100" viewBox="0 0 100 100" fill="none" xmlns="http://www.w3.org/2000/svg">
<rect x="-0.000488281" y="0.000488281" width="100" height="100" fill="white"/>
<g clip-path="url(#clip0_1725_2240)">
<path d="M88.3686 42.9199C88.2939 43.136 85.9004 52.1396 84.9558 55.687L80.8355 40.9714H74.6057L70.484 55.6607L66.5549 40.9714H29.9326V60.6341C29.9358 61.4245 30.2523 62.1813 30.8127 62.7386C31.3731 63.296 32.1316 63.6083 32.9219 63.6073H35.9112V55.2319H43.7541V49.7784H35.9119V46.4013H46.5764V63.6059H52.5583V55.2305H60.4012V49.7771H52.5583V46.3973H61.9544L66.9925 63.6005H73.8039L77.6846 50.3911L81.5666 63.6005H88.3706L95.0016 40.9688H91.2044C90.591 40.9711 89.9925 41.1583 89.487 41.5058C88.9815 41.8534 88.5924 42.3452 88.3706 42.9172" fill="#18181A"/>
<path d="M23.589 27.0098L12.6114 65.291L4.99951 65.2822L15.9737 26.999L23.589 27.0098Z" fill="#6FC5E3"/>
<mask id="mask0_1725_2240" style="mask-type:luminance" maskUnits="userSpaceOnUse" x="4" y="27" width="20" height="39">
<path d="M4.99951 65.2812L12.6128 65.2913L23.587 27.0101L15.9791 27L4.99951 65.2812Z" fill="white"/>
</mask>
<g mask="url(#mask0_1725_2240)">
<path d="M15.7901 23.5971L3.59375 66.0635L12.8155 68.712L25.0119 26.2457L15.7901 23.5971Z" fill="#6FC5E3"/>
</g>
<path d="M15.7401 63.6992L13.3028 72.1992L5.69092 72.1898L8.70108 61.6821L15.7401 63.6992Z" fill="#FFD458"/>
<path d="M26.8564 30.5521L15.8795 68.8332L8.26758 68.8252L19.2418 30.542L26.8564 30.5521Z" fill="#DB0058"/>
<mask id="mask1_1725_2240" style="mask-type:luminance" maskUnits="userSpaceOnUse" x="8" y="30" width="19" height="39">
<path d="M8.26807 68.8252L15.876 68.8353L26.8576 30.5507L19.2456 30.542L8.26807 68.8252Z" fill="white"/>
</mask>
<g mask="url(#mask1_1725_2240)">
<path d="M19.0582 27.1386L6.86182 69.605L16.0836 72.2535L28.28 29.7872L19.0582 27.1386Z" fill="#DB0058"/>
</g>
<path d="M18.3825 33.5505L9.28467 65.2775H7.38135L16.4792 33.5479L18.3825 33.5505Z" fill="#5EA84B"/>
<mask id="mask2_1725_2240" style="mask-type:luminance" maskUnits="userSpaceOnUse" x="7" y="33" width="12" height="33">
<path d="M7.38086 65.2754H9.28418L18.382 33.5498H16.4787L7.38086 65.2754Z" fill="white"/>
</mask>
<g mask="url(#mask2_1725_2240)">
<path d="M15.8549 31.648L5.97314 66.0552L9.91924 67.1885L19.801 32.7813L15.8549 31.648Z" fill="#5EA84B"/>
</g>
<path d="M11.601 68.8194L8.271 68.8147L9.28089 65.2996L12.6109 65.3043L21.7121 33.5552H24.0907L13.987 68.7959H11.6084L11.601 68.8194Z" fill="#DA001F"/>
<mask id="mask3_1725_2240" style="mask-type:luminance" maskUnits="userSpaceOnUse" x="8" y="33" width="17" height="36">
<path d="M12.6086 65.3032L9.27796 65.2991L8.26807 68.8142L11.598 68.8203L11.6041 68.7927H13.9841L24.0911 33.5614L21.7118 33.5547L12.6086 65.3032Z" fill="white"/>
</mask>
<g mask="url(#mask3_1725_2240)">
<path d="M18.034 30.6379L6.86182 69.5947L14.327 71.7356L25.4992 32.7788L18.034 30.6379Z" fill="#DA001F"/>
</g>
<path d="M21.7126 33.5555L12.6141 65.2817L9.28418 65.277L18.382 33.5508L21.7126 33.5555Z" fill="#571724"/>
<mask id="mask4_1725_2240" style="mask-type:luminance" maskUnits="userSpaceOnUse" x="9" y="33" width="13" height="33">
<path d="M9.28418 65.2783H12.6141L21.7126 33.554L18.3827 33.5493L9.28418 65.2783Z" fill="white"/>
</mask>
<g mask="url(#mask4_1725_2240)">
<path d="M17.8533 31.2642L7.87891 66.0581L13.1445 67.5676L23.1189 32.7737L17.8533 31.2642Z" fill="#571724"/>
</g>
<path d="M22.575 30.5501L21.7133 33.5576L18.3833 33.5529L19.2451 30.5454L22.575 30.5501Z" fill="#4B1853"/>
<mask id="mask5_1725_2240" style="mask-type:luminance" maskUnits="userSpaceOnUse" x="18" y="30" width="5" height="4">
<path d="M18.3818 33.5524L21.7118 33.5572L22.5749 30.5483H19.245L18.3818 33.5524Z" fill="white"/>
</mask>
<g mask="url(#mask5_1725_2240)">
<path d="M18.7149 28.2594L16.9741 34.3335L22.2405 35.8428L23.9813 29.7687L18.7149 28.2594Z" fill="#4B1853"/>
</g>
</g>
<defs>
<clipPath id="clip0_1725_2240">
<rect width="90" height="45.2003" fill="white" transform="translate(4.99951 27)"/>
</clipPath>
</defs>
</svg>
