<svg width="100" height="100" viewBox="0 0 100 100" fill="none" xmlns="http://www.w3.org/2000/svg">
<rect width="100" height="100" fill="white"/>
<g clip-path="url(#clip0_1954_3612)">
<path d="M71.4702 28.4707L64.7172 28.4619C63.9176 28.4634 63.1511 28.8016 62.5856 29.4025C62.0202 30.0033 61.7018 30.8179 61.7001 31.6679C61.7012 32.5181 62.0194 33.3331 62.585 33.9343C63.1506 34.5355 63.9173 34.8737 64.7172 34.8749L70.3456 34.8694C74.1147 34.8694 77.2394 37.7674 77.2394 41.2527C77.2394 44.7423 74.1727 48.3596 70.4056 48.3596H58.7204V40.7193C58.7204 33.7036 52.9222 28 46.3202 28C44.6268 27.9999 42.9527 28.3819 41.4086 29.121C39.8645 29.86 38.4857 30.9392 37.3633 32.2871C35.1078 29.576 31.4224 28 27.976 28C21.376 28 16.0052 33.7025 16.0052 40.7204L16 52.0715C16 53.8411 17.3512 55.3214 19.0139 55.3214C20.6797 55.3214 22.0299 53.8411 22.0299 52.0715H22.0216L22.0237 41.9159C22.0237 37.9082 24.6951 34.6527 27.976 34.6527C31.2144 34.6527 34.3121 37.8708 34.3535 41.8136L34.3442 52.0715C34.3442 53.8411 35.6954 55.3214 37.3633 55.3214C39.0249 55.3214 40.3814 53.8411 40.3814 52.0715L40.3741 41.8488C40.4031 37.8807 43.0714 34.6527 46.3202 34.6527C49.6021 34.6527 52.7039 37.9082 52.7039 41.9159L52.6895 51.5524C52.6911 52.3309 52.9586 53.0822 53.4425 53.6668C53.9263 54.2512 54.5933 54.6289 55.3195 54.7297L71.5292 54.7561C78.1271 54.7561 83.5 48.2705 83.5 41.2538C83.5 34.2392 78.0764 28.4707 71.4702 28.4707Z" fill="#938514"/>
<path d="M22.4151 66.2807C22.1586 66.0101 21.8693 65.7764 21.556 65.5856C21.2365 65.3894 20.9092 65.2085 20.5746 65.0433C20.2399 64.8791 19.9137 64.7173 19.5945 64.5565C19.2935 64.4078 19.0062 64.2296 18.7362 64.0244C18.4977 63.8444 18.293 63.6184 18.1328 63.3581C17.9806 63.1067 17.9051 62.8073 17.9051 62.4592C17.9051 62.2214 17.945 61.995 18.0243 61.7838C18.1025 61.571 18.2201 61.387 18.377 61.2319C18.5351 61.0774 18.7336 60.9545 18.9778 60.8605C19.2188 60.7683 19.5035 60.7202 19.8313 60.7202C20.1824 60.7202 20.498 60.7683 20.7794 60.8605C21.0606 60.9551 21.3048 61.0587 21.5106 61.1702C21.6104 61.2257 21.6402 61.2404 21.6447 61.2421C21.9724 61.4946 22.2895 61.4402 22.5083 61.1504C22.6875 60.9115 22.6855 60.5594 22.5337 60.3143L22.4948 60.2464C22.4678 60.1981 22.4347 60.1543 22.3958 60.1162C22.3381 60.0562 22.2187 59.9752 22.0375 59.8756C22.0375 59.8756 21.6472 59.6854 21.4148 59.605C21.1816 59.5257 20.935 59.4606 20.6704 59.4125C20.411 59.3643 20.1483 59.3398 19.885 59.3395C19.3763 59.3395 18.9022 59.4125 18.4643 59.5563C18.0253 59.7024 17.6475 59.9129 17.3283 60.1886C17.0101 60.4668 16.7559 60.8186 16.585 61.2172C16.4062 61.6264 16.3146 62.0918 16.3146 62.6154C16.3146 63.1226 16.3918 63.559 16.5466 63.9236C16.7031 64.287 16.9032 64.6029 17.1511 64.8735C17.4007 65.1474 17.6805 65.3812 17.9961 65.5811C18.31 65.7792 18.634 65.9609 18.9682 66.1268C19.2992 66.2909 19.6275 66.4511 19.9435 66.6091C20.2612 66.7676 20.5448 66.9408 20.7933 67.131C21.0417 67.3218 21.2414 67.5414 21.3931 67.7933C21.5445 68.0435 21.6206 68.3475 21.6206 68.7002C21.6206 69.0302 21.565 69.3223 21.4557 69.5787C21.3506 69.8323 21.1906 70.0559 20.989 70.2314C20.7734 70.4165 20.5263 70.5558 20.2612 70.6418C19.9605 70.7421 19.6467 70.7912 19.3316 70.7873C18.882 70.7873 18.4888 70.7312 18.1456 70.6175C17.8447 70.5225 17.5515 70.4021 17.2687 70.2574C17.1971 70.2165 17.1246 70.1776 17.0511 70.1408C16.6946 69.8719 16.3572 69.9376 16.1337 70.254C16.0487 70.376 16.0019 70.5233 16.0001 70.6752C15.9982 70.827 16.0415 70.9756 16.1236 71.0997L16.229 71.2424C16.2992 71.3188 16.4238 71.4123 16.602 71.5221C16.7808 71.6313 17.0027 71.7372 17.2639 71.8396C17.5289 71.9432 17.8279 72.031 18.1647 72.1006C18.1647 72.1006 18.8655 72.207 19.2603 72.207C19.7932 72.2116 20.3236 72.1305 20.8337 71.9664C21.3216 71.8045 21.7454 71.5657 22.105 71.2458C22.4641 70.9294 22.753 70.5318 22.9497 70.0819C23.1522 69.6245 23.2541 69.1026 23.2541 68.5184C23.2541 68.022 23.1772 67.5901 23.0221 67.2255C22.8749 66.8741 22.6695 66.5539 22.4151 66.2802V66.2807ZM39.5097 66.2807C39.2532 66.01 38.964 65.7762 38.6502 65.5856C38.3316 65.3894 38.0043 65.2084 37.6701 65.0433C37.335 64.8791 37.009 64.7173 36.6895 64.5565C36.3884 64.4077 36.1008 64.2296 35.8308 64.0244C35.5923 63.8443 35.3877 63.6183 35.2278 63.3581C35.0752 63.1067 34.9995 62.8073 34.9995 62.4592C34.9995 62.2214 35.0396 61.995 35.1194 61.7838C35.1971 61.571 35.3145 61.387 35.4716 61.2319C35.6303 61.0774 35.8287 60.9545 36.073 60.8605C36.3139 60.7683 36.5986 60.7202 36.9259 60.7202C37.2769 60.7202 37.5923 60.7683 37.8746 60.8605C38.1556 60.9551 38.3999 61.0587 38.6056 61.1702C38.7055 61.2257 38.7349 61.2404 38.7398 61.2421C39.0679 61.4946 39.3841 61.4402 39.6034 61.1504C39.7822 60.9115 39.7806 60.5594 39.6288 60.3143L39.5895 60.2464C39.5629 60.1981 39.5302 60.1542 39.4917 60.1162C39.4324 60.0562 39.3142 59.9752 39.133 59.8756C39.133 59.8756 38.7423 59.6854 38.5103 59.605C38.2767 59.5257 38.0301 59.4606 37.7654 59.4125C37.506 59.3643 37.243 59.3398 36.9795 59.3395C36.4984 59.3357 36.0194 59.4088 35.5587 59.5563C35.1206 59.7024 34.7422 59.9129 34.4235 60.1886C34.1052 60.4668 33.8508 60.8186 33.6802 61.2172C33.5014 61.6264 33.4098 62.0918 33.4098 62.6154C33.4098 63.1226 33.4867 63.559 33.6417 63.9236C33.798 64.287 33.9981 64.6029 34.2464 64.8735C34.4967 65.1484 34.7811 65.3863 35.0911 65.5811C35.4049 65.7792 35.7289 65.9609 36.0631 66.1268C36.3937 66.2909 36.7222 66.4511 37.0384 66.6091C37.3563 66.7676 37.6398 66.9408 37.8877 67.131C38.1368 67.3218 38.3356 67.5414 38.4874 67.7933C38.6396 68.0435 38.7153 68.3475 38.7153 68.7002C38.7153 69.0302 38.6592 69.3223 38.5508 69.5787C38.4457 69.8323 38.2857 70.0559 38.0841 70.2314C37.8799 70.4092 37.6373 70.5467 37.3563 70.6418C37.0556 70.7421 36.7422 70.7912 36.4272 70.7873C35.9772 70.7873 35.5837 70.7312 35.2405 70.6175C34.9398 70.5227 34.6469 70.4023 34.3642 70.2574C34.2926 70.2163 34.2198 70.1774 34.1461 70.1408C33.7898 69.8719 33.4519 69.9376 33.2281 70.254C33.1431 70.3759 33.0964 70.5234 33.0948 70.6753C33.0927 70.8271 33.1365 70.9757 33.2187 71.0997L33.3239 71.2424C33.3942 71.3188 33.519 71.4123 33.6966 71.5221C33.8753 71.6313 34.0979 71.7372 34.3589 71.8396C34.6227 71.9432 34.923 72.031 35.2593 72.1006C35.2593 72.1006 35.9605 72.207 36.3548 72.207C36.8879 72.2116 37.4185 72.1305 37.9286 71.9664C38.4166 71.8045 38.8405 71.5657 39.1992 71.2458C39.5588 70.9291 39.8476 70.5317 40.0456 70.0819C40.2477 69.6245 40.3488 69.1026 40.3488 68.5184C40.3488 68.022 40.2723 67.5901 40.1172 67.2255C39.97 66.8741 39.7638 66.5539 39.5097 66.2802V66.2807ZM81.39 66.2807C81.1335 66.01 80.8451 65.7764 80.5313 65.5856C80.2118 65.3896 79.8846 65.2086 79.5503 65.0433C79.2153 64.8791 78.8892 64.7173 78.5706 64.5565C78.2695 64.4078 77.9819 64.2296 77.7119 64.0244C77.473 63.8446 77.2684 63.6186 77.1085 63.3581C76.9563 63.1067 76.8806 62.8073 76.8806 62.4592C76.8806 62.2214 76.9207 61.995 76.9992 61.7838C77.0782 61.571 77.1956 61.387 77.3527 61.2319C77.5102 61.0774 77.7098 60.9545 77.9532 60.8605C78.195 60.7683 78.4789 60.7202 78.8062 60.7202C79.1576 60.7202 79.4734 60.7683 79.7549 60.8605C80.0359 60.9551 80.2797 61.0587 80.4859 61.1702C80.5861 61.2257 80.6152 61.2404 80.6201 61.2421C80.9478 61.4946 81.2644 61.4402 81.4841 61.1504C81.6633 60.9115 81.6604 60.5594 81.5095 60.3143L81.4698 60.2464C81.4436 60.1979 81.4105 60.1539 81.3716 60.1162C81.3131 60.0562 81.1945 59.9752 81.0132 59.8756C81.0132 59.8756 80.6234 59.6854 80.391 59.605C80.1566 59.5257 79.9103 59.4606 79.6461 59.4125C79.3867 59.3643 79.1236 59.3399 78.8606 59.3395C78.3513 59.3395 77.8771 59.4125 77.4386 59.5563C77.0009 59.7024 76.6225 59.9129 76.305 60.1886C75.9859 60.4665 75.7311 60.8183 75.5601 61.2172C75.3813 61.6264 75.2896 62.0918 75.2896 62.6154C75.2896 63.1226 75.3678 63.559 75.5216 63.9236C75.6787 64.287 75.8783 64.6029 76.1262 64.8735C76.3758 65.1474 76.6556 65.3812 76.9714 65.5811C77.2856 65.7792 77.6092 65.9609 77.9438 66.1268C78.2748 66.2909 78.6025 66.4511 78.9191 66.6091C79.2366 66.7676 79.5205 66.9408 79.7684 67.131C80.0175 67.3218 80.2163 67.5414 80.3685 67.7933C80.5203 68.0435 80.5964 68.3475 80.5964 68.7002C80.5964 69.0302 80.5403 69.3223 80.4319 69.5787C80.3227 69.8368 80.1656 70.0553 79.9647 70.2314C79.7487 70.4164 79.5016 70.5557 79.2366 70.6418C78.9359 70.7421 78.6221 70.7912 78.3071 70.7873C77.8575 70.7873 77.4644 70.7312 77.1207 70.6175C76.7415 70.498 76.375 70.3384 76.026 70.1408C75.6697 69.8719 75.3326 69.9376 75.1092 70.254C75.0241 70.3759 74.9771 70.5233 74.9755 70.6753C74.9738 70.8271 75.0172 70.9758 75.0998 71.0997L75.2046 71.2424C75.2749 71.3188 75.3989 71.4123 75.5776 71.5221C75.7556 71.6313 75.9777 71.7372 76.24 71.8396C76.5038 71.9432 76.8041 72.031 77.1396 72.1006C77.1396 72.1006 77.8411 72.207 78.2359 72.207C78.7686 72.2115 79.2991 72.1304 79.8093 71.9664C80.2965 71.8045 80.7207 71.5657 81.0795 71.2458C81.4391 70.9294 81.7283 70.5319 81.9259 70.0819C82.128 69.6245 82.2299 69.1026 82.2299 68.5184C82.2299 68.022 82.1526 67.5901 81.9979 67.2255C81.8502 66.8741 81.6445 66.5539 81.39 66.2802V66.2807ZM57.3076 70.6367L55.8828 70.6373C55.8676 70.6373 55.8533 70.6407 55.839 70.6412H52.9807V66.1692H55.2025L55.209 66.1704L56.044 66.1692H56.3843L56.6003 66.1687C56.8507 66.1692 57.0642 66.017 57.1698 65.7956C57.2181 65.6924 57.2406 65.5779 57.2356 65.4628C57.2303 65.3477 57.198 65.2359 57.1407 65.1379C57.0839 65.04 57.0041 64.9592 56.9096 64.9032C56.8147 64.8472 56.7083 64.8179 56.5999 64.818L55.209 64.8197C55.1861 64.8197 55.1636 64.8242 55.1419 64.8265H52.9807V60.9053H55.7011C55.7367 60.9115 55.8374 60.903 55.8607 60.9115L57.2336 60.9149C57.3191 60.9149 57.4034 60.8969 57.4823 60.8621C57.5613 60.8274 57.6329 60.7764 57.693 60.7122C57.7536 60.6479 57.8014 60.5717 57.8341 60.4878C57.8665 60.4039 57.8832 60.3139 57.8832 60.2231C57.8832 60.1323 57.8665 60.0424 57.8337 59.9586C57.801 59.8747 57.7531 59.7985 57.6926 59.7343C57.6325 59.6701 57.5609 59.6192 57.4819 59.5845C57.403 59.5498 57.3183 59.5319 57.2332 59.532L56.7042 59.5257L56.6478 59.5229H52.0017C51.8594 59.5229 51.7293 59.5727 51.6053 59.6718C51.4818 59.7737 51.4196 59.9486 51.4196 60.1999V71.3488C51.4196 71.5996 51.4818 71.7745 51.6057 71.8747C51.7293 71.9743 51.8594 72.0242 52.0017 72.0242H56.4891L57.3085 72.0298C57.5625 72.0298 57.7834 71.8634 57.8898 71.6358C57.9393 71.5305 57.9626 71.4134 57.9573 71.2957C57.9524 71.1781 57.9192 71.0637 57.8607 70.9636C57.8026 70.8634 57.7212 70.7808 57.6243 70.7235C57.5277 70.6662 57.4189 70.6361 57.3081 70.6362L57.3076 70.6367ZM49.2907 59.5246L48.7957 59.5257V59.5229H42.2069V59.5252L41.7994 59.5263C41.4341 59.5269 41.1404 59.841 41.1396 60.2294C41.1391 60.3212 41.1563 60.4121 41.1891 60.497C41.2222 60.5819 41.2705 60.6589 41.3318 60.7238C41.3928 60.7888 41.4652 60.8402 41.545 60.8752C41.6247 60.9102 41.7102 60.9281 41.7966 60.9279L42.2781 60.9268V60.9336H44.7649V69.3998C44.7649 69.4117 44.7625 69.4225 44.7625 69.4338L44.7649 70.5943V70.7794H44.7657L44.7674 71.2549C44.7674 71.3644 44.7878 71.4728 44.8271 71.574C44.8668 71.6751 44.9245 71.767 44.9973 71.8443C45.0701 71.9216 45.1568 71.9829 45.2521 72.0247C45.3471 72.0664 45.4493 72.0878 45.552 72.0876C45.6547 72.0879 45.7561 72.0666 45.8506 72.0251C45.9456 71.9836 46.0319 71.9226 46.1043 71.8456C46.1767 71.7686 46.2344 71.6772 46.2736 71.5765C46.3129 71.4758 46.3334 71.3679 46.3334 71.2588L46.3285 69.4372L46.3281 69.4298V60.933H47.8024C47.8151 60.9341 47.827 60.9375 47.8401 60.9375L49.287 60.9319C49.4097 60.9309 49.5296 60.894 49.6339 60.8252C49.7382 60.7564 49.8225 60.6584 49.8781 60.5418C49.9223 60.4467 49.9473 60.3386 49.9473 60.2271C49.9477 60.135 49.9309 60.0437 49.8982 59.9585C49.8655 59.8732 49.8172 59.7957 49.7562 59.7304C49.6953 59.6651 49.6225 59.6132 49.5427 59.5778C49.4629 59.5424 49.377 59.5241 49.2907 59.524V59.5246ZM32.0291 59.7742C31.9587 59.6774 31.8683 59.5996 31.7644 59.5472C31.5861 59.4566 31.3811 59.4447 31.1946 59.5142C31.008 59.5836 30.8546 59.7288 30.7683 59.918L30.6824 60.0896L30.6595 60.1337L29.1745 63.417C29.0227 63.7708 28.8721 64.1296 28.7253 64.4925C28.578 64.8567 28.4356 65.223 28.2978 65.5913H28.2794C28.1219 65.2103 27.9697 64.8333 27.8179 64.4608C27.6739 64.0998 27.5234 63.7418 27.3667 63.3869L26.598 61.6927C26.5853 61.6393 26.5677 61.5875 26.5448 61.5381L25.7982 59.9192C25.7078 59.7233 25.5479 59.5735 25.354 59.5026C25.1596 59.4318 24.9473 59.4456 24.7628 59.541C24.6716 59.5882 24.5898 59.6542 24.5223 59.735C24.4552 59.8159 24.4036 59.9101 24.3705 60.0123C24.3378 60.1144 24.3239 60.2225 24.3304 60.3302C24.3366 60.438 24.3631 60.5434 24.4077 60.6403L24.4981 60.8373L24.4912 60.8419L24.9097 61.7317L25.1543 62.2599C25.165 62.2848 25.1789 62.3069 25.192 62.3295L27.4673 67.1638V69.4281L27.4669 69.4338L27.4673 69.6625V70.8829H27.471L27.4726 71.2554C27.4726 71.5809 27.6502 71.8634 27.9067 72.0004C28.0118 72.0553 28.1321 72.0864 28.2565 72.0876C28.3587 72.0879 28.4606 72.0668 28.5551 72.0253C28.65 71.9838 28.7363 71.9228 28.8087 71.8458C28.8811 71.7688 28.9388 71.6773 28.9781 71.5766C29.0174 71.4759 29.0374 71.3679 29.0374 71.2588L29.0333 69.4372C29.0333 69.4259 29.0301 69.4163 29.0301 69.4055V67.1638L31.3079 62.3493C31.3324 62.3131 31.3762 62.2101 31.3954 62.1693L32.1081 60.6024C32.1694 60.4703 32.1944 60.3227 32.1801 60.1762C32.1661 60.0298 32.1138 59.8905 32.0291 59.7742ZM73.0491 69.4383L73.0478 69.4247V60.2752C73.0478 60.1411 73.0302 60.0278 72.993 59.9333C72.9611 59.8468 72.9128 59.7682 72.8511 59.7024C72.7905 59.6397 72.7173 59.593 72.6367 59.5659C72.5524 59.5369 72.4645 59.5224 72.3761 59.5229H71.3701C71.2159 59.5229 71.0817 59.5399 70.9643 59.5767C70.8477 59.6107 70.7389 59.6699 70.6452 59.7505C70.5499 59.8309 70.4636 59.939 70.3834 60.0731C70.3012 60.209 70.2288 60.372 70.1609 60.5656L66.6648 69.5895H66.6202L63.2591 60.5362C63.2104 60.3783 63.1458 60.2263 63.0668 60.0828C62.9952 59.9582 62.9011 59.8499 62.7903 59.7641C62.6725 59.6785 62.5411 59.6164 62.4025 59.5806C62.2327 59.5392 62.0588 59.5198 61.8846 59.5229H60.9269C60.7591 59.5229 60.6102 59.5806 60.4761 59.6961C60.3406 59.8122 60.2719 60.0063 60.2719 60.2752V70.8761H60.2772L60.2785 71.2549C60.2789 71.475 60.3615 71.686 60.5084 71.8414C60.6548 71.9968 60.8536 72.0839 61.0606 72.0836C61.1625 72.0838 61.264 72.0624 61.3585 72.0208C61.453 71.9793 61.5389 71.9183 61.6109 71.8413C61.6833 71.7644 61.7406 71.673 61.7794 71.5725C61.8187 71.472 61.8387 71.3642 61.8383 71.2554L61.8359 69.4383L61.8346 69.427V60.8843H61.842L65.802 71.8204C65.8143 71.8594 65.8372 71.894 65.8695 71.9279C65.9043 71.9591 65.9497 71.9862 66.0115 72.0089C66.0716 72.0315 66.1477 72.0474 66.2381 72.0621C66.3301 72.0757 66.4377 72.0819 66.565 72.0819C66.6865 72.0819 66.7896 72.0774 66.8783 72.0672C66.9655 72.0576 67.0424 72.0412 67.1062 72.0196C67.1598 72.0032 67.2093 71.9746 67.2514 71.9359C67.2846 71.9039 67.3103 71.8644 67.3275 71.8204L71.4691 60.8843H71.4884V70.9831H71.4912L71.4921 71.2543C71.4929 71.4742 71.5751 71.6849 71.7216 71.8402C71.8676 71.9956 72.066 72.0829 72.2726 72.083C72.3749 72.0833 72.4763 72.062 72.5708 72.0205C72.6653 71.9789 72.7516 71.9179 72.8236 71.841C72.8961 71.7641 72.9537 71.6727 72.9926 71.5721C73.0319 71.4715 73.0519 71.3637 73.0515 71.2549L73.0491 69.4383Z" fill="#333333"/>
</g>
<defs>
<clipPath id="clip0_1954_3612">
<rect width="68" height="45" fill="white" transform="translate(16 28)"/>
</clipPath>
</defs>
</svg>
