<?xml version="1.0" encoding="utf-8"?>
<!-- Generator: Adobe Illustrator 16.0.0, SVG Export Plug-In . SVG Version: 6.00 Build 0)  -->
<!DOCTYPE svg PUBLIC "-//W3C//DTD SVG 1.1//EN" "http://www.w3.org/Graphics/SVG/1.1/DTD/svg11.dtd">
<svg version="1.1"
	 id="svg2" sodipodi:docname="logo.svg" inkscape:version="0.91 r" xmlns:dc="http://purl.org/dc/elements/1.1/" xmlns:cc="http://creativecommons.org/ns#" xmlns:rdf="http://www.w3.org/1999/02/22-rdf-syntax-ns#" xmlns:svg="http://www.w3.org/2000/svg" xmlns:sodipodi="http://sodipodi.sourceforge.net/DTD/sodipodi-0.dtd" xmlns:inkscape="http://www.inkscape.org/namespaces/inkscape"
	 xmlns="http://www.w3.org/2000/svg" xmlns:xlink="http://www.w3.org/1999/xlink" x="0px" y="0px" width="1708.859px"
	 height="219.627px" viewBox="0 0 1708.859 219.627" enable-background="new 0 0 1708.859 219.627" xml:space="preserve">
<filter  style="color-interpolation-filters:sRGB" id="filter4419">
	<feFlood  flood-color="rgb(0,0,0)" flood-opacity=".29412" result="flood" id="feFlood4421"></feFlood>
	<feComposite  in="flood" in2="SourceGraphic" operator="in" result="composite1" id="feComposite4423"></feComposite>
	<feOffset  dy="1" dx="2" result="offset" id="feOffset4427"></feOffset>
	<feComposite  in="SourceGraphic" in2="offset" operator="over" result="composite2" id="feComposite4429"></feComposite>
</filter>
<sodipodi:namedview  units="px" fit-margin-bottom="0" fit-margin-right="0" inkscape:current-layer="text3336" inkscape:window-maximized="1" inkscape:window-x="-2" inkscape:window-height="1060" inkscape:window-width="1852" inkscape:window-y="-3" inkscape:pageshadow="2" inkscape:pageopacity="0" fit-margin-left="0" fit-margin-top="0" inkscape:cy="428.38002" inkscape:cx="816.53534" inkscape:zoom="0.49040158" showgrid="false" id="namedview16" guidetolerance="10" gridtolerance="10" objecttolerance="10" borderopacity="1" bordercolor="#666666" pagecolor="#ffffff">
	</sodipodi:namedview>
<g id="layer1" transform="translate(734.78497,-221.6802)">
	<g id="text3336" filter="url(#filter4419)">
		<path id="path4191_7_" inkscape:connector-curvature="0" fill="#A7A48B" d="M-715.679,440.109
			c-5.528-1.764-11.9-7.242-14.618-12.568c-2.375-4.654-2.488-7.432-2.488-61.242c0-63.427,0.308-66.375,8.855-84.787
			c15.099-32.524,41.864-52.731,77.621-58.6c29.471-4.838,63.47,4.839,87.3,24.847l8.917,7.487l6.466-6.086
			c12.343-11.62,24.323-18.402,41.707-23.612c9.2-2.757,13.577-3.318,26.634-3.413c8.792-0.063,18.905,0.61,23.125,1.54
			c38.608,8.507,69.725,37.049,80.802,74.115c2.496,8.354,2.78,12.558,3.261,48.212l0.526,39.062h54.697
			c51.482,0,55.125-0.146,61.979-2.506c10.666-3.67,16.562-7.53,25.123-16.456c8.44-8.797,11.692-14.333,14.897-25.356
			c7.181-24.702-8.288-50.583-36.391-60.881c-6.707-2.458-10.672-2.78-42.396-3.443c-37.546-0.785-39.016-1.039-45.167-7.8
			c-5.263-5.786-7.006-10.96-6.479-19.231c0.68-10.675,5.021-17.184,14.296-21.43l6.843-3.133l39.003,0.544
			c34.835,0.486,40.041,0.828,48.72,3.2c19.901,5.439,40.812,18.87,53.457,34.337c7.81,9.55,17.905,29.772,20.734,41.531
			c3.1,12.881,2.778,36.994-0.662,50c-9.649,36.459-36.751,66.275-70.746,77.838l-10,3.401l-78.75,0.396
			c-54.225,0.272-80.192-0.027-83.381-0.966c-6.253-1.837-12.116-7.001-14.895-13.118c-2.088-4.598-2.297-9.098-2.322-50.101
			c-0.021-35.831-0.409-46.515-1.892-52.208c-5.226-20.063-20.479-36.686-39.227-42.748c-9.841-3.182-23.877-2.15-33.271,2.446
			c-12.672,6.2-24.576,20.861-29.482,36.311c-1.123,3.537-1.799,20.214-2.309,56.983l-0.721,51.986l-3.579,5.159
			c-4.019,5.795-14,11.498-20.104,11.486c-11.207-0.021-22.799-8.244-25.541-18.121c-0.902-3.25-1.389-21.44-1.394-52.054
			c-0.01-43.228-0.207-47.7-2.462-55c-4.725-15.289-16.781-29.366-31.186-36.415c-7.605-3.722-9.188-4.029-20.734-4.029
			c-11.095,0-13.283,0.385-19.468,3.425c-12.872,6.325-23.918,19.567-28.945,34.7c-2.536,7.634-2.741,11.236-3.393,59.584
			l-0.693,51.457l-3.75,5.307c-2.062,2.918-5.924,6.428-8.582,7.801C-701.208,440.787-710.438,441.78-715.679,440.109
			L-715.679,440.109z"/>
		<path id="path4189_7_" inkscape:connector-curvature="0" d="M-103.635,432.574c-23.302-6.107-33.929-15.818-28.596-26.132
			c3.938-7.614,8.184-8.028,20.875-2.042c12.13,5.721,22.076,8.164,33.235,8.164c10.315,0,20.681-3.062,27.208-8.041
			c6.044-4.609,10.629-14.625,10.596-23.143c-0.062-15.609-7.895-23.741-35.604-36.965c-10.54-5.029-22.162-11.067-25.828-13.417
			c-9.293-5.958-17.481-14.654-21.771-23.119c-3.444-6.802-3.644-8.034-3.644-22.815c0-14.714,0.205-16.014,3.516-22.3
			c9.975-18.935,28.812-28.906,54.609-28.906c17.067,0,38.384,6.544,43.817,13.451c3.519,4.473,3.282,12.77-0.462,16.288
			c-3.74,3.516-8.269,3.438-15.586-0.268c-26.516-13.427-54.485-7.136-59.057,13.281c-1.28,5.721-1.201,7.861,0.508,13.738
			c3.211,11.048,10.673,16.923,39.736,31.287c17.666,8.73,26.037,13.628,31.123,18.207c13.028,11.728,18.47,27.485,16.074,46.561
			c-2.877,22.912-19.45,40.435-44.231,46.761C-67.846,435.902-92.108,435.595-103.635,432.574z"/>
		<path id="path4187_7_" inkscape:connector-curvature="0" d="M181.313,432.662c-25.212-6.195-36.839-18.801-26.694-28.941
			c4.146-4.146,9.198-4.77,13.615-1.676c1.557,1.091,7.445,3.686,13.092,5.767c22.89,8.438,46.791,5.067,57.115-8.062
			c3.419-4.345,6.273-12.676,6.267-18.278c-0.024-15.769-7.575-23.386-37.691-38.022c-25.845-12.562-35.006-19.006-42.078-29.596
			c-6.689-10.02-8.238-15.623-8.13-29.412c0.114-14.388,3.255-23.068,11.681-32.287c10.899-11.927,27.229-18.304,46.854-18.298
			c19.068,0.006,41.045,7.313,45.001,14.962c2.812,5.438,2.362,10.873-1.194,14.43c-4.116,4.116-6.834,3.889-19.381-1.62
			c-10.115-4.441-11.365-4.688-23.801-4.688c-11.054,0-13.914,0.425-18.125,2.691c-6.672,3.591-10.146,7.513-12.458,14.064
			c-2.529,7.169-2.383,13.349,0.466,19.623c4.303,9.474,11.368,14.631,38.338,27.984c28.763,14.24,37.123,20.812,43.745,34.388
			c3.429,7.024,3.658,8.451,3.658,22.563c0,14.896-0.053,15.173-4.698,24.572c-7.628,15.435-20.754,25.639-39.002,30.324
			C217.523,435.812,193.089,435.556,181.313,432.662L181.313,432.662z"/>
		<path id="path4185_7_" sodipodi:nodetypes="sscssssssssscssssszsss" inkscape:connector-curvature="0" d="M885.336,434.229
			c-17.012-3.708-31.203-10.575-34.946-16.91c-2.852-4.827-1.683-11.284,2.661-14.7c4.054-3.188,8.638-3.244,13.688-0.166
			c8.156,4.976,22.148,9.115,33.041,9.778c24.587,1.498,40.353-9.142,42.1-28.409c1.553-17.119-5.909-25.141-37.757-40.588
			c-29.539-14.328-40.33-23.102-46.463-37.779c-3.162-7.568-4.372-19.587-2.9-28.801c4.259-26.659,26.394-42.796,58.704-42.796
			c16.924,0,36.42,5.965,43.116,13.192c6.225,6.715,2.479,19.264-5.75,19.264c-2.034,0-6.377-1.356-9.649-3.015
			c-10.547-5.345-19.63-7.332-30.728-6.722c-11.72,0.644-18.916,3.703-23.619,10.038c-9.045,12.182-7.687,24.624,3.935,35.991
			c5.885,5.758,11.212,8.962,31.783,19.119c27.53,13.593,35.987,20.163,42.927,33.353c3.442,6.545,3.61,18.773,3.61,23.111
			s-0.068,16.385-4.257,24.732c-7.38,14.707-21.685,25.668-39.443,30.229C918.397,434.945,891.897,435.66,885.336,434.229
			L885.336,434.229z"/>
		<path id="path4183_7_" inkscape:connector-curvature="0" d="M61.92,430.168l-4.082-3.646l-0.625-36.042l-0.625-36.042
			l-26.213-52.185L4.163,250.07L6,244.754c3.281-9.493,14.681-12.357,21.396-5.377c2.797,2.905,28.138,54.872,37.517,76.937
			c2.774,6.531,5.438,12.293,5.915,12.804c0.477,0.51,3.055-4.271,5.729-10.625c10.123-24.06,35.92-76.658,38.925-79.366
			c3.729-3.361,12.228-3.828,16.404-0.9c1.501,1.051,3.295,3.958,3.985,6.458c1.628,5.898-0.583,10.97-30.146,69.13L83.172,358.19
			l0.888,30.875c0.644,22.312,0.483,32.099-0.568,35.292C80.283,434.069,69.531,436.966,61.92,430.168L61.92,430.168z"/>
		<path id="path4181_7_" inkscape:connector-curvature="0" d="M352.163,431.987c-6.311-3.433-6.21-2.063-6.527-90.048l-0.299-82.5
			l-26.821-0.338c-25.171-0.317-26.992-0.498-29.582-2.931c-3.64-3.419-4.715-8.147-2.867-12.607
			c3.026-7.307,2.438-7.249,73.487-7.249h64.966l3.849,3.236c5.061,4.258,5.409,11.562,0.775,16.196
			c-3.065,3.068-3.071,3.068-30,3.068h-26.932v83.25v83.25l-4.25,4.25C363.256,434.27,357.876,435.095,352.163,431.987
			L352.163,431.987z"/>
		<path id="path4179_7_" inkscape:connector-curvature="0" d="M610.961,432.214c-1.719-0.857-4.114-3.521-5.323-5.918
			c-2.047-4.059-2.177-10.562-1.875-94.153l0.323-89.796l3.652-3.142c3.53-3.037,4.136-3.125,18.125-2.657
			c15.52,0.52,20.854,2.194,24.441,7.671c1.028,1.569,14.856,35.724,30.729,75.9c15.872,40.175,28.981,73.169,29.134,73.32
			s13.749-32.439,30.22-72.424c16.471-39.985,31.083-74.414,32.471-76.512c4.237-6.399,9.5-8.185,24.136-8.187
			c12.603-0.002,12.996,0.085,16.562,3.652l3.654,3.654v90.846v90.846l-4.25,4.25c-3.062,3.061-5.368,4.25-8.245,4.25
			c-4.41,0-10.636-3.168-12.153-6.184c-0.537-1.068-1.258-39.166-1.602-84.663l-0.625-82.722l-34.254,84.973
			c-23.298,57.791-35.082,85.552-36.841,86.783c-3.061,2.143-15.545,2.436-19.865,0.467c-2.485-1.133-8.082-14.666-35.371-85.538
			l-32.419-84.193l-0.625,80.851c-0.479,61.703-0.997,81.504-2.197,83.602C625.207,433.405,617.627,435.546,610.961,432.214
			L610.961,432.214z"/>
		<path id="path4159_7_" inkscape:connector-curvature="0" d="M459.538,430.173l-2.951-2.389l-0.337-91.043
			c-0.238-64.342,0.066-92.021,1.045-94.38c2.453-5.922,4.758-6.165,54.768-5.782l46.618,0.357l3.018,3.507
			c3.282,3.82,3.836,8.242,1.562,12.513c-3.039,5.705-3.541,5.773-42.607,5.815l-37.188,0.04v30.761v30.76l31.771-0.448
			l31.771-0.448l3.229,3.03c4.402,4.131,4.479,11.461,0.162,15.775l-3.067,3.068h-31.933h-31.933v34.322v34.324l38.234,0.361
			l38.233,0.365l3.017,3.507c3.282,3.819,3.836,8.242,1.562,12.515c-3.088,5.797-2.871,5.771-53.72,5.813
			C465.066,432.562,462.331,432.437,459.538,430.173L459.538,430.173z"/>
	</g>
</g>
</svg>
