<svg width="154" height="145" viewBox="0 0 154 145" fill="none" xmlns="http://www.w3.org/2000/svg">
<g clip-path="url(#clip0_2521_4842)">
<path opacity="0.15" d="M59.5746 123.122C116.522 143.233 140.449 102.097 145.294 79.0156C166.006 4.56522 48.9445 14.8538 24.6386 39.1786C7.86644 55.9638 -11.6099 97.9833 59.5746 123.122Z" fill="#53BAD1"/>
<path opacity="0.1" d="M29.125 109.995C69.3379 161.547 115.149 137.981 133.029 119.754C195.335 63.9277 82.5661 5.04714 46.2123 13.0592C21.1265 18.5879 -21.1411 45.5552 29.125 109.995Z" fill="#53BAD1"/>
<g clip-path="url(#clip1_2521_4842)">
<path d="M79.5002 32.731C68.7521 32.731 58.9213 36.6598 51.3406 43.1502C51.6175 43.6521 51.8079 44.2233 51.8079 44.8463C51.8079 46.7502 50.2502 48.3079 48.3463 48.3079C47.7233 48.3079 47.1521 48.1348 46.6502 47.8579C40.1598 55.4213 36.231 65.2521 36.231 76.0002C36.231 99.9021 55.5983 119.269 79.5002 119.269C90.2483 119.269 100.079 115.341 107.66 108.85C107.383 108.348 107.192 107.777 107.192 107.154C107.192 105.25 108.75 103.692 110.654 103.692C111.277 103.692 111.848 103.866 112.35 104.142C118.841 96.579 122.769 86.7483 122.769 76.0002C122.769 52.0983 103.402 32.731 79.5002 32.731Z" stroke="#53BAD1" stroke-width="3" stroke-miterlimit="10"/>
<path d="M79.5002 88.1155C86.1913 88.1155 91.6155 82.6913 91.6155 76.0002C91.6155 69.309 86.1913 63.8848 79.5002 63.8848C72.809 63.8848 67.3848 69.309 67.3848 76.0002C67.3848 82.6913 72.809 88.1155 79.5002 88.1155Z" fill="white" stroke="#53BAD1" stroke-width="3" stroke-miterlimit="10"/>
<path d="M50.0768 79.4617C51.9885 79.4617 53.5383 77.9119 53.5383 76.0001C53.5383 74.0884 51.9885 72.5386 50.0768 72.5386C48.165 72.5386 46.6152 74.0884 46.6152 76.0001C46.6152 77.9119 48.165 79.4617 50.0768 79.4617Z" fill="white" stroke="#53BAD1" stroke-width="3" stroke-miterlimit="10"/>
<path d="M79.5001 50.0383C81.4119 50.0383 82.9617 48.4885 82.9617 46.5768C82.9617 44.665 81.4119 43.1152 79.5001 43.1152C77.5884 43.1152 76.0386 44.665 76.0386 46.5768C76.0386 48.4885 77.5884 50.0383 79.5001 50.0383Z" fill="white" stroke="#53BAD1" stroke-width="3" stroke-miterlimit="10"/>
<path d="M48.3463 48.3078C50.2581 48.3078 51.8078 46.7581 51.8078 44.8463C51.8078 42.9345 50.2581 41.3848 48.3463 41.3848C46.4345 41.3848 44.8848 42.9345 44.8848 44.8463C44.8848 46.7581 46.4345 48.3078 48.3463 48.3078Z" fill="white" stroke="#53BAD1" stroke-width="3" stroke-miterlimit="10"/>
<path d="M110.654 110.615C112.566 110.615 114.115 109.066 114.115 107.154C114.115 105.242 112.566 103.692 110.654 103.692C108.742 103.692 107.192 105.242 107.192 107.154C107.192 109.066 108.742 110.615 110.654 110.615Z" fill="white" stroke="#53BAD1" stroke-width="3" stroke-miterlimit="10"/>
<path d="M110.1 45.3999L79.5 75.9999" stroke="#53BAD1" stroke-width="3" stroke-linecap="round" stroke-linejoin="round"/>
<path d="M82.9441 46.8018C82.8229 48.6018 81.3344 50.0383 79.4998 50.0383C77.6652 50.0383 76.1768 48.6018 76.0556 46.8018C62.5556 48.3768 51.8768 59.0729 50.3018 72.5729C52.1018 72.6941 53.5383 74.1825 53.5383 76.0171C53.5383 77.8518 52.1018 79.3402 50.3018 79.4614C52.0152 94.0864 64.4248 105.44 79.4998 105.44C95.7518 105.44 108.923 92.2691 108.923 76.0171C108.923 60.9248 97.5691 48.5152 82.9441 46.8191V46.8018Z" stroke="#53BAD1" stroke-width="3" stroke-miterlimit="10"/>
</g>
</g>
<defs>
<clipPath id="clip0_2521_4842">
<rect width="153" height="145" fill="white" transform="translate(0.5)"/>
</clipPath>
<clipPath id="clip1_2521_4842">
<rect width="90" height="90" fill="white" transform="translate(34.5 31)"/>
</clipPath>
</defs>
</svg>
