<svg width="100" height="100" viewBox="0 0 100 100" fill="none" xmlns="http://www.w3.org/2000/svg">
<path d="M32.2852 3L40.6033 23.135H30L33.5192 32H55L32.2852 3Z" fill="#F0D500"/>
<path d="M61 75.8956L57.3459 67.044H52.3333L45.1189 50H40.6216L47.7892 67.044H35L58.6577 96L50.1315 75.8956H61Z" fill="#F0D500"/>
<path d="M64.0051 40.771C64.2845 40.771 64.8899 40.4431 64.8899 37.3982C64.8899 34.3533 64.2845 34.0254 64.0051 34.0254H48.9648L51.8053 40.771H64.0051Z" fill="#040000"/>
<path d="M55.2522 48.9219H65.3567C65.6361 48.9219 66.2414 48.594 66.2414 45.5491C66.2414 42.5042 65.6361 42.1763 65.3567 42.1763H52.3652L55.2522 48.9219Z" fill="#040000"/>
<path d="M64.005 58.3843H50.4082L53.2486 65.1767H64.005C64.2844 65.1767 64.8897 64.8488 64.8897 61.8039C64.8897 58.7122 64.2844 58.3843 64.005 58.3843Z" fill="#040000"/>
<path d="M65.3558 50.2334H46.9629L49.8033 57.0258H65.3092C65.5886 57.0258 66.194 56.6979 66.194 53.653C66.2405 50.5613 65.6352 50.2334 65.3558 50.2334Z" fill="#040000"/>
<path d="M64.005 58.3843H50.4082L53.2486 65.1767H64.005C64.2844 65.1767 64.8897 64.8488 64.8897 61.8039C64.8897 58.7122 64.2844 58.3843 64.005 58.3843Z" fill="#040000"/>
<path d="M65.3558 50.2334H46.9629L49.8033 57.0258H65.3092C65.5886 57.0258 66.194 56.6979 66.194 53.653C66.2405 50.5613 65.6352 50.2334 65.3558 50.2334Z" fill="#040000"/>
<path d="M44.7744 48.8751L41.3286 40.771H42.9584L46.4042 48.9219H53.6682L47.382 34.0254H31.6898C30.4791 34.0254 29.8272 34.0254 29.2685 35.8055C28.6166 37.9135 28.5234 41.8952 28.5234 49.6246C28.5234 57.3539 28.6166 61.3357 29.2685 63.4437C29.8272 65.2238 30.4791 65.2238 31.6898 65.2238H45.4729L38.6279 48.9688L44.7744 48.8751Z" fill="#040000"/>
</svg>
