<svg xmlns="http://www.w3.org/2000/svg" width="123.632" height="40.833" viewBox="0 0 123.632 40.833">
  <g id="pantheon-vector-logo" transform="translate(-35 -219.7)">
    <path id="Path_10" data-name="Path 10" d="M24.23,222.7l3.75,8.8H23.2l1.586,3.873h9.683Z" transform="translate(12.459 -3)" fill="#f0d500"/>
    <path id="Path_11" data-name="Path 11" d="M45.934,334.531l-1.607-3.873h-2.2L38.95,323.2H36.972l3.152,7.458H34.5l10.4,12.67-3.75-8.8Z" transform="translate(3.487 -82.795)" fill="#f0d500"/>
    <g id="Group_3" data-name="Group 3" transform="translate(35 233.277)">
      <path id="Path_12" data-name="Path 12" d="M70.554,291.567c.124,0,.391-.144.391-1.483s-.268-1.483-.391-1.483H63.9l1.257,2.967Z" transform="translate(-54.856 -288.6)" fill="#fff"/>
      <path id="Path_13" data-name="Path 13" d="M72.477,308.967h4.471c.124,0,.391-.144.391-1.483S77.072,306,76.948,306H71.2Z" transform="translate(-60.652 -302.415)" fill="#fff"/>
      <path id="Path_14" data-name="Path 14" d="M73.016,340.6H67l1.257,2.987h4.759c.124,0,.391-.144.391-1.483,0-1.36-.268-1.5-.391-1.5" transform="translate(-57.317 -329.887)" fill="#fff"/>
      <path id="Path_15" data-name="Path 15" d="M67.738,323.2H59.6l1.257,2.987h6.86c.124,0,.391-.144.391-1.483.021-1.36-.247-1.5-.371-1.5" transform="translate(-51.442 -316.072)" fill="#fff"/>
      <path id="Path_16" data-name="Path 16" d="M73.016,340.6H67l1.257,2.987h4.759c.124,0,.391-.144.391-1.483,0-1.36-.268-1.5-.391-1.5" transform="translate(-57.317 -329.887)" fill="#fff"/>
      <path id="Path_17" data-name="Path 17" d="M67.738,323.2H59.6l1.257,2.987h6.86c.124,0,.391-.144.391-1.483.021-1.36-.247-1.5-.371-1.5" transform="translate(-51.442 -316.072)" fill="#fff"/>
      <path id="Path_18" data-name="Path 18" d="M27.19,295.131l-1.525-3.564h.721l1.525,3.585h3.214L28.344,288.6H21.4c-.536,0-.824,0-1.071.783-.288.927-.33,2.678-.33,6.078s.041,5.15.33,6.078c.247.783.536.783,1.071.783h6.1l-3.028-7.149Z" transform="translate(-20 -288.6)" fill="#fff"/>
      <path id="Path_19" data-name="Path 19" d="M192.935,292.9h-3.276L184.9,305.1h3.338l.845-2.081h4.347l.783,2.081h3.358Zm-2.987,7.746,1.3-3.914h.041l1.277,3.914Z" transform="translate(-150.927 -292.014)" fill="#fff"/>
      <path id="Path_20" data-name="Path 20" d="M144.921,292.9H140.1v12.217h3.276v-4.162h1.648c2.74,0,4.285-1.195,4.285-4.059,0-2.8-1.792-4-4.388-4m-1.154,5.645h-.412v-2.987h.412c1.216,0,2.266-.021,2.266,1.5,0,1.483-1.112,1.483-2.266,1.483" transform="translate(-115.357 -292.014)" fill="#fff"/>
      <path id="Path_21" data-name="Path 21" d="M449.876,300.337h3.276v-2.678h-3.276v-2.081h4.45V292.9H446.6v12.217h7.726V302.13h-4.45Z" transform="translate(-358.712 -292.014)" fill="#fff"/>
      <path id="Path_22" data-name="Path 22" d="M323.7,296.176h2.967l.021,8.921h3.255v-8.921h2.987V292.9H323.7Z" transform="translate(-261.132 -292.014)" fill="#fff"/>
      <path id="Path_23" data-name="Path 23" d="M387.746,297.659H383.3V292.9H380v12.2h3.3v-4.759h4.45V305.1h3.276V292.9h-3.276Z" transform="translate(-305.833 -292.014)" fill="#fff"/>
      <path id="Path_24" data-name="Path 24" d="M499,296.176A2.823,2.823,0,1,1,496.176,299,2.827,2.827,0,0,1,499,296.176m0-3.276a6.1,6.1,0,1,0,6.1,6.1,6.1,6.1,0,0,0-6.1-6.1" transform="translate(-395.473 -292.014)" fill="#fff"/>
      <path id="Path_25" data-name="Path 25" d="M572.023,299.74l-5.253-6.84H563.7v12.217h3.276v-6.861l5.006,6.861h3.338V292.9h-3.3Z" transform="translate(-451.687 -292.014)" fill="#fff"/>
      <path id="Path_26" data-name="Path 26" d="M264.023,299.74l-5.233-6.84H255.7v12.217H259l-.021-6.861L264,305.117h3.317V292.9h-3.276Z" transform="translate(-207.141 -292.014)" fill="#fff"/>
    </g>
  </g>
</svg>
