<svg width="63" height="100" viewBox="0 0 63 100" fill="none" xmlns="http://www.w3.org/2000/svg">
<path opacity="0.5" d="M53.125 0H9.375C4.10156 0 0 4.29688 0 9.375V90.625C0 95.8984 4.10156 100 9.375 100H53.125C58.2031 100 62.5 95.8984 62.5 90.625V9.375C62.5 4.29688 58.2031 0 53.125 0ZM31.25 93.75C27.7344 93.75 25 91.0156 25 87.5C25 84.1797 27.7344 81.25 31.25 81.25C34.5703 81.25 37.5 84.1797 37.5 87.5C37.5 91.0156 34.5703 93.75 31.25 93.75ZM53.125 72.6562C53.125 74.0234 51.9531 75 50.7812 75H11.7188C10.3516 75 9.375 74.0234 9.375 72.6562V11.7188C9.375 10.5469 10.3516 9.375 11.7188 9.375H50.7812C51.9531 9.375 53.125 10.5469 53.125 11.7188V72.6562Z" fill="#C3C3C3"/>
</svg>
