<svg xmlns="http://www.w3.org/2000/svg" width="112.955" height="88.879" viewBox="0 0 112.955 88.879">
  <g id="person" transform="translate(-510.606 -110.471)">
    <path id="Path_183" data-name="Path 183" d="M524.167,229.55c7.938,2.682,4.135,3.172,22.516,2.869-.5-6.684,2.844-7.553,4.424-14.009a34.282,34.282,0,0,1,2.756-8.151c.724-1.351,3.447-3.814,2.6-5.567-1.483-3.07-7.938.327-9.782,1.348A55.675,55.675,0,0,0,533.7,216.367c-.913.957-10.367,12.674-9.53,13.183" transform="translate(-5.896 -40.574)" fill="#ba6dc7"/>
    <path id="Path_189" data-name="Path 189" d="M625.133,203.671l-10.048,18.311c.024,3.2-.024,4.918,0,5.815,1.535-.017,2.834-.025,5.856,0,4.663.043,24.114.055,26.894,0,1.757.105,2.9.191,1.747-6.709-1.177-6.042-2.56-12.2-5.887-17.382-3.771-5.872-9.108-8.225-15.683-9.548-2.322-.468-10.965-3.736-9.522,1.544.714,2.61,4.88,5.873,6.642,7.97" transform="translate(-45.596 -35.901)" fill="#ba6dc7"/>
    <path id="Path_190" data-name="Path 190" d="M573.336,206.607l10.048,18.311c-.21,0-.677,1.076-.763,4.105-20.392.088-16.788-.033-25.28,0-9.892-.142-15.217.28-6.342-15.564,2.582-4.609,7.135-12,12.16-14.277,4.683-2.121,11.387-2.482,16.469-3.67l.265,3.294Z" transform="translate(-15.659 -37.116)" fill="#ba6dc7"/>
    <path id="Path_191" data-name="Path 191" d="M595.42,167.512c.017,1.305-.25,2.659.9,3.671a3.947,3.947,0,0,0,2.03.8,12.578,12.578,0,0,0,5.651-.4,5.071,5.071,0,0,0,2.06-1.086,2.58,2.58,0,0,0,.734-2.089c.037-.984.236-1.984.365-2.981.282-2.182.408-4.382.471-6.58,3.232-.554,7.033-1.6,8.138-4.985a11.1,11.1,0,0,0,.369-3.36q.052-7.036.1-14.07a13.582,13.582,0,0,0-.54-4.8c-.975-2.641-3.452-4.216-5.88-5.207-6.2-2.528-13.422-2.427-19.143,1.169a10.444,10.444,0,0,0-3.836,3.859c-1.352,2.577-1.182,5.757-.972,8.73q.291,4.117.581,8.233c.224,3.156.7,6.789,3.149,8.456,1.3.885,2.983,1.048,4.1,2.193,1.957,2,1.025,4.985,1.6,7.408a4.757,4.757,0,0,1,.112,1.043" transform="translate(-32.786 -6.203)" fill="#efbfa5"/>
    <path id="Path_192" data-name="Path 192" d="M617.275,165.362c-.052-.869-.432-3.418-1.74-1.816a2.619,2.619,0,0,0-.447,1.568,5.9,5.9,0,0,1-.171,1.657,2.92,2.92,0,0,1-2.925,1.732,2.852,2.852,0,0,1-1.372-.323,4.281,4.281,0,0,1-1.042-.959l-2.288-2.625c-1.31-1.5-3.91-.854-5.676-.623a11.308,11.308,0,0,0-5.735,2.219c-.168.135-.332.277-.5.419a6.115,6.115,0,0,1-1.271.915,3.919,3.919,0,0,1-4.621-1.465c-.5-.656-.976-1.5-1.76-1.611a1.613,1.613,0,0,0-1.526.928,4.6,4.6,0,0,0-.442,1.925,14.131,14.131,0,0,0,1.229,7.069c2.277,4.659,6.679,5.231,11.1,5.127l5.247-.124c3.2-.076,6.577-.209,9.271-2.067a11.484,11.484,0,0,0,4.367-7.347,18.107,18.107,0,0,0,.3-4.6m-11.7,6.6a6.124,6.124,0,0,1-5.416.628c-.8-.24-.459-1.579.34-1.339a4.92,4.92,0,0,0,4.425-.486c.7-.474,1.353.726.651,1.2" transform="translate(-32.785 -22.938)" fill="#3c4858"/>
    <path id="Path_193" data-name="Path 193" d="M615.521,117.009a24.953,24.953,0,0,0,.682-3.464,6.854,6.854,0,0,1-3.391.29q0-1.011-.008-2.023c-.005-.561-7.593-.954-8.21-1-5.772-.474-11.051-.924-16.271,2.174a15.72,15.72,0,0,0-8,11.742,24.04,24.04,0,0,0,3.8,15.41c-.016-1.309-.769-4.395-.46-5.638a11.1,11.1,0,0,1,1.213-3.557,14.667,14.667,0,0,1,5.145-5.408,28.515,28.515,0,0,1,11.245-3.788c3.6-.5,7.986-.964,11.542-.01,1.709.458,1.993.887,3.028-.839a29.26,29.26,0,0,0,1.488-3.858l-1.8-.028" transform="translate(-30.364)" fill="#3c4858"/>
    <path id="Path_194" data-name="Path 194" d="M681.45,253.305a2.133,2.133,0,0,1-.442-.345c-1.093-1.238-.828-2.407-1.495-3.833-.3-.636-2.289-1.04-1.348-2.154.347-.411,1.37-1.309,2.12-2.179,1.366-1.583.091-3.883,1.515-5.661,1.223-1.528,5.633-2.939,7.179-.694.579.843-.225,2.2-.1,3.117.19,1.4,1.323,2.342,1.835,3.647a10.361,10.361,0,0,1,.642,3.964c-.137,2.365-2.528,3.617-4.482,4.892a3,3,0,0,1-1.39.608,5.037,5.037,0,0,1-2.61-.62,9.245,9.245,0,0,1-1.422-.742" transform="translate(-73.02 -55.34)" fill="#efbfa5"/>
    <path id="Path_195" data-name="Path 195" d="M692.467,244.379a4.918,4.918,0,0,0,2.444-5.171,7.331,7.331,0,0,0-3.474-4.829,14.857,14.857,0,0,0-5.787-1.891,11.662,11.662,0,0,0-7.105.732,11.868,11.868,0,0,0-3.1,2.573,3.518,3.518,0,0,0-1.206,2.371,3.367,3.367,0,0,0,.787,1.762c2.5,3.427,3.43,3.29,7.292,3.08a32.7,32.7,0,0,1,10.151,1.373" transform="translate(-71.414 -53.158)" fill="#ba6dc7"/>
    <path id="Path_196" data-name="Path 196" d="M526.931,246.717a2.126,2.126,0,0,0,.493-.268c1.281-1.042,1.212-2.239,2.1-3.536.4-.578,2.428-.65,1.683-1.9-.275-.463-1.137-1.517-1.734-2.5-1.088-1.786.548-3.846-.565-5.833-.957-1.709-5.075-3.824-6.969-1.863-.71.736-.139,2.209-.411,3.091-.418,1.355-1.688,2.094-2.408,3.3a10.364,10.364,0,0,0-1.284,3.8c-.254,2.355,1.9,3.982,3.619,5.561a3,3,0,0,0,1.272.827,5.029,5.029,0,0,0,2.676-.183,9.249,9.249,0,0,0,1.525-.5" transform="translate(-3.148 -52.18)" fill="#efbfa5"/>
    <path id="Path_197" data-name="Path 197" d="M512.438,235.938a4.918,4.918,0,0,1-1.562-5.5,7.329,7.329,0,0,1,4.219-4.193,14.856,14.856,0,0,1,6.018-.917A11.665,11.665,0,0,1,528,227.215a11.857,11.857,0,0,1,2.637,3.047,3.52,3.52,0,0,1,.8,2.537,3.362,3.362,0,0,1-1.065,1.61c-3.033,2.969-3.924,2.683-7.7,1.841a32.7,32.7,0,0,0-10.239-.312" transform="translate(0 -50.125)" fill="#ba6dc7"/>
  </g>
</svg>
