<svg width="79" height="45" viewBox="0 0 79 45" fill="none" xmlns="http://www.w3.org/2000/svg">
<g clip-path="url(#clip0_2782_9806)">
<path d="M9.63753 28.3461C9.63753 30.9327 7.54698 33.0233 4.96037 33.0233C2.37375 33.0233 0.283203 30.9327 0.283203 28.3461C0.283203 25.7595 2.37375 23.6689 4.96037 23.6689H9.63753V28.3461ZM11.9761 28.3461C11.9761 25.7595 14.0667 23.6689 16.6533 23.6689C19.2399 23.6689 21.3304 25.7595 21.3304 28.3461V40.039C21.3304 42.6256 19.2399 44.7162 16.6533 44.7162C14.0667 44.7162 11.9761 42.6256 11.9761 40.039V28.3461Z" fill="#E01E5A"/>
<path d="M16.6536 9.56673C14.0669 9.56673 11.9764 7.47618 11.9764 4.88957C11.9764 2.30295 14.0669 0.212402 16.6536 0.212402C19.2402 0.212402 21.3307 2.30295 21.3307 4.88957V9.56673H16.6536ZM16.6536 11.9408C19.2402 11.9408 21.3307 14.0313 21.3307 16.6179C21.3307 19.2045 19.2402 21.2951 16.6536 21.2951H4.92521C2.3386 21.2951 0.248047 19.2045 0.248047 16.6179C0.248047 14.0313 2.3386 11.9408 4.92521 11.9408H16.6536Z" fill="#36C5F0"/>
<path d="M35.398 16.6179C35.398 14.0313 37.4885 11.9408 40.0752 11.9408C42.6618 11.9408 44.7523 14.0313 44.7523 16.6179C44.7523 19.2045 42.6618 21.2951 40.0752 21.2951H35.398V16.6179ZM33.0594 16.6179C33.0594 19.2045 30.9689 21.2951 28.3822 21.2951C25.7956 21.2951 23.7051 19.2045 23.7051 16.6179V4.88957C23.7051 2.30295 25.7956 0.212402 28.3822 0.212402C30.9689 0.212402 33.0594 2.30295 33.0594 4.88957V16.6179Z" fill="#2EB67D"/>
<path d="M28.3822 35.3619C30.9689 35.3619 33.0594 37.4524 33.0594 40.039C33.0594 42.6256 30.9689 44.7162 28.3822 44.7162C25.7956 44.7162 23.7051 42.6256 23.7051 40.039V35.3619H28.3822ZM28.3822 33.0233C25.7956 33.0233 23.7051 30.9327 23.7051 28.3461C23.7051 25.7595 25.7956 23.6689 28.3822 23.6689H40.1106C42.6972 23.6689 44.7878 25.7595 44.7878 28.3461C44.7878 30.9327 42.6972 33.0233 40.1106 33.0233H28.3822Z" fill="#ECB22E"/>
</g>
<circle cx="56.5" cy="22.5" r="22.5" fill="white"/>
<path d="M54.4064 21.6166L51.0886 17.9927C46.075 22.9523 48.7778 27.6104 49.5097 27.6352C49.586 27.6378 49.7122 27.6469 49.7988 27.4056C50.2183 26.2354 53.5926 22.8517 54.384 22.0398C54.4152 22.0148 54.4409 21.9835 54.4591 21.9479C54.4774 21.9123 54.488 21.8732 54.4901 21.8332C54.4922 21.7932 54.4859 21.7533 54.4715 21.7159C54.457 21.6786 54.4349 21.6447 54.4064 21.6166Z" fill="#009CDE"/>
<path d="M56.3763 23.5015C56.3763 23.5015 54.0341 26.0485 53.2933 26.9542C52.6467 27.7117 52.2847 28.6711 52.2695 29.667C52.2695 30.7563 52.7023 31.801 53.4725 32.5712C54.2428 33.3415 55.2875 33.7742 56.3768 33.7742C57.4661 33.7742 58.5108 33.3415 59.281 32.5712C60.0513 31.801 60.484 30.7563 60.484 29.667C60.4929 28.6629 60.1253 27.692 59.4537 26.9455C58.6829 26.0859 56.3763 23.5015 56.3763 23.5015Z" fill="#009CDE"/>
<path d="M56.5 0C52.0499 0 47.6998 1.3196 43.9997 3.79193C40.2996 6.26426 37.4157 9.77828 35.7127 13.8896C34.0097 18.001 33.5642 22.525 34.4323 26.8895C35.3005 31.2541 37.4434 35.2632 40.5901 38.4099C43.7368 41.5566 47.7459 43.6995 52.1105 44.5677C56.475 45.4358 60.999 44.9903 65.1104 43.2873C69.2217 41.5843 72.7357 38.7004 75.2081 35.0003C77.6804 31.3002 79 26.9501 79 22.5C79 16.5326 76.6295 10.8097 72.4099 6.59011C68.1903 2.37055 62.4674 1.49427e-05 56.5 0ZM56.3761 36.7965C53.2096 36.7927 50.174 35.533 47.9352 33.2938C45.6964 31.0545 44.4373 28.0187 44.4341 24.8522C44.4341 19.2577 48.1681 15.5275 51.4616 12.2361C53.6574 10.0413 55.7526 7.94905 56.3761 5.58911C56.9999 7.94907 59.0947 10.0413 61.291 12.2361C64.5854 15.5275 68.3189 19.258 68.3189 24.8522C68.3157 28.0188 67.0564 31.0548 64.8174 33.294C62.5784 35.5332 59.5426 36.7929 56.3761 36.7965Z" fill="#009CDE"/>
<path d="M56.3761 12.46C56.3761 12.46 54.7336 14.1015 54.1705 14.6656C53.722 15.1148 52.7548 15.9723 53.8805 17.1888C55.1601 18.5715 62.0019 25.7217 62.7858 26.882C63.1426 27.4105 63.1945 27.6579 63.6777 27.6404C63.9485 27.6303 64.1496 27.3072 64.2379 27.1135C64.6528 26.2069 65.3557 23.459 63.3152 20.2832C61.2747 17.1076 56.3761 12.46 56.3761 12.46Z" fill="#009CDE"/>
<defs>
<clipPath id="clip0_2782_9806">
<rect width="45" height="45" fill="white"/>
</clipPath>
</defs>
</svg>
