<svg width="91" height="90" viewBox="0 0 91 90" fill="none" xmlns="http://www.w3.org/2000/svg">
<g clip-path="url(#clip0_1740_2523)">
<path d="M7.39502 44.9997C7.39502 60.28 16.2753 73.4851 29.1524 79.7428L10.7373 29.2891C8.59531 34.0901 7.39502 39.4032 7.39502 44.9997Z" fill="#21759B"/>
<path d="M72.061 43.0518C72.061 38.2809 70.3472 34.9768 68.8773 32.4051C66.9204 29.2253 65.0862 26.5324 65.0862 23.3525C65.0862 19.8038 67.7777 16.5005 71.5688 16.5005C71.74 16.5005 71.9023 16.5218 72.0691 16.5314C65.2008 10.2392 56.0502 6.39746 45.9998 6.39746C32.513 6.39746 20.6474 13.317 13.7446 23.7976C14.6504 23.8248 15.5039 23.8439 16.229 23.8439C20.2669 23.8439 26.5174 23.354 26.5174 23.354C28.5985 23.2313 28.8438 26.2878 26.765 26.5338C26.765 26.5338 24.6736 26.7799 22.3465 26.9019L36.4048 68.7165L44.8531 43.3794L38.8384 26.9004C36.7596 26.7785 34.7902 26.5324 34.7902 26.5324C32.7099 26.4104 32.9537 23.2298 35.0341 23.3525C35.0341 23.3525 41.4094 23.8424 45.2028 23.8424C49.24 23.8424 55.4912 23.3525 55.4912 23.3525C57.5737 23.2298 57.8183 26.2863 55.7388 26.5324C55.7388 26.5324 53.643 26.7785 51.3203 26.9004L65.2713 68.3984L69.122 55.5312C70.7909 50.1917 72.061 46.3566 72.061 43.0518Z" fill="#21759B"/>
<path d="M46.6775 48.377L35.0947 82.0336C38.5531 83.0502 42.2105 83.6063 46.0002 83.6063C50.4958 83.6063 54.807 82.8291 58.82 81.418C58.7164 81.2527 58.6224 81.0772 58.5453 80.8862L46.6775 48.377Z" fill="#21759B"/>
<path d="M79.8742 26.4785C80.0402 27.7082 80.1342 29.0282 80.1342 30.4481C80.1342 34.3654 79.4026 38.7691 77.1989 44.2753L65.4067 78.3683C76.8837 71.6757 84.6034 59.2419 84.6034 45.0003C84.6041 38.2887 82.8896 31.9774 79.8742 26.4785Z" fill="#21759B"/>
<path d="M46 0.000976562C21.1868 0.000976562 0.998535 20.1873 0.998535 44.9999C0.998535 69.8154 21.1868 90.001 46 90.001C70.8124 90.001 91.0037 69.8154 91.0037 44.9999C91.0029 20.1873 70.8124 0.000976562 46 0.000976562ZM46 87.9383C22.3247 87.9383 3.06195 68.6761 3.06195 44.9999C3.06195 21.3251 22.324 2.06434 46 2.06434C69.6746 2.06434 88.9359 21.3251 88.9359 44.9999C88.9359 68.6761 69.6746 87.9383 46 87.9383Z" fill="#21759B"/>
</g>
<defs>
<clipPath id="clip0_1740_2523">
<rect width="90" height="90" fill="white" transform="translate(0.998535 0.000976562)"/>
</clipPath>
</defs>
</svg>
