<svg width="25" height="18" viewBox="0 0 25 18" fill="none" xmlns="http://www.w3.org/2000/svg">
<path d="M24.4516 2.78793C24.1773 1.69104 23.309 0.822669 22.2578 0.548446C20.2925 0 12.5229 0 12.5229 0C12.5229 0 4.7075 0 2.74223 0.548446C1.69104 0.822669 0.822669 1.69104 0.548446 2.78793C0 4.7075 0 8.82084 0 8.82084C0 8.82084 0 12.8885 0.548446 14.8537C0.822669 15.9506 1.69104 16.7733 2.74223 17.0475C4.7075 17.5503 12.5229 17.5503 12.5229 17.5503C12.5229 17.5503 20.2925 17.5503 22.2578 17.0475C23.309 16.7733 24.1773 15.9506 24.4516 14.8537C25 12.8885 25 8.82084 25 8.82084C25 8.82084 25 4.7075 24.4516 2.78793ZM9.96344 12.5229V5.11883L16.4534 8.82084L9.96344 12.5229Z" fill="#FF585B"/>
</svg>
